<?xml version="1.0" encoding="UTF-8" standalone="no"?>
<!-- Created with Inkscape (http://www.inkscape.org/) -->

<svg
   xmlns:dc="http://purl.org/dc/elements/1.1/"
   xmlns:cc="http://creativecommons.org/ns#"
   xmlns:rdf="http://www.w3.org/1999/02/22-rdf-syntax-ns#"
   xmlns:svg="http://www.w3.org/2000/svg"
   xmlns="http://www.w3.org/2000/svg"
   xmlns:sodipodi="http://sodipodi.sourceforge.net/DTD/sodipodi-0.dtd"
   xmlns:inkscape="http://www.inkscape.org/namespaces/inkscape"
   width="53.14938"
   height="53.152302"
   id="svg3132"
   version="1.1"
   inkscape:version="0.48.5 r10040"
   sodipodi:docname="LogoDefault.svg">
  <defs
     id="defs3134" />
  <sodipodi:namedview
     id="base"
     pagecolor="#ffffff"
     bordercolor="#666666"
     borderopacity="1.0"
     inkscape:pageopacity="0.0"
     inkscape:pageshadow="2"
     inkscape:zoom="0.35"
     inkscape:cx="26.57469"
     inkscape:cy="26.576147"
     inkscape:document-units="px"
     inkscape:current-layer="layer1"
     showgrid="false"
     fit-margin-top="0"
     fit-margin-left="0"
     fit-margin-right="0"
     fit-margin-bottom="0"
     inkscape:window-width="459"
     inkscape:window-height="409"
     inkscape:window-x="421"
     inkscape:window-y="118"
     inkscape:window-maximized="0" />
  <metadata
     id="metadata3137">
    <rdf:RDF>
      <cc:Work
         rdf:about="">
        <dc:format>image/svg+xml</dc:format>
        <dc:type
           rdf:resource="http://purl.org/dc/dcmitype/StillImage" />
        <dc:title></dc:title>
      </cc:Work>
    </rdf:RDF>
  </metadata>
  <g
     inkscape:label="Layer 1"
     inkscape:groupmode="layer"
     id="layer1"
     transform="translate(-348.42531,-505.78603)">
    <path
       inkscape:connector-curvature="0"
       id="path100"
       style="fill:#ffffff;fill-opacity:1;fill-rule:nonzero;stroke:none"
       d="m 388.60356,535.39103 c -0.19775,6.42088 -4.17,11.21825 -9.56787,12.90763 l -0.0927,0.0366 c -0.0781,0.0195 -0.15388,0.0415 -0.15875,0.0294 l -0.0684,0.0439 -0.0487,0 c -0.30275,0.0904 -0.61038,0.17087 -0.94238,0.24412 -0.36137,0.0561 -0.72762,0.0978 -1.08162,0.13188 -0.92038,0.11962 -1.88225,0.18312 -2.8515,0.18312 -1.32188,0 -2.66025,-0.11475 -3.9365,-0.33937 -0.24813,-0.0415 -0.502,-0.0976 -0.75838,-0.15388 -0.10012,-0.0244 -0.22462,-0.0415 -0.375,-0.0731 -0.11575,-0.0366 -0.2265,-0.0611 -0.32325,-0.0904 -5.8765,-1.604 -10.14646,-6.7065 -10.14158,-13.56687 l 0,-18.483 2.86621,0 0,-0.008 5.05125,0 0,18.12012 c 0.0195,6.03275 3.83062,9.76813 9.17875,9.78513 5.2695,-0.0146 9.0195,-3.73538 9.05375,-9.74613 -1.00838,-0.34562 -2.05088,-0.7485 -3.169,-1.28562 -9.8315,-4.71038 -13.44575,-2.06788 -13.44575,-2.06788 0,0 4.747,-9.04387 14.86912,-4.80562 0.60788,0.25487 1.1865,0.48687 1.748,0.71137 l 0,-10.71137 4.21388,0 0,12.23975 c 6.228,1.9995 8.46187,1.2525 9.6045,-0.76663 0.94725,3.71588 -2.30963,8.48288 -9.624,7.66513 z m 10.3345,-29.605 -47.87602,0 c -1.45606,0 -2.63673,1.17913 -2.63673,2.63663 l 0,47.87896 c 0,1.45508 1.18067,2.63671 2.63673,2.63671 l 47.87602,0 c 1.455,0 2.63663,-1.18163 2.63663,-2.63671 l 0,-47.87896 c 0,-1.4575 -1.18163,-2.63663 -2.63663,-2.63663" />
  </g>
</svg>
