<?xml version="1.0" encoding="UTF-8" standalone="no"?>
<!-- Created with Inkscape (http://www.inkscape.org/) -->

<svg
   xmlns:dc="http://purl.org/dc/elements/1.1/"
   xmlns:cc="http://creativecommons.org/ns#"
   xmlns:rdf="http://www.w3.org/1999/02/22-rdf-syntax-ns#"
   xmlns:svg="http://www.w3.org/2000/svg"
   xmlns="http://www.w3.org/2000/svg"
   xmlns:sodipodi="http://sodipodi.sourceforge.net/DTD/sodipodi-0.dtd"
   xmlns:inkscape="http://www.inkscape.org/namespaces/inkscape"
   width="82.064606"
   height="32.166443"
   id="svg3187"
   version="1.1"
   inkscape:version="0.48.5 r10040"
   sodipodi:docname="FWO_logo_only_white.svg">
  <defs
     id="defs3189" />
  <sodipodi:namedview
     id="base"
     pagecolor="#ffffff"
     bordercolor="#666666"
     borderopacity="1.0"
     inkscape:pageopacity="0.0"
     inkscape:pageshadow="2"
     inkscape:zoom="0.35"
     inkscape:cx="90.319274"
     inkscape:cy="-283.90534"
     inkscape:document-units="px"
     inkscape:current-layer="layer1"
     showgrid="false"
     fit-margin-top="0"
     fit-margin-left="0"
     fit-margin-right="0"
     fit-margin-bottom="0"
     inkscape:window-width="1874"
     inkscape:window-height="1060"
     inkscape:window-x="-2"
     inkscape:window-y="-3"
     inkscape:window-maximized="1" />
  <metadata
     id="metadata3192">
    <rdf:RDF>
      <cc:Work
         rdf:about="">
        <dc:format>image/svg+xml</dc:format>
        <dc:type
           rdf:resource="http://purl.org/dc/dcmitype/StillImage" />
        <dc:title></dc:title>
      </cc:Work>
    </rdf:RDF>
  </metadata>
  <g
     inkscape:label="Layer 1"
     inkscape:groupmode="layer"
     id="layer1"
     transform="translate(-284.68073,-216.2904)">
    <g
       id="layer2"
       transform="translate(-816.25385,145.51872)">
      <g
         transform="translate(1083.93,53.7443)"
         id="content"
         style="fill:none">
        <path
           d="m 0,0 4.78307,0 0,10.8468 -4.78307,0 z"
           transform="matrix(1.24999,0,0,-1.24999,20.0427,49.0847)"
           id="shape0"
           style="fill:#ffffff;stroke:#ffffff;stroke-width:0;stroke-linecap:butt;stroke-linejoin:miter;stroke-miterlimit:10.43299961"
           inkscape:connector-curvature="0" />
        <path
           d="M 0,3.73582 0.0570645,3.53039 C 0.493342,1.95541 1.64924,0.636079 3.1492,0.00152172 L 3.1543,0 c 0.70029,1.33531 2.30342,1.53846 3.33972,1.53846 0.56379,0 0.97846,-0.07609 0.97846,-0.07609 l 0,4.0668 c 0,0 -0.63988,0.11413 -1.61911,0.11413 C 4.24567,5.6433 1.74283,5.34124 0,3.73582 z"
           transform="matrix(1.24999,0,0,-1.24999,22.5227,24.1367)"
           id="shape1"
           style="fill:#ffffff;stroke:#ffffff;stroke-width:0;stroke-linecap:butt;stroke-linejoin:miter;stroke-miterlimit:10.43299961"
           inkscape:connector-curvature="0" />
        <path
           d="M 9.58684,3.97696 9.51608,3.9692 9.44456,3.96228 9.37303,3.95642 9.30075,3.95147 9.22847,3.94759 9.15543,3.94478 9.08239,3.9431 9.00934,3.94249 l 0,-3e-4 c -2.79844,0 -5.06809,2.26866 -5.06809,5.06771 0,0.17043 0.00533,0.33858 0.01827,0.50445 l -3.9443028,0 L 0,9.0099 C 0,4.03342 4.03332,0 9.00934,0 9.43086,0 9.84933,0.0341778 10.2579,0.0924293 9.32738,1.82609 9.5039,3.4824 9.58684,3.97696 z"
           transform="matrix(1.24999,0,0,-1.24999,76.4927,48.9517)"
           id="shape2"
           style="fill:#ffffff;stroke:#ffffff;stroke-width:0;stroke-linecap:butt;stroke-linejoin:miter;stroke-miterlimit:10.43299961"
           inkscape:connector-curvature="0" />
        <path
           d="M 8.92032,4.6869 9.16912,4.68081 9.41488,4.66255 9.6576,4.63364 9.89574,4.59255 10.1309,4.54081 10.3614,4.47842 10.5874,4.40614 10.8088,4.32245 11.0249,4.22962 11.2356,4.12767 11.4411,4.01582 11.6404,3.89484 11.8337,3.76474 12.0208,3.62702 12.2004,3.48017 12.3739,3.32572 12.5397,3.16366 12.698,2.99474 12.8486,2.81823 12.9917,2.6341 13.1256,2.44464 13.2511,2.24834 13.3675,2.04595 13.4756,1.83748 13.5737,1.62444 13.662,1.40531 13.7396,1.18238 13.8081,0.954118 13.8652,0.721295 13.9116,0.484668 13.9473,0.244236 13.9717,0 17.9213,0 C 17.722,4.79798 13.7678,8.62815 8.92032,8.62815 4.37418,8.62815 0.615536,5.25983 0,0.884119 l 4.01734,0 C 4.57886,3.07007 6.55861,4.6869 8.92032,4.6869 z"
           transform="matrix(1.24999,0,0,-1.24999,76.5827,37.2127)"
           id="shape3"
           style="fill:#ffffff;stroke:#ffffff;stroke-width:0;stroke-linecap:butt;stroke-linejoin:miter;stroke-miterlimit:10.43299961"
           inkscape:connector-curvature="0" />
        <path
           d="M 0.411941,3.99122 0.37542,3.97867 0.339659,3.96642 0.302377,3.95447 0.265856,3.94275 0.229334,3.93134 0.192052,3.92016 0.15477,3.9092 0.117488,3.89855 0.0786842,3.72789 C 0.0391195,3.48388 0.014772,3.25981 0.00411991,3.04966 -0.0118581,2.63659 0.0132502,2.0632 0.176074,1.42484 c 0,-3e-4 0,-3e-4 0,-3e-4 C 0.179879,1.41114 0.183683,1.39775 0.186726,1.38467 0.306181,0.939487 0.479657,0.508536 0.705633,0.104322 L 0.709437,0.0980749 0.76498,0 c 3.86593,0.893151 6.77241,4.27091 6.95578,8.36464 l 0,0.02663 -3.94506,0 C 3.62353,6.34928 2.2692,4.64419 0.411941,3.99122 z"
           transform="matrix(1.24999,0,0,-1.24999,89.3427,48.6527)"
           id="shape4"
           style="fill:#ffffff;stroke:#ffffff;stroke-width:0;stroke-linecap:butt;stroke-linejoin:miter;stroke-miterlimit:10.43299961"
           inkscape:connector-curvature="0" />
        <path
           d="m 7.50436,1.38553 0.13772,0.12326 -1.85498,6.50078 -3.93973,0 L 0,1.46618 0.136194,1.34672 C 0.989879,0.601079 2.03074,0.137716 3.14844,0.0076086 L 3.21311,0 3.3242,0.374343 C 3.60572,1.32466 3.78223,2.30921 3.78223,2.30921 l 0.07,0 c 0,0 0.17196,-0.97999 0.45424,-1.92878 L 4.41907,0.00532602 4.48299,0.0129346 C 5.6083,0.151411 6.65296,0.626188 7.50436,1.38553 z"
           transform="matrix(1.24999,0,0,-1.24999,49.0527,36.8327)"
           id="shape5"
           style="fill:#ffffff;stroke:#ffffff;stroke-width:0;stroke-linecap:butt;stroke-linejoin:miter;stroke-miterlimit:10.43299961"
           inkscape:connector-curvature="0" />
        <path
           d="M 5.65775,7.80871 5.60145,7.81631 5.13352,6.15673 C 4.85124,5.20687 4.71048,4.25694 4.71048,4.25694 l -0.06923,0 c 0,0 -0.10652,0.94993 -0.35228,1.89979 L 3.82484,7.9061 3.77234,7.90001 C 2.35258,7.72882 1.06825,7.0305 0.155976,5.93379 L 0,5.74685 1.82606,0 6.89263,0 8.66543,6.0025 8.51402,6.16357 C 7.16121,7.59673 5.67221,7.80718 5.65775,7.80871 z"
           transform="matrix(1.24999,0,0,-1.24999,40.8427,49.1157)"
           id="shape6"
           style="fill:#ffffff;stroke:#ffffff;stroke-width:0;stroke-linecap:butt;stroke-linejoin:miter;stroke-miterlimit:10.43299961"
           inkscape:connector-curvature="0" />
        <path
           d="M 7.59871,2.04732 5.59384,9.51364 C 5.24233,10.8847 4.53853,11.3427 3.06094,11.3427 l -3.06094,0 0,-3.79969 0.493037,0 c 0.527273,0 0.808793,-0.10499 0.984553,-0.63227 L 3.6993,0 c 1.01347,1.12972 2.38682,1.85254 3.89941,2.04732 z"
           transform="matrix(1.24999,0,0,-1.24999,35.8827,40.8657)"
           id="shape7"
           style="fill:#ffffff;stroke:#ffffff;stroke-width:0;stroke-linecap:butt;stroke-linejoin:miter;stroke-miterlimit:10.43299961"
           inkscape:connector-curvature="0" />
        <path
           d="M 0,6.28661 0,0 l 2.39367,0 3.0655,9.64618 -4.581138,0 z"
           transform="matrix(1.24999,0,0,-1.24999,61.5527,49.1157)"
           id="shape8"
           style="fill:#ffffff;stroke:#ffffff;stroke-width:0;stroke-linecap:butt;stroke-linejoin:miter;stroke-miterlimit:10.43299961"
           inkscape:connector-curvature="0" />
        <path
           d="m 7.15414,6.31133 -4.78094,0 -2.3732,0 0,-3.80506 2.3732,0 0,-2.50627 4.7836,0 z"
           transform="matrix(1.24999,0,0,-1.24999,17.0827,34.5757)"
           id="shape9"
           style="fill:#ffffff;stroke:#ffffff;stroke-width:0;stroke-linecap:butt;stroke-linejoin:miter;stroke-miterlimit:10.43299961"
           inkscape:connector-curvature="0" />
        <path
           d="m 4.78178,0 0,0.00989118 -4.78178,0 L 0,0 8.36946e-4,0 z"
           transform="matrix(1.24999,0,0,-1.24999,20.0427,26.6867)"
           id="shape10"
           style="fill:#ffffff;stroke:#ffffff;stroke-width:0;stroke-linecap:butt;stroke-linejoin:miter;stroke-miterlimit:10.43299961"
           inkscape:connector-curvature="0" />
        <path
           d="M 1.37404,4.35516 1.22704,4.16038 1.08651,3.95647 0.952901,3.74343 0.826522,3.51974 0.707676,3.28615 0.596819,3.04268 0.494179,2.78931 0.446092,2.65844 0.400136,2.52453 0.356463,2.38834 0.315148,2.2491 0.27604,2.10758 0.239367,1.96302 0.205128,1.81541 0.173324,1.66552 0.144031,1.51183 0.117249,1.35585 0.0930532,1.19683 0.0715208,1.03477 0.0527276,0.870424 0.0365213,0.702274 0.0232062,0.53108 0.0126303,0.357604 0.0048695,0.180324 0,0 4.79136,0 c 0.01431,0.197824 0.04193,0.381191 0.08058,0.552384 l -0.04162,0.0175 C 3.19538,1.26151 1.91942,2.66529 1.37404,4.35516 z"
           transform="matrix(1.24999,0,0,-1.24999,20.0527,25.7227)"
           id="shape11"
           style="fill:#ffffff;stroke:#ffffff;stroke-width:0;stroke-linecap:butt;stroke-linejoin:miter;stroke-miterlimit:10.43299961"
           inkscape:connector-curvature="0" />
        <path
           d="M 4.5119,6.15673 3.23518,10.5273 C 2.30997,9.74662 1.19683,9.25282 0,9.0938 L 2.71779,0 l 1.88389,0 0,5.84675 C 4.57277,5.94871 4.54309,6.05241 4.5119,6.15673 z"
           transform="matrix(1.24999,0,0,-1.24999,54.8427,49.1157)"
           id="shape12"
           style="fill:#ffffff;stroke:#ffffff;stroke-width:0;stroke-linecap:butt;stroke-linejoin:miter;stroke-miterlimit:10.43299961"
           inkscape:connector-curvature="0" />
        <path
           d="m 0,0 3.34626,0 0,3.8043 -3.34626,0 z"
           transform="matrix(1.24999,0,0,-1.24999,26.9727,31.4417)"
           id="shape13"
           style="fill:#ffffff;stroke:#ffffff;stroke-width:0;stroke-linecap:butt;stroke-linejoin:miter;stroke-miterlimit:10.43299961"
           inkscape:connector-curvature="0" />
        <path
           d="M 1.48596,5.70645 0,0 4.62375,0 5.60221,3.10355 c 0.21152,0.52727 0.45728,0.63227 0.98532,0.63227 l 0.49227,0 0,3.79974 -3.06094,0 c -1.47759,0 -2.18138,-0.45804 -2.5329,-1.82911 z"
           transform="matrix(1.24999,0,0,-1.24999,62.8927,36.1067)"
           id="shape14"
           style="fill:#ffffff;stroke:#ffffff;stroke-width:0;stroke-linecap:butt;stroke-linejoin:miter;stroke-miterlimit:10.43299961"
           inkscape:connector-curvature="0" />
        <path
           d="M 0,1.71034 0.0311953,1.70501 0.0692383,1.69816 0.113368,1.68903 0.163585,1.67838 0.219128,1.66621 0.280757,1.65099 0.346952,1.63425 0.419234,1.61447 0.49532,1.59164 0.576732,1.56653 0.662709,1.53838 0.752491,1.50719 0.846837,1.47219 0.944227,1.43414 1.04618,1.39306 1.15042,1.34817 1.25846,1.29871 1.36955,1.24545 1.48292,1.18839 1.59933,1.12676 1.71726,1.06132 1.83748,0.990564 1.95998,0.915238 2.08323,0.835348 2.20878,0.750056 2.33432,0.659666 2.46214,0.563949 2.58997,0.462755 2.71779,0.355854 2.84714,0.243247 2.97572,0.124629 3.10431,0 3.75332,2.24218 C 2.56714,2.39283 1.45857,2.87369 0.531841,3.63836 z"
           transform="matrix(1.24999,0,0,-1.24999,48.1027,40.5597)"
           id="shape15"
           style="fill:#ffffff;stroke:#ffffff;stroke-width:0;stroke-linecap:butt;stroke-linejoin:miter;stroke-miterlimit:10.43299961"
           inkscape:connector-curvature="0" />
        <path
           d="m 0,0 0.00182606,0 0,0.00989118 -0.00182606,0 z"
           transform="matrix(1.24999,0,0,-1.24999,26.0227,26.6867)"
           id="shape16"
           style="fill:#ffffff;stroke:#ffffff;stroke-width:0;stroke-linecap:butt;stroke-linejoin:miter;stroke-miterlimit:10.43299961"
           inkscape:connector-curvature="0" />
      </g>
    </g>
  </g>
</svg>
