<?xml version="1.0" encoding="UTF-8" standalone="no"?>
<!-- Created with Inkscape (http://www.inkscape.org/) -->

<svg
   xmlns:dc="http://purl.org/dc/elements/1.1/"
   xmlns:cc="http://creativecommons.org/ns#"
   xmlns:rdf="http://www.w3.org/1999/02/22-rdf-syntax-ns#"
   xmlns:svg="http://www.w3.org/2000/svg"
   xmlns="http://www.w3.org/2000/svg"
   xmlns:sodipodi="http://sodipodi.sourceforge.net/DTD/sodipodi-0.dtd"
   xmlns:inkscape="http://www.inkscape.org/namespaces/inkscape"
   width="91.1408"
   height="41.697731"
   id="svg3099"
   version="1.1"
   inkscape:version="0.48.5 r10040"
   sodipodi:docname="EMAT_UA_Logo_White.svg">
  <defs
     id="defs3101" />
  <sodipodi:namedview
     id="base"
     pagecolor="#ffffff"
     bordercolor="#666666"
     borderopacity="1.0"
     inkscape:pageopacity="0.0"
     inkscape:pageshadow="2"
     inkscape:zoom="0.35"
     inkscape:cx="77.71326"
     inkscape:cy="-14.865421"
     inkscape:document-units="px"
     inkscape:current-layer="layer1"
     showgrid="false"
     fit-margin-top="0"
     fit-margin-left="0"
     fit-margin-right="0"
     fit-margin-bottom="0"
     inkscape:window-width="1874"
     inkscape:window-height="1060"
     inkscape:window-x="-2"
     inkscape:window-y="-3"
     inkscape:window-maximized="1" />
  <metadata
     id="metadata3104">
    <rdf:RDF>
      <cc:Work
         rdf:about="">
        <dc:format>image/svg+xml</dc:format>
        <dc:type
           rdf:resource="http://purl.org/dc/dcmitype/StillImage" />
        <dc:title></dc:title>
      </cc:Work>
    </rdf:RDF>
  </metadata>
  <g
     inkscape:label="Layer 1"
     inkscape:groupmode="layer"
     id="layer1"
     transform="translate(-297.28674,-474.37046)">
    <path
       d="m 378.32664,497.73063 c -0.154,5.00036 -3.2477,8.73631 -7.451,10.05191 l -0.072,0.0285 c -0.061,0.0152 -0.1202,0.0323 -0.124,0.0229 l -0.053,0.0342 -0.037,0 c -0.2358,0.0704 -0.4753,0.13308 -0.734,0.19012 -0.2813,0.0437 -0.5669,0.076 -0.8434,0.10269 -0.7163,0.0932 -1.4646,0.14262 -2.2206,0.14262 -1.0289,0 -2.0709,-0.0894 -3.0651,-0.2643 -0.1933,-0.0323 -0.391,-0.076 -0.591,-0.11982 -0.078,-0.019 -0.1749,-0.0323 -0.2913,-0.0569 -0.091,-0.0285 -0.1767,-0.0476 -0.2525,-0.0704 -4.5756,-1.24912 -7.9012,-5.22269 -7.8974,-10.56521 l 0,-14.39286 2.2317,0 0,-0.006 3.9344,0 0,14.11026 c 0.015,4.69801 2.9823,7.60684 7.1476,7.62017 4.1041,-0.0114 7.0244,-2.90892 7.0514,-7.58979 -0.7857,-0.268 -1.5975,-0.58173 -2.4679,-1.0004 -7.6562,-3.6686 -10.4716,-1.61036 -10.4716,-1.61036 0,0 3.6964,-7.04292 11.5801,-3.74277 0.4734,0.19887 0.924,0.37944 1.3609,0.55437 l 0,-8.34148 3.2819,0 0,9.5317 c 4.8497,1.55712 6.5893,0.97529 7.4795,-0.59701 0.7373,2.89374 -1.799,6.60527 -7.4946,5.96834 z m 8.048,-23.05442 -37.2842,0 c -1.1339,0 -2.0534,0.91825 -2.0534,2.05328 l 0,37.28536 c 0,1.13315 0.9195,2.05334 2.0534,2.05334 l 37.2842,0 c 1.1327,0 2.0529,-0.92019 2.0529,-2.05334 l 0,-37.28536 c 0,-1.13503 -0.9202,-2.05328 -2.0529,-2.05328"
       id="path3596"
       style="fill:#ffffff;fill-opacity:1;fill-rule:nonzero;stroke:none"
       inkscape:connector-curvature="0" />
    <path
       d="m 309.67874,498.56078 2.6279,-4.66306 -1.0321,4.69158 -1.5958,-0.0285"
       id="path3710"
       style="fill:#ffffff;fill-opacity:1;fill-rule:nonzero;stroke:none"
       inkscape:connector-curvature="0" />
    <path
       d="m 322.39124,496.63249 3.4268,-3.86406 -0.7594,3.7968 -2.6674,0.0673"
       id="path3712"
       style="fill:#ffffff;fill-opacity:1;fill-rule:nonzero;stroke:none"
       inkscape:connector-curvature="0" />
    <path
       d="m 336.37024,491.63905 -2.8616,0 -4.9259,8.94618 -3.0663,-0.0293 c 0,0 -0.03,-0.66165 -1.0225,-1.06095 l 0.156,-0.80795 -3.9911,0 -1.6648,1.8689 -4.5165,-0.0684 3.5237,-6.65821 -5.3246,6.68752 -7.8556,0 -6.1521,-10.94174 7.9138,0.0685 1.0711,1.79103 -5.4223,0 1.324,2.33625 4.76,0.0585 0.7985,1.37274 -0.2338,0.49626 -4.1858,0.0684 1.4602,2.75483 1.1973,0.0392 4.8574,-8.95602 2.8327,0 -1.4993,6.89203 5.4513,-6.92172 3.3683,0.0684 -5.5586,10.51312 8.9174,-10.55187 2.6278,-0.0297 -1.9274,10.67852 4.6238,-8.68258 -2.7937,-0.0685 0.9928,-1.73243 8.0502,0 -0.9244,1.86891 z m -13.3752,13.0243 c -1.4111,0 -2.5507,-1.13882 -2.5507,-2.54008 0,-1.41149 1.1396,-2.54077 2.5507,-2.54077 1.4016,0 2.5408,1.12928 2.5408,2.54077 0,1.40126 -1.1392,2.54008 -2.5408,2.54008 z m -10.62,3.84547 c -0.662,0.12626 -5.5877,1.73319 -8.4791,-1.66467 -2.1998,-3.56298 -0.4674,-7.74837 -0.4674,-7.74837 l 0.497,0.82703 c 0.097,0.93431 -1.1974,4.32226 1.5282,6.82429 3.0275,2.06329 4.8965,1.1579 7.6217,0.82713 2.5313,-0.42861 7.4572,-3.7968 7.4572,-3.7968 l 0.3014,0.39921 c 0,0 -4.0009,3.36828 -8.459,4.33218 z m 5.3924,-25.19266 c 3.7579,-1.95671 6.2205,-2.19024 7.1547,-2.19024 4.128,0.16549 4.5265,1.129 5.4516,1.89821 2.2001,2.65719 1.0708,6.22016 1.0708,6.22016 l -0.8369,-0.0389 c 0,0 1.7324,-8.75101 -8.4788,-6.95054 -6.7266,1.52859 -13.0445,8.51758 -13.0445,8.51758 l -0.7688,0.0297 c 0,0 3.6995,-4.22462 9.4519,-7.48603 z m 18.836,-8.9457 -37.2435,0 c -1.1385,0 -2.0732,0.92438 -2.0732,2.0632 l 0,37.25418 c 0,1.13884 0.9347,2.07312 2.0732,2.07312 l 37.2435,0 c 1.1392,0 2.0738,-0.93428 2.0738,-2.07312 l 0,-37.25418 c 0,-1.13882 -0.9346,-2.0632 -2.0738,-2.0632"
       id="path3714"
       style="fill:#ffffff;fill-opacity:1;fill-rule:nonzero;stroke:none"
       inkscape:connector-curvature="0" />
  </g>
</svg>
