<?xml version="1.0" encoding="UTF-8" standalone="no"?>
<!-- Created with Inkscape (http://www.inkscape.org/) -->

<svg
   xmlns:dc="http://purl.org/dc/elements/1.1/"
   xmlns:cc="http://creativecommons.org/ns#"
   xmlns:rdf="http://www.w3.org/1999/02/22-rdf-syntax-ns#"
   xmlns:svg="http://www.w3.org/2000/svg"
   xmlns="http://www.w3.org/2000/svg"
   xmlns:sodipodi="http://sodipodi.sourceforge.net/DTD/sodipodi-0.dtd"
   xmlns:inkscape="http://www.inkscape.org/namespaces/inkscape"
   id="svg2"
   version="1.1"
   inkscape:version="0.48.5 r10040"
   width="491.6375"
   height="72.037496"
   xml:space="preserve"
   sodipodi:docname="TextLogoFWO.pdf"><metadata
     id="metadata8"><rdf:RDF><cc:Work
         rdf:about=""><dc:format>image/svg+xml</dc:format><dc:type
           rdf:resource="http://purl.org/dc/dcmitype/StillImage" /><dc:title></dc:title></cc:Work></rdf:RDF></metadata><defs
     id="defs6" /><sodipodi:namedview
     pagecolor="#ffffff"
     bordercolor="#666666"
     borderopacity="1"
     objecttolerance="10"
     gridtolerance="10"
     guidetolerance="10"
     inkscape:pageopacity="0"
     inkscape:pageshadow="2"
     inkscape:window-width="640"
     inkscape:window-height="480"
     id="namedview4"
     showgrid="false"
     inkscape:zoom="0.68749839"
     inkscape:cx="245.81876"
     inkscape:cy="36.018749"
     inkscape:window-x="0"
     inkscape:window-y="0"
     inkscape:window-maximized="0"
     inkscape:current-layer="g10" /><g
     id="g10"
     inkscape:groupmode="layer"
     inkscape:label="TextLogoFWO"
     transform="matrix(1.25,0,0,-1.25,0,72.037496)"><g
       id="g12"><path
         d="m 156.855,38.61 -0.902,0 0,1.54 5.617,0 c 0.668,0 0.946,-0.29 0.946,-0.942 l 0,-1.5 -1.637,0 0,0.598 c 0,0.195 -0.109,0.304 -0.305,0.304 l -1.902,0 0,-2.789 3.148,0 0,-1.539 -3.148,0 0,-3.98 -1.817,0 0,8.308"
         style="fill:#ffffff;fill-opacity:1;fill-rule:nonzero;stroke:none"
         id="path14" /><path
         d="m 167.035,31.634 c 1.153,0 2.11,0.887 2.11,2.207 0,1.301 -0.957,2.203 -2.11,2.203 -1.137,0 -2.094,-0.902 -2.094,-2.203 0,-1.32 0.957,-2.207 2.094,-2.207 z m 0,5.91 c 2.164,0 3.883,-1.543 3.883,-3.703 0,-2.18 -1.719,-3.703 -3.883,-3.703 -2.152,0 -3.871,1.523 -3.871,3.703 0,2.16 1.719,3.703 3.871,3.703"
         style="fill:#ffffff;fill-opacity:1;fill-rule:nonzero;stroke:none"
         id="path16" /><path
         d="m 172.512,35.571 c 0,0.211 -0.114,0.309 -0.309,0.309 l -0.555,0 0,1.496 1.625,0 c 0.625,0 0.93,-0.293 0.93,-0.789 l 0,-0.211 c 0,-0.152 -0.027,-0.305 -0.027,-0.305 l 0.027,0 c 0.305,0.598 1.067,1.473 2.496,1.473 1.567,0 2.469,-0.82 2.469,-2.691 l 0,-2.762 c 0,-0.195 0.109,-0.305 0.305,-0.305 l 0.554,0 0,-1.484 -1.675,0 c -0.668,0 -0.946,0.277 -0.946,0.945 l 0,3.242 c 0,0.864 -0.222,1.446 -1.109,1.446 -0.942,0 -1.652,-0.598 -1.902,-1.446 -0.094,-0.289 -0.137,-0.609 -0.137,-0.941 l 0,-3.246 -1.746,0 0,5.269"
         style="fill:#ffffff;fill-opacity:1;fill-rule:nonzero;stroke:none"
         id="path18" /><path
         d="m 186.031,33.853 c 0,1.097 -0.57,2.179 -1.75,2.179 -0.969,0 -1.773,-0.793 -1.773,-2.191 0,-1.348 0.707,-2.223 1.746,-2.223 0.918,0 1.777,0.668 1.777,2.235 z m -2.093,3.691 c 1.539,0 2.039,-0.863 2.039,-0.863 l 0.027,0 c 0,0 -0.016,0.183 -0.016,0.418 l 0,1.25 c 0,0.207 -0.109,0.304 -0.304,0.304 l -0.555,0 0,1.497 1.68,0 c 0.648,0 0.941,-0.29 0.941,-0.942 l 0,-7.117 c 0,-0.195 0.109,-0.305 0.305,-0.305 l 0.543,0 0,-1.484 -1.625,0 c -0.637,0 -0.871,0.305 -0.871,0.723 l 0,0.261 -0.032,0 c 0,0 -0.582,-1.148 -2.203,-1.148 -1.914,0 -3.148,1.512 -3.148,3.703 0,2.246 1.343,3.703 3.219,3.703"
         style="fill:#ffffff;fill-opacity:1;fill-rule:nonzero;stroke:none"
         id="path20" /><path
         d="m 190.078,32.548 c 0,0 0.902,-1.039 2.106,-1.039 0.543,0 0.957,0.223 0.957,0.695 0,0.996 -3.731,0.985 -3.731,3.274 0,1.414 1.278,2.066 2.746,2.066 0.957,0 2.485,-0.32 2.485,-1.473 l 0,-0.734 -1.555,0 0,0.348 c 0,0.332 -0.5,0.5 -0.887,0.5 -0.625,0 -1.054,-0.223 -1.054,-0.641 0,-1.109 3.757,-0.887 3.757,-3.246 0,-1.328 -1.175,-2.16 -2.718,-2.16 -1.942,0 -2.938,1.262 -2.938,1.262 l 0.832,1.148"
         style="fill:#ffffff;fill-opacity:1;fill-rule:nonzero;stroke:none"
         id="path22" /><path
         d="m 199.672,38.306 c -0.055,0.234 -0.207,0.304 -0.445,0.304 l -0.262,0 0,1.54 1.18,0 c 0.691,0 1.066,-0.165 1.218,-0.805 l 1.348,-5.867 c 0.125,-0.555 0.164,-1.039 0.164,-1.039 l 0.027,0 c 0,0 0.059,0.472 0.207,1.039 l 1.789,6.644 1.54,0 1.695,-6.644 c 0.152,-0.567 0.191,-1.039 0.191,-1.039 l 0.031,0 c 0,0 0.04,0.484 0.165,1.039 l 1.359,5.867 c 0.141,0.64 0.516,0.805 1.207,0.805 l 1.191,0 0,-1.54 -0.261,0 c -0.25,0 -0.387,-0.07 -0.446,-0.304 l -2.05,-8.004 -2.094,0 -1.5,5.578 c -0.164,0.621 -0.25,1.219 -0.25,1.219 l -0.028,0 c 0,0 -0.082,-0.582 -0.261,-1.219 l -1.567,-5.578 -2.109,0 -2.039,8.004"
         style="fill:#ffffff;fill-opacity:1;fill-rule:nonzero;stroke:none"
         id="path24" /><path
         d="m 217.145,34.755 c -0.032,0.848 -0.614,1.43 -1.333,1.43 -0.902,0 -1.542,-0.543 -1.734,-1.43 l 3.067,0 z m -1.333,2.789 c 2.024,0 3.133,-1.484 3.133,-3.359 0,-0.207 -0.043,-0.653 -0.043,-0.653 l -4.879,0 c 0.137,-1.246 1.051,-1.898 2.122,-1.898 1.136,0 1.984,0.789 1.984,0.789 l 0.734,-1.219 c 0,0 -1.082,-1.066 -2.843,-1.066 -2.344,0 -3.801,1.691 -3.801,3.703 0,2.176 1.469,3.703 3.593,3.703"
         style="fill:#ffffff;fill-opacity:1;fill-rule:nonzero;stroke:none"
         id="path26" /><path
         d="m 220.68,35.974 -0.918,0 0,1.402 0.957,0 0,1.93 1.719,0 0,-1.93 1.609,0 0,-1.402 -1.609,0 0,-2.856 c 0,-1.164 0.917,-1.332 1.402,-1.332 0.195,0 0.32,0.028 0.32,0.028 l 0,-1.539 c 0,0 -0.222,-0.043 -0.543,-0.043 -0.984,0 -2.937,0.293 -2.937,2.664 l 0,3.078"
         style="fill:#ffffff;fill-opacity:1;fill-rule:nonzero;stroke:none"
         id="path28" /><path
         d="m 229.898,34.755 c -0.027,0.848 -0.609,1.43 -1.332,1.43 -0.902,0 -1.539,-0.543 -1.73,-1.43 l 3.062,0 z m -1.332,2.789 c 2.028,0 3.137,-1.484 3.137,-3.359 0,-0.207 -0.043,-0.653 -0.043,-0.653 l -4.883,0 c 0.141,-1.246 1.055,-1.898 2.121,-1.898 1.137,0 1.985,0.789 1.985,0.789 l 0.734,-1.219 c 0,0 -1.082,-1.066 -2.844,-1.066 -2.339,0 -3.796,1.691 -3.796,3.703 0,2.176 1.468,3.703 3.589,3.703"
         style="fill:#ffffff;fill-opacity:1;fill-rule:nonzero;stroke:none"
         id="path30" /><path
         d="m 233.406,35.571 c 0,0.211 -0.109,0.309 -0.304,0.309 l -0.555,0 0,1.496 1.621,0 c 0.625,0 0.93,-0.293 0.93,-0.789 l 0,-0.211 c 0,-0.152 -0.028,-0.305 -0.028,-0.305 l 0.028,0 c 0.304,0.598 1.066,1.473 2.496,1.473 1.566,0 2.468,-0.82 2.468,-2.691 l 0,-2.762 c 0,-0.195 0.114,-0.305 0.305,-0.305 l 0.559,0 0,-1.484 -1.68,0 c -0.668,0 -0.945,0.277 -0.945,0.945 l 0,3.242 c 0,0.864 -0.223,1.446 -1.11,1.446 -0.941,0 -1.652,-0.598 -1.898,-1.446 -0.098,-0.289 -0.141,-0.609 -0.141,-0.941 l 0,-3.246 -1.746,0 0,5.269"
         style="fill:#ffffff;fill-opacity:1;fill-rule:nonzero;stroke:none"
         id="path32" /><path
         d="m 242.348,32.548 c 0,0 0.902,-1.039 2.109,-1.039 0.539,0 0.957,0.223 0.957,0.695 0,0.996 -3.73,0.985 -3.73,3.274 0,1.414 1.277,2.066 2.746,2.066 0.957,0 2.48,-0.32 2.48,-1.473 l 0,-0.734 -1.551,0 0,0.348 c 0,0.332 -0.5,0.5 -0.886,0.5 -0.625,0 -1.059,-0.223 -1.059,-0.641 0,-1.109 3.762,-0.887 3.762,-3.246 0,-1.328 -1.18,-2.16 -2.719,-2.16 -1.941,0 -2.941,1.262 -2.941,1.262 l 0.832,1.148"
         style="fill:#ffffff;fill-opacity:1;fill-rule:nonzero;stroke:none"
         id="path34" /><path
         d="m 251.973,37.544 c 0.914,0 2.566,-0.375 2.566,-1.598 l 0,-0.832 -1.555,0 0,0.391 c 0,0.387 -0.582,0.555 -1.011,0.555 -1.219,0 -2.094,-0.93 -2.094,-2.207 0,-1.442 1.066,-2.176 2.203,-2.176 1.207,0 2.098,0.957 2.098,0.957 l 0.73,-1.223 c 0,0 -1.051,-1.273 -2.98,-1.273 -2.328,0 -3.828,1.648 -3.828,3.703 0,1.996 1.445,3.703 3.871,3.703"
         style="fill:#ffffff;fill-opacity:1;fill-rule:nonzero;stroke:none"
         id="path36" /><path
         d="m 256.188,38.349 c 0,0.207 -0.114,0.304 -0.305,0.304 l -0.559,0 0,1.497 1.68,0 c 0.652,0 0.941,-0.29 0.941,-0.93 l 0,-2.481 c 0,-0.347 -0.023,-0.597 -0.023,-0.597 l 0.023,0 c 0.332,0.679 1.207,1.402 2.43,1.402 1.578,0 2.469,-0.82 2.469,-2.691 l 0,-2.762 c 0,-0.195 0.109,-0.305 0.304,-0.305 l 0.555,0 0,-1.484 -1.68,0 c -0.652,0 -0.925,0.277 -0.925,0.945 l 0,3.242 c 0,0.864 -0.239,1.446 -1.125,1.446 -0.93,0 -1.653,-0.61 -1.914,-1.473 -0.082,-0.277 -0.114,-0.582 -0.114,-0.914 l 0,-3.246 -1.757,0 0,8.047"
         style="fill:#ffffff;fill-opacity:1;fill-rule:nonzero;stroke:none"
         id="path38" /><path
         d="m 267.266,31.509 c 0.941,0 1.609,1 1.609,1.859 l 0,0.164 -0.309,0 c -0.914,0 -2.371,-0.125 -2.371,-1.109 0,-0.469 0.348,-0.914 1.071,-0.914 z m 1.359,3.23 0.223,0 0,0.059 c 0,1.012 -0.407,1.387 -1.305,1.387 -0.32,0 -0.941,-0.086 -0.941,-0.473 l 0,-0.375 -1.637,0 0,0.75 c 0,1.316 1.855,1.457 2.594,1.457 2.355,0 3.046,-1.234 3.046,-2.816 l 0,-2.637 c 0,-0.195 0.114,-0.305 0.309,-0.305 l 0.555,0 0,-1.484 -1.582,0 c -0.653,0 -0.903,0.359 -0.903,0.777 0,0.18 0.012,0.305 0.012,0.305 l -0.023,0 c 0,0 -0.543,-1.246 -2.137,-1.246 -1.266,0 -2.414,0.789 -2.414,2.203 0,2.219 3.051,2.398 4.203,2.398"
         style="fill:#ffffff;fill-opacity:1;fill-rule:nonzero;stroke:none"
         id="path40" /><path
         d="m 276.332,31.618 c 0.973,0 1.789,0.793 1.789,2.192 0,1.347 -0.723,2.222 -1.762,2.222 -0.914,0 -1.773,-0.668 -1.773,-2.234 0,-1.098 0.582,-2.18 1.746,-2.18 z m -3.453,3.953 c 0,0.211 -0.109,0.309 -0.305,0.309 l -0.554,0 0,1.496 1.566,0 c 0.652,0 0.891,-0.293 0.891,-0.68 l 0,-0.277 0.027,0 c 0,0 0.594,1.125 2.246,1.125 1.914,0 3.148,-1.512 3.148,-3.703 0,-2.25 -1.386,-3.703 -3.246,-3.703 -1.402,0 -2.023,0.926 -2.023,0.926 l -0.027,0 c 0,0 0.027,-0.247 0.027,-0.61 l 0,-2.926 -1.75,0 0,8.043"
         style="fill:#ffffff;fill-opacity:1;fill-rule:nonzero;stroke:none"
         id="path42" /><path
         d="m 284.941,31.618 c 0.973,0 1.789,0.793 1.789,2.192 0,1.347 -0.718,2.222 -1.757,2.222 -0.918,0 -1.778,-0.668 -1.778,-2.234 0,-1.098 0.582,-2.18 1.746,-2.18 z m -3.453,3.953 c 0,0.211 -0.109,0.309 -0.304,0.309 l -0.555,0 0,1.496 1.566,0 c 0.657,0 0.891,-0.293 0.891,-0.68 l 0,-0.277 0.027,0 c 0,0 0.598,1.125 2.246,1.125 1.914,0 3.149,-1.512 3.149,-3.703 0,-2.25 -1.387,-3.703 -3.246,-3.703 -1.403,0 -2.024,0.926 -2.024,0.926 l -0.027,0 c 0,0 0.027,-0.247 0.027,-0.61 l 0,-2.926 -1.75,0 0,8.043"
         style="fill:#ffffff;fill-opacity:1;fill-rule:nonzero;stroke:none"
         id="path44" /><path
         d="m 294.316,34.755 c -0.027,0.848 -0.609,1.43 -1.332,1.43 -0.898,0 -1.539,-0.543 -1.734,-1.43 l 3.066,0 z m -1.332,2.789 c 2.028,0 3.133,-1.484 3.133,-3.359 0,-0.207 -0.039,-0.653 -0.039,-0.653 l -4.883,0 c 0.141,-1.246 1.055,-1.898 2.121,-1.898 1.137,0 1.985,0.789 1.985,0.789 l 0.734,-1.219 c 0,0 -1.082,-1.066 -2.844,-1.066 -2.339,0 -3.796,1.691 -3.796,3.703 0,2.176 1.468,3.703 3.589,3.703"
         style="fill:#ffffff;fill-opacity:1;fill-rule:nonzero;stroke:none"
         id="path46" /><path
         d="m 297.781,38.349 c 0,0.207 -0.109,0.304 -0.304,0.304 l -0.555,0 0,1.497 1.68,0 c 0.652,0 0.941,-0.29 0.941,-0.942 l 0,-7.117 c 0,-0.195 0.109,-0.305 0.305,-0.305 l 0.543,0 0,-1.484 -1.664,0 c -0.668,0 -0.946,0.277 -0.946,0.945 l 0,7.102"
         style="fill:#ffffff;fill-opacity:1;fill-rule:nonzero;stroke:none"
         id="path48" /><path
         d="m 301.996,40.15 1.524,0 0,-1.622 -1.524,0 0,1.622 z m -0.086,-4.579 c 0,0.211 -0.109,0.309 -0.305,0.309 l -0.55,0 0,1.496 1.675,0 c 0.653,0 0.93,-0.293 0.93,-0.941 l 0,-4.344 c 0,-0.195 0.11,-0.305 0.305,-0.305 l 0.555,0 0,-1.484 -1.676,0 c -0.656,0 -0.934,0.277 -0.934,0.945 l 0,4.324"
         style="fill:#ffffff;fill-opacity:1;fill-rule:nonzero;stroke:none"
         id="path50" /><path
         d="m 306.379,40.15 1.539,0 0,-1.622 -1.539,0 0,1.622 z m -1.484,-11.219 c 0.5,0 1.414,0.152 1.414,1.301 l 0,5.339 c 0,0.211 -0.114,0.309 -0.305,0.309 l -0.559,0 0,1.496 1.684,0 c 0.664,0 0.941,-0.293 0.941,-0.941 l 0,-6.34 c 0,-2.371 -1.984,-2.664 -2.957,-2.664 -0.316,0 -0.523,0.043 -0.523,0.043 l 0,1.484 c 0,0 0.125,-0.027 0.305,-0.027"
         style="fill:#ffffff;fill-opacity:1;fill-rule:nonzero;stroke:none"
         id="path52" /><path
         d="m 310.176,38.349 c 0,0.207 -0.11,0.304 -0.305,0.304 l -0.555,0 0,1.497 1.676,0 c 0.653,0 0.946,-0.153 0.946,-0.805 l 0,-4.465 0.527,0 c 0.223,0 0.515,0.043 0.668,0.262 l 1.441,2.234 1.953,0 -1.789,-2.664 c -0.304,-0.441 -0.523,-0.555 -0.523,-0.555 l 0,-0.027 c 0,0 0.25,-0.098 0.496,-0.555 l 0.805,-1.523 c 0.113,-0.211 0.25,-0.266 0.586,-0.266 l 0.468,0 0,-1.484 -1.304,0 c -0.594,0 -0.832,0.098 -1.11,0.609 l -1.176,2.219 c -0.14,0.25 -0.429,0.266 -0.656,0.266 l -0.386,0 0,-3.094 -1.762,0 0,8.047"
         style="fill:#ffffff;fill-opacity:1;fill-rule:nonzero;stroke:none"
         id="path54" /><path
         d="m 325.93,31.829 c 1.773,0 3.203,1.496 3.203,3.465 0,1.887 -1.43,3.332 -3.203,3.332 -1.778,0 -3.203,-1.445 -3.203,-3.332 0,-1.969 1.425,-3.465 3.203,-3.465 z m 0,8.488 c 2.898,0 5.09,-2.207 5.09,-5.023 0,-2.898 -2.192,-5.156 -5.09,-5.156 -2.903,0 -5.09,2.258 -5.09,5.156 0,2.816 2.187,5.023 5.09,5.023"
         style="fill:#ffffff;fill-opacity:1;fill-rule:nonzero;stroke:none"
         id="path56" /><path
         d="m 332.68,35.571 c 0,0.211 -0.114,0.309 -0.305,0.309 l -0.555,0 0,1.496 1.621,0 c 0.625,0 0.93,-0.293 0.93,-0.789 l 0,-0.211 c 0,-0.152 -0.027,-0.305 -0.027,-0.305 l 0.027,0 c 0.305,0.598 1.067,1.473 2.496,1.473 1.571,0 2.473,-0.82 2.473,-2.691 l 0,-2.762 c 0,-0.195 0.109,-0.305 0.305,-0.305 l 0.55,0 0,-1.484 -1.675,0 c -0.665,0 -0.946,0.277 -0.946,0.945 l 0,3.242 c 0,0.864 -0.219,1.446 -1.105,1.446 -0.946,0 -1.653,-0.598 -1.903,-1.446 -0.097,-0.289 -0.136,-0.609 -0.136,-0.941 l 0,-3.246 -1.75,0 0,5.269"
         style="fill:#ffffff;fill-opacity:1;fill-rule:nonzero;stroke:none"
         id="path58" /><path
         d="m 346.199,33.853 c 0,1.097 -0.566,2.179 -1.75,2.179 -0.969,0 -1.773,-0.793 -1.773,-2.191 0,-1.348 0.707,-2.223 1.75,-2.223 0.914,0 1.773,0.668 1.773,2.235 z m -2.094,3.691 c 1.54,0 2.04,-0.863 2.04,-0.863 l 0.027,0 c 0,0 -0.016,0.183 -0.016,0.418 l 0,1.25 c 0,0.207 -0.109,0.304 -0.304,0.304 l -0.555,0 0,1.497 1.68,0 c 0.652,0 0.945,-0.29 0.945,-0.942 l 0,-7.117 c 0,-0.195 0.109,-0.305 0.305,-0.305 l 0.539,0 0,-1.484 -1.621,0 c -0.641,0 -0.875,0.305 -0.875,0.723 l 0,0.261 -0.028,0 c 0,0 -0.586,-1.148 -2.207,-1.148 -1.914,0 -3.148,1.512 -3.148,3.703 0,2.246 1.343,3.703 3.218,3.703"
         style="fill:#ffffff;fill-opacity:1;fill-rule:nonzero;stroke:none"
         id="path60" /><path
         d="m 354.438,34.755 c -0.032,0.848 -0.614,1.43 -1.333,1.43 -0.902,0 -1.543,-0.543 -1.738,-1.43 l 3.071,0 z m -1.333,2.789 c 2.024,0 3.133,-1.484 3.133,-3.359 0,-0.207 -0.043,-0.653 -0.043,-0.653 l -4.883,0 c 0.141,-1.246 1.055,-1.898 2.126,-1.898 1.136,0 1.984,0.789 1.984,0.789 l 0.734,-1.219 c 0,0 -1.082,-1.066 -2.844,-1.066 -2.343,0 -3.8,1.691 -3.8,3.703 0,2.176 1.468,3.703 3.593,3.703"
         style="fill:#ffffff;fill-opacity:1;fill-rule:nonzero;stroke:none"
         id="path62" /><path
         d="m 357.941,35.571 c 0,0.211 -0.113,0.309 -0.304,0.309 l -0.555,0 0,1.496 1.609,0 c 0.621,0 0.942,-0.262 0.942,-0.859 l 0,-0.418 c 0,-0.262 -0.028,-0.442 -0.028,-0.442 l 0.028,0 c 0.32,1.012 1.168,1.817 2.25,1.817 0.148,0 0.316,-0.028 0.316,-0.028 l 0,-1.734 c 0,0 -0.179,0.027 -0.429,0.027 -0.75,0 -1.61,-0.429 -1.926,-1.484 -0.098,-0.348 -0.156,-0.734 -0.156,-1.152 l 0,-2.801 -1.747,0 0,5.269"
         style="fill:#ffffff;fill-opacity:1;fill-rule:nonzero;stroke:none"
         id="path64" /><path
         d="m 362.879,31.247 3.258,3.981 c 0.316,0.402 0.593,0.652 0.593,0.652 l 0,0.027 c 0,0 -0.207,-0.027 -0.648,-0.027 l -1.277,0 c -0.196,0 -0.305,-0.113 -0.305,-0.309 l 0,-0.402 -1.598,0 0,1.266 c 0,0.648 0.282,0.941 0.946,0.941 l 5.187,0 0,-0.957 -3.262,-3.98 c -0.316,-0.387 -0.593,-0.653 -0.593,-0.653 l 0,-0.027 c 0,0 0.207,0.043 0.668,0.043 l 1.55,0 c 0.196,0 0.305,0.094 0.305,0.305 l 0,0.386 1.598,0 0,-1.246 c 0,-0.668 -0.281,-0.945 -0.934,-0.945 l -5.488,0 0,0.945"
         style="fill:#ffffff;fill-opacity:1;fill-rule:nonzero;stroke:none"
         id="path66" /><path
         d="m 373.777,31.634 c 1.153,0 2.11,0.887 2.11,2.207 0,1.301 -0.957,2.203 -2.11,2.203 -1.136,0 -2.093,-0.902 -2.093,-2.203 0,-1.32 0.957,-2.207 2.093,-2.207 z m 0,5.91 c 2.164,0 3.883,-1.543 3.883,-3.703 0,-2.18 -1.719,-3.703 -3.883,-3.703 -2.148,0 -3.871,1.523 -3.871,3.703 0,2.16 1.723,3.703 3.871,3.703"
         style="fill:#ffffff;fill-opacity:1;fill-rule:nonzero;stroke:none"
         id="path68" /><path
         d="m 383.469,34.755 c -0.028,0.848 -0.614,1.43 -1.332,1.43 -0.903,0 -1.539,-0.543 -1.735,-1.43 l 3.067,0 z m -1.332,2.789 c 2.023,0 3.133,-1.484 3.133,-3.359 0,-0.207 -0.04,-0.653 -0.04,-0.653 l -4.882,0 c 0.136,-1.246 1.054,-1.898 2.121,-1.898 1.136,0 1.984,0.789 1.984,0.789 l 0.735,-1.219 c 0,0 -1.083,-1.066 -2.844,-1.066 -2.344,0 -3.797,1.691 -3.797,3.703 0,2.176 1.469,3.703 3.59,3.703"
         style="fill:#ffffff;fill-opacity:1;fill-rule:nonzero;stroke:none"
         id="path70" /><path
         d="m 386.922,38.349 c 0,0.207 -0.113,0.304 -0.309,0.304 l -0.554,0 0,1.497 1.679,0 c 0.653,0 0.946,-0.153 0.946,-0.805 l 0,-4.465 0.523,0 c 0.223,0 0.516,0.043 0.668,0.262 l 1.441,2.234 1.954,0 -1.79,-2.664 c -0.3,-0.441 -0.527,-0.555 -0.527,-0.555 l 0,-0.027 c 0,0 0.25,-0.098 0.5,-0.555 l 0.809,-1.523 c 0.109,-0.211 0.25,-0.266 0.582,-0.266 l 0.468,0 0,-1.484 -1.3,0 c -0.598,0 -0.832,0.098 -1.114,0.609 l -1.175,2.219 c -0.141,0.25 -0.434,0.266 -0.653,0.266 l -0.386,0 0,-3.094 -1.762,0 0,8.047"
         style="fill:#ffffff;fill-opacity:1;fill-rule:nonzero;stroke:none"
         id="path72" /><path
         d="m 156.316,24.439 c -0.086,0.238 -0.195,0.308 -0.429,0.308 l -0.25,0 0,1.539 1.148,0 c 0.695,0 0.945,-0.179 1.168,-0.804 l 1.887,-5.493 c 0.191,-0.554 0.375,-1.445 0.375,-1.445 l 0.027,0 c 0,0 0.18,0.891 0.371,1.445 l 1.891,5.493 c 0.219,0.625 0.457,0.804 1.148,0.804 l 1.164,0 0,-1.539 -0.261,0 c -0.235,0 -0.348,-0.07 -0.43,-0.308 l -2.941,-8 -1.914,0 -2.954,8"
         style="fill:#ffffff;fill-opacity:1;fill-rule:nonzero;stroke:none"
         id="path74" /><path
         d="m 166.078,24.482 c 0,0.207 -0.113,0.304 -0.305,0.304 l -0.554,0 0,1.5 1.676,0 c 0.652,0 0.945,-0.293 0.945,-0.945 l 0,-7.113 c 0,-0.196 0.109,-0.305 0.305,-0.305 l 0.539,0 0,-1.484 -1.664,0 c -0.665,0 -0.942,0.277 -0.942,0.941 l 0,7.102"
         style="fill:#ffffff;fill-opacity:1;fill-rule:nonzero;stroke:none"
         id="path76" /><path
         d="m 172.305,17.646 c 0.941,0 1.605,0.996 1.605,1.855 l 0,0.168 -0.305,0 c -0.914,0 -2.371,-0.125 -2.371,-1.109 0,-0.473 0.348,-0.914 1.071,-0.914 z m 1.355,3.23 0.223,0 0,0.055 c 0,1.011 -0.403,1.386 -1.301,1.386 -0.32,0 -0.945,-0.082 -0.945,-0.472 l 0,-0.371 -1.637,0 0,0.746 c 0,1.32 1.859,1.457 2.594,1.457 2.359,0 3.051,-1.235 3.051,-2.817 l 0,-2.632 c 0,-0.196 0.113,-0.305 0.304,-0.305 l 0.559,0 0,-1.484 -1.582,0 c -0.653,0 -0.903,0.359 -0.903,0.773 0,0.184 0.012,0.309 0.012,0.309 l -0.027,0 c 0,0 -0.539,-1.25 -2.137,-1.25 -1.262,0 -2.41,0.789 -2.41,2.207 0,2.218 3.051,2.398 4.199,2.398"
         style="fill:#ffffff;fill-opacity:1;fill-rule:nonzero;stroke:none"
         id="path78" /><path
         d="m 180.066,17.646 c 0.946,0 1.61,0.996 1.61,1.855 l 0,0.168 -0.305,0 c -0.914,0 -2.371,-0.125 -2.371,-1.109 0,-0.473 0.348,-0.914 1.066,-0.914 z m 1.36,3.23 0.222,0 0,0.055 c 0,1.011 -0.402,1.386 -1.304,1.386 -0.321,0 -0.942,-0.082 -0.942,-0.472 l 0,-0.371 -1.636,0 0,0.746 c 0,1.32 1.859,1.457 2.593,1.457 2.356,0 3.051,-1.235 3.051,-2.817 l 0,-2.632 c 0,-0.196 0.11,-0.305 0.305,-0.305 l 0.555,0 0,-1.484 -1.582,0 c -0.653,0 -0.903,0.359 -0.903,0.773 0,0.184 0.016,0.309 0.016,0.309 l -0.028,0 c 0,0 -0.543,-1.25 -2.136,-1.25 -1.262,0 -2.414,0.789 -2.414,2.207 0,2.218 3.05,2.398 4.203,2.398"
         style="fill:#ffffff;fill-opacity:1;fill-rule:nonzero;stroke:none"
         id="path80" /><path
         d="m 185.684,21.708 c 0,0.207 -0.114,0.305 -0.305,0.305 l -0.559,0 0,1.5 1.625,0 c 0.625,0 0.93,-0.293 0.93,-0.793 l 0,-0.207 c 0,-0.153 -0.027,-0.305 -0.027,-0.305 l 0.027,0 c 0.305,0.594 1.066,1.469 2.496,1.469 1.567,0 2.469,-0.817 2.469,-2.692 l 0,-2.757 c 0,-0.196 0.109,-0.305 0.305,-0.305 l 0.554,0 0,-1.484 -1.679,0 c -0.665,0 -0.942,0.277 -0.942,0.941 l 0,3.246 c 0,0.859 -0.223,1.441 -1.109,1.441 -0.946,0 -1.653,-0.593 -1.903,-1.441 -0.093,-0.293 -0.136,-0.609 -0.136,-0.941 l 0,-3.246 -1.746,0 0,5.269"
         style="fill:#ffffff;fill-opacity:1;fill-rule:nonzero;stroke:none"
         id="path82" /><path
         d="m 199.203,19.989 c 0,1.094 -0.57,2.176 -1.75,2.176 -0.969,0 -1.773,-0.789 -1.773,-2.191 0,-1.344 0.707,-2.219 1.746,-2.219 0.918,0 1.777,0.664 1.777,2.234 z m -2.098,3.688 c 1.543,0 2.04,-0.86 2.04,-0.86 l 0.031,0 c 0,0 -0.016,0.18 -0.016,0.418 l 0,1.247 c 0,0.207 -0.109,0.304 -0.305,0.304 l -0.554,0 0,1.5 1.679,0 c 0.649,0 0.942,-0.293 0.942,-0.945 l 0,-7.113 c 0,-0.196 0.109,-0.305 0.305,-0.305 l 0.543,0 0,-1.484 -1.625,0 c -0.637,0 -0.875,0.304 -0.875,0.718 l 0,0.266 -0.028,0 c 0,0 -0.582,-1.152 -2.203,-1.152 -1.914,0 -3.148,1.511 -3.148,3.703 0,2.246 1.343,3.703 3.214,3.703"
         style="fill:#ffffff;fill-opacity:1;fill-rule:nonzero;stroke:none"
         id="path84" /><path
         d="m 207.438,20.888 c -0.028,0.847 -0.61,1.429 -1.333,1.429 -0.902,0 -1.539,-0.539 -1.734,-1.429 l 3.067,0 z m -1.333,2.789 c 2.028,0 3.137,-1.485 3.137,-3.356 0,-0.207 -0.043,-0.652 -0.043,-0.652 l -4.883,0 c 0.141,-1.25 1.055,-1.902 2.122,-1.902 1.136,0 1.984,0.793 1.984,0.793 l 0.734,-1.223 c 0,0 -1.082,-1.066 -2.844,-1.066 -2.339,0 -3.796,1.691 -3.796,3.703 0,2.179 1.468,3.703 3.589,3.703"
         style="fill:#ffffff;fill-opacity:1;fill-rule:nonzero;stroke:none"
         id="path86" /><path
         d="m 210.945,21.708 c 0,0.207 -0.113,0.305 -0.304,0.305 l -0.555,0 0,1.5 1.605,0 c 0.625,0 0.946,-0.266 0.946,-0.863 l 0,-0.415 c 0,-0.265 -0.028,-0.445 -0.028,-0.445 l 0.028,0 c 0.316,1.012 1.164,1.817 2.246,1.817 0.152,0 0.32,-0.028 0.32,-0.028 l 0,-1.734 c 0,0 -0.183,0.031 -0.43,0.031 -0.75,0 -1.609,-0.434 -1.929,-1.484 -0.098,-0.348 -0.153,-0.739 -0.153,-1.153 l 0,-2.8 -1.746,0 0,5.269"
         style="fill:#ffffff;fill-opacity:1;fill-rule:nonzero;stroke:none"
         id="path88" /><path
         d="m 220.621,20.888 c -0.023,0.847 -0.605,1.429 -1.328,1.429 -0.902,0 -1.539,-0.539 -1.734,-1.429 l 3.062,0 z m -1.328,2.789 c 2.023,0 3.133,-1.485 3.133,-3.356 0,-0.207 -0.039,-0.652 -0.039,-0.652 l -4.883,0 c 0.137,-1.25 1.055,-1.902 2.121,-1.902 1.137,0 1.984,0.793 1.984,0.793 l 0.735,-1.223 c 0,0 -1.082,-1.066 -2.844,-1.066 -2.344,0 -3.801,1.691 -3.801,3.703 0,2.179 1.473,3.703 3.594,3.703"
         style="fill:#ffffff;fill-opacity:1;fill-rule:nonzero;stroke:none"
         id="path90" /><path
         d="m 224.129,21.708 c 0,0.207 -0.109,0.305 -0.305,0.305 l -0.554,0 0,1.5 1.625,0 c 0.621,0 0.925,-0.293 0.925,-0.793 l 0,-0.207 c 0,-0.153 -0.027,-0.305 -0.027,-0.305 l 0.027,0 c 0.309,0.594 1.071,1.469 2.496,1.469 1.571,0 2.469,-0.817 2.469,-2.692 l 0,-2.757 c 0,-0.196 0.113,-0.305 0.309,-0.305 l 0.554,0 0,-1.484 -1.679,0 c -0.664,0 -0.946,0.277 -0.946,0.941 l 0,3.246 c 0,0.859 -0.218,1.441 -1.109,1.441 -0.941,0 -1.648,-0.593 -1.898,-1.441 -0.098,-0.293 -0.137,-0.609 -0.137,-0.941 l 0,-3.246 -1.75,0 0,5.269"
         style="fill:#ffffff;fill-opacity:1;fill-rule:nonzero;stroke:none"
         id="path92" /><path
         d="m 160.512,3.536 c 1.761,0 3.183,1.469 3.183,3.414 0,1.887 -1.422,3.305 -3.183,3.305 -1.762,0 -3.192,-1.418 -3.192,-3.305 0,-1.945 1.43,-3.414 3.192,-3.414 z m 0,7.821 c 2.496,0 4.429,-1.922 4.429,-4.407 0,-2.543 -1.933,-4.527 -4.429,-4.527 -2.496,0 -4.442,1.984 -4.442,4.527 0,2.485 1.946,4.407 4.442,4.407"
         style="fill:#ffffff;fill-opacity:1;fill-rule:nonzero;stroke:none"
         id="path94" /><path
         d="m 169.359,3.439 c 0.977,0 1.786,0.808 1.786,2.214 0,1.348 -0.723,2.215 -1.75,2.215 -0.93,0 -1.786,-0.648 -1.786,-2.226 0,-1.102 0.61,-2.203 1.75,-2.203 z m -2.902,5.324 1.09,0 0,-0.528 c 0,-0.242 -0.024,-0.453 -0.024,-0.453 l 0.024,0 c 0,0 0.527,1.129 2.082,1.129 1.66,0 2.715,-1.324 2.715,-3.246 0,-1.969 -1.188,-3.242 -2.805,-3.242 -1.355,0 -1.894,1.016 -1.894,1.016 l -0.024,0 c 0,0 0.024,-0.219 0.024,-0.539 l 0,-2.778 -1.188,0 0,8.641"
         style="fill:#ffffff;fill-opacity:1;fill-rule:nonzero;stroke:none"
         id="path96" /><path
         d="m 177.934,6.388 c -0.036,1.066 -0.696,1.578 -1.493,1.578 -0.906,0 -1.64,-0.563 -1.812,-1.578 l 3.305,0 z m -1.469,2.523 c 1.75,0 2.68,-1.297 2.68,-2.902 0,-0.16 -0.036,-0.512 -0.036,-0.512 l -4.515,0 c 0.062,-1.359 1.027,-2.047 2.129,-2.047 1.066,0 1.836,0.723 1.836,0.723 l 0.488,-0.867 c 0,0 -0.918,-0.883 -2.399,-0.883 -1.945,0 -3.277,1.41 -3.277,3.242 0,1.973 1.332,3.246 3.094,3.246"
         style="fill:#ffffff;fill-opacity:1;fill-rule:nonzero;stroke:none"
         id="path98" /><path
         d="m 180.59,8.763 1.148,0 0,-0.821 c 0,-0.242 -0.023,-0.453 -0.023,-0.453 l 0.023,0 c 0.246,0.539 0.981,1.422 2.324,1.422 1.458,0 2.129,-0.797 2.129,-2.375 l 0,-3.965 -1.187,0 0,3.696 c 0,0.867 -0.184,1.554 -1.172,1.554 -0.941,0 -1.703,-0.625 -1.961,-1.519 -0.07,-0.242 -0.098,-0.524 -0.098,-0.832 l 0,-2.899 -1.183,0 0,6.192"
         style="fill:#ffffff;fill-opacity:1;fill-rule:nonzero;stroke:none"
         id="path100" /><path
         d="m 187.965,8.763 1.187,0 0,-6.192 -1.187,0 0,6.192 z m -0.012,2.449 1.199,0 0,-1.215 -1.199,0 0,1.215"
         style="fill:#ffffff;fill-opacity:1;fill-rule:nonzero;stroke:none"
         id="path102" /><path
         d="m 191.012,8.763 1.148,0 0,-0.821 c 0,-0.242 -0.023,-0.453 -0.023,-0.453 l 0.023,0 c 0.246,0.539 0.981,1.422 2.324,1.422 1.457,0 2.133,-0.797 2.133,-2.375 l 0,-3.965 -1.187,0 0,3.696 c 0,0.867 -0.184,1.554 -1.176,1.554 -0.942,0 -1.699,-0.625 -1.957,-1.519 -0.074,-0.242 -0.098,-0.524 -0.098,-0.832 l 0,-2.899 -1.187,0 0,6.192"
         style="fill:#ffffff;fill-opacity:1;fill-rule:nonzero;stroke:none"
         id="path104" /><path
         d="m 202.621,5.802 c 0,1.613 -0.781,2.082 -1.75,2.082 -1.074,0 -1.687,-0.785 -1.687,-2.047 0,-1.285 0.683,-2.164 1.796,-2.164 0.86,0 1.641,0.512 1.641,2.129 z m -1.98,-4.774 c 1.078,0 1.957,0.477 1.957,1.739 l 0,0.453 c 0,0.195 0.011,0.39 0.011,0.39 l -0.023,0 c -0.367,-0.609 -0.941,-0.964 -1.836,-0.964 -1.727,0 -2.766,1.382 -2.766,3.168 0,1.773 0.993,3.097 2.704,3.097 1.496,0 1.945,-0.918 1.945,-0.918 l 0.027,0 c 0,0 -0.015,0.086 -0.015,0.196 l 0,0.574 1.14,0 0,-5.934 c 0,-2.047 -1.555,-2.828 -3.121,-2.828 -0.746,0 -1.516,0.207 -2.117,0.516 l 0.391,0.929 c 0,0 0.773,-0.418 1.703,-0.418"
         style="fill:#ffffff;fill-opacity:1;fill-rule:nonzero;stroke:none"
         id="path106" /><path
         d="m 208.785,8.763 1.153,0 0,-0.821 c 0,-0.242 -0.024,-0.453 -0.024,-0.453 l 0.024,0 c 0.246,0.539 0.976,1.422 2.324,1.422 1.457,0 2.129,-0.797 2.129,-2.375 l 0,-3.965 -1.188,0 0,3.696 c 0,0.867 -0.183,1.554 -1.176,1.554 -0.937,0 -1.699,-0.625 -1.957,-1.519 -0.074,-0.242 -0.093,-0.524 -0.093,-0.832 l 0,-2.899 -1.192,0 0,6.192"
         style="fill:#ffffff;fill-opacity:1;fill-rule:nonzero;stroke:none"
         id="path108" /><path
         d="m 220.301,6.388 c -0.035,1.066 -0.699,1.578 -1.492,1.578 -0.907,0 -1.641,-0.563 -1.813,-1.578 l 3.305,0 z m -1.469,2.523 c 1.75,0 2.68,-1.297 2.68,-2.902 0,-0.16 -0.035,-0.512 -0.035,-0.512 l -4.516,0 c 0.059,-1.359 1.027,-2.047 2.129,-2.047 1.062,0 1.836,0.723 1.836,0.723 l 0.488,-0.867 c 0,0 -0.918,-0.883 -2.398,-0.883 -1.946,0 -3.282,1.41 -3.282,3.242 0,1.973 1.336,3.246 3.098,3.246"
         style="fill:#ffffff;fill-opacity:1;fill-rule:nonzero;stroke:none"
         id="path110" /><path
         d="m 222.23,8.763 1.262,0 1.285,-4.344 c 0.098,-0.32 0.149,-0.66 0.161,-0.66 l 0.023,0 c 0,0 0.059,0.34 0.16,0.66 l 1.348,4.332 1.086,0 1.336,-4.332 c 0.097,-0.32 0.171,-0.66 0.171,-0.66 l 0.024,0 c 0,0 0.047,0.34 0.144,0.66 l 1.297,4.344 1.25,0 -1.996,-6.192 -1.308,0 -1.285,3.977 c -0.098,0.316 -0.172,0.672 -0.172,0.672 l -0.024,0 c 0,0 -0.074,-0.356 -0.172,-0.672 l -1.269,-3.977 -1.324,0 -1.997,6.192"
         style="fill:#ffffff;fill-opacity:1;fill-rule:nonzero;stroke:none"
         id="path112" /><path
         d="m 236.059,11.212 1.183,0 0,-3.172 c 0,-0.293 -0.023,-0.512 -0.023,-0.512 l 0.023,0 c 0.27,0.598 1.055,1.383 2.289,1.383 1.457,0 2.129,-0.797 2.129,-2.375 l 0,-3.965 -1.183,0 0,3.696 c 0,0.867 -0.188,1.554 -1.176,1.554 -0.934,0 -1.703,-0.636 -1.957,-1.531 -0.074,-0.242 -0.102,-0.523 -0.102,-0.82 l 0,-2.899 -1.183,0 0,8.641"
         style="fill:#ffffff;fill-opacity:1;fill-rule:nonzero;stroke:none"
         id="path114" /><path
         d="m 246.32,3.45 c 1.176,0 2.129,0.934 2.129,2.231 0,1.285 -0.953,2.203 -2.129,2.203 -1.16,0 -2.129,-0.918 -2.129,-2.203 0,-1.297 0.969,-2.231 2.129,-2.231 z m 0,5.461 c 1.852,0 3.34,-1.359 3.34,-3.23 0,-1.887 -1.488,-3.258 -3.34,-3.258 -1.847,0 -3.34,1.371 -3.34,3.258 0,1.871 1.493,3.23 3.34,3.23"
         style="fill:#ffffff;fill-opacity:1;fill-rule:nonzero;stroke:none"
         id="path116" /><path
         d="m 251.066,8.763 1.153,0 0,-1.078 c 0,-0.254 -0.028,-0.465 -0.028,-0.465 l 0.028,0 c 0.281,0.906 1.004,1.617 1.957,1.617 0.16,0 0.304,-0.023 0.304,-0.023 l 0,-1.176 c 0,0 -0.16,0.035 -0.339,0.035 -0.758,0 -1.457,-0.539 -1.739,-1.457 -0.113,-0.352 -0.148,-0.734 -0.148,-1.113 l 0,-2.532 -1.188,0 0,6.192"
         style="fill:#ffffff;fill-opacity:1;fill-rule:nonzero;stroke:none"
         id="path118" /><path
         d="m 255.656,8.763 1.188,0 0,-6.192 -1.188,0 0,6.192 z m -0.011,2.449 1.199,0 0,-1.215 -1.199,0 0,1.215"
         style="fill:#ffffff;fill-opacity:1;fill-rule:nonzero;stroke:none"
         id="path120" /><path
         d="m 258.246,3.255 3.121,3.918 c 0.274,0.328 0.516,0.574 0.516,0.574 l 0,0.024 c 0,0 -0.195,-0.024 -0.602,-0.024 l -2.898,0 0,1.016 5.101,0 0,-0.684 -3.121,-3.929 C 260.109,3.833 259.84,3.587 259.84,3.587 l 0,-0.023 c 0,0 0.207,0.023 0.609,0.023 l 3.149,0 0,-1.016 -5.352,0 0,0.684"
         style="fill:#ffffff;fill-opacity:1;fill-rule:nonzero;stroke:none"
         id="path122" /><path
         d="m 267.879,3.45 c 1.176,0 2.129,0.934 2.129,2.231 0,1.285 -0.953,2.203 -2.129,2.203 -1.164,0 -2.133,-0.918 -2.133,-2.203 0,-1.297 0.969,-2.231 2.133,-2.231 z m 0,5.461 c 1.848,0 3.34,-1.359 3.34,-3.23 0,-1.887 -1.492,-3.258 -3.34,-3.258 -1.852,0 -3.344,1.371 -3.344,3.258 0,1.871 1.492,3.23 3.344,3.23"
         style="fill:#ffffff;fill-opacity:1;fill-rule:nonzero;stroke:none"
         id="path124" /><path
         d="m 272.625,8.763 1.148,0 0,-0.821 c 0,-0.242 -0.023,-0.453 -0.023,-0.453 l 0.023,0 c 0.247,0.539 0.981,1.422 2.329,1.422 1.453,0 2.128,-0.797 2.128,-2.375 l 0,-3.965 -1.191,0 0,3.696 c 0,0.867 -0.184,1.554 -1.172,1.554 -0.941,0 -1.703,-0.625 -1.961,-1.519 -0.07,-0.242 -0.094,-0.524 -0.094,-0.832 l 0,-2.899 -1.187,0 0,6.192"
         style="fill:#ffffff;fill-opacity:1;fill-rule:nonzero;stroke:none"
         id="path126" /><path
         d="m 280.074,4.173 c 0,0 0.696,-0.723 1.774,-0.723 0.515,0 1.031,0.27 1.031,0.774 0,1.136 -3.184,0.906 -3.184,2.926 0,1.125 1.004,1.761 2.239,1.761 1.359,0 1.996,-0.687 1.996,-0.687 l -0.481,-0.891 c 0,0 -0.547,0.551 -1.527,0.551 -0.516,0 -1.016,-0.223 -1.016,-0.762 0,-1.113 3.184,-0.867 3.184,-2.898 0,-1.028 -0.883,-1.801 -2.242,-1.801 -1.516,0 -2.348,0.906 -2.348,0.906 l 0.574,0.844"
         style="fill:#ffffff;fill-opacity:1;fill-rule:nonzero;stroke:none"
         id="path128" /><path
         d="m 5.234,25.071 10.555,0 0,-23.926 -10.555,0 0,23.926 z"
         style="fill:#ffffff;fill-opacity:1;fill-rule:nonzero;stroke:none"
         id="path130" /><path
         d="M 9.605,53.419 9.73,52.966 c 0.961,-3.473 3.512,-6.387 6.821,-7.785 l 0.011,-0.004 c 1.547,2.945 5.083,3.394 7.368,3.394 1.246,0 2.16,-0.168 2.16,-0.168 l 0,8.973 c 0,0 -1.41,0.25 -3.574,0.25 -3.547,0 -9.067,-0.664 -12.911,-4.207"
         style="fill:#ffffff;fill-opacity:1;fill-rule:nonzero;stroke:none"
         id="path132" /><path
         d="m 126,10.153 c -0.418,-0.046 -0.844,-0.074 -1.273,-0.074 -6.176,0 -11.184,5.004 -11.184,11.18 0,0.375 0.012,0.746 0.043,1.113 l -8.703,0 -0.035,-1.113 c 0,-10.977 8.898,-19.875 19.879,-19.875 0.929,0 1.851,0.074 2.75,0.203 -2.051,3.824 -1.661,7.477 -1.477,8.566"
         style="fill:#ffffff;fill-opacity:1;fill-rule:nonzero;stroke:none"
         id="path134" /><path
         d="m 124.688,32.439 c 5.89,0 10.714,-4.559 11.144,-10.34 l 8.711,0 c -0.438,10.586 -9.16,19.035 -19.855,19.035 -10.032,0 -18.321,-7.43 -19.676,-17.082 l 8.859,0 c 1.238,4.82 5.606,8.387 10.817,8.387"
         style="fill:#ffffff;fill-opacity:1;fill-rule:nonzero;stroke:none"
         id="path136" /><path
         d="m 128.438,10.716 c -0.211,-0.078 -0.43,-0.145 -0.649,-0.207 l -0.086,-0.375 c -0.086,-0.535 -0.141,-1.035 -0.164,-1.496 -0.035,-0.914 0.02,-2.176 0.379,-3.586 0.008,-0.027 0.016,-0.059 0.023,-0.09 0.266,-0.98 0.649,-1.93 1.145,-2.824 l 0.008,-0.012 0.125,-0.219 c 8.527,1.973 14.937,9.422 15.343,18.457 l 0,0.055 -8.703,0 c -0.336,-4.504 -3.324,-8.266 -7.421,-9.703"
         style="fill:#ffffff;fill-opacity:1;fill-rule:nonzero;stroke:none"
         id="path138" /><path
         d="m 72.973,25.829 0.304,0.27 -4.089,14.343 -8.692,0 -4.074,-14.437 0.297,-0.262 c 1.883,-1.644 4.183,-2.668 6.648,-2.957 l 0.141,-0.015 0.246,0.824 c 0.621,2.097 1.008,4.269 1.008,4.269 l 0.156,0 c 0,0 0.379,-2.16 1.004,-4.254 l 0.246,-0.828 0.141,0.02 c 2.484,0.305 4.789,1.351 6.664,3.027"
         style="fill:#ffffff;fill-opacity:1;fill-rule:nonzero;stroke:none"
         id="path140" /><path
         d="m 54.422,18.321 -0.125,0.016 -1.031,-3.66 c -0.621,-2.098 -0.934,-4.195 -0.934,-4.195 l -0.156,0 c 0,0 -0.231,2.097 -0.774,4.195 l -1.023,3.859 -0.117,-0.015 c -3.133,-0.379 -5.965,-1.918 -7.981,-4.336 l -0.34,-0.414 4.028,-12.68 11.176,0 3.914,13.242 -0.336,0.356 c -2.985,3.164 -6.27,3.625 -6.301,3.632"
         style="fill:#ffffff;fill-opacity:1;fill-rule:nonzero;stroke:none"
         id="path142" /><path
         d="m 49.941,20.169 -4.425,16.473 c -0.774,3.023 -2.325,4.035 -5.586,4.035 l -6.75,0 0,-8.383 1.086,0 c 1.16,0 1.785,-0.234 2.172,-1.398 L 41.34,15.653 c 2.234,2.493 5.265,4.086 8.601,4.516"
         style="fill:#ffffff;fill-opacity:1;fill-rule:nonzero;stroke:none"
         id="path144" /><path
         d="m 78.484,14.962 0.004,-13.871 5.278,0 6.761,21.285 -10.105,0 -1.938,-7.414"
         style="fill:#ffffff;fill-opacity:1;fill-rule:nonzero;stroke:none"
         id="path146" /><path
         d="m 15.781,40.677 -15.781,0 0,-8.395 5.234,0 0,-5.527 10.555,0 -0.008,13.922"
         style="fill:#ffffff;fill-opacity:1;fill-rule:nonzero;stroke:none"
         id="path148" /><path
         d="m 5.234,40.7 10.547,0 0,-0.023 -10.547,0 0,0.023 z"
         style="fill:#ffffff;fill-opacity:1;fill-rule:nonzero;stroke:none"
         id="path150" /><path
         d="M 8.273,51.985 C 6.504,49.751 5.32,46.653 5.242,42.38 l 10.57,0 c 0.032,0.434 0.094,0.84 0.176,1.219 l -0.09,0.039 c -3.605,1.523 -6.421,4.621 -7.625,8.347"
         style="fill:#ffffff;fill-opacity:1;fill-rule:nonzero;stroke:none"
         id="path152" /><path
         d="m 76.609,14.677 -2.816,9.64 C 71.75,22.595 69.297,21.509 66.656,21.153 l 5.996,-20.062 4.157,0 0,12.898 c -0.063,0.227 -0.129,0.453 -0.2,0.688"
         style="fill:#ffffff;fill-opacity:1;fill-rule:nonzero;stroke:none"
         id="path154" /><path
         d="m 17.461,40.677 7.383,0 0,-8.391 -7.383,0 0,8.391 z"
         style="fill:#ffffff;fill-opacity:1;fill-rule:nonzero;stroke:none"
         id="path156" /><path
         d="m 84.137,36.642 -3.278,-12.59 10.2,0 2.16,6.844 c 0.465,1.164 1.008,1.398 2.172,1.398 l 1.086,0 0,8.383 -6.75,0 c -3.262,0 -4.813,-1.012 -5.59,-4.035"
         style="fill:#ffffff;fill-opacity:1;fill-rule:nonzero;stroke:none"
         id="path158" /><path
         d="m 54.754,19.966 c 0.66,-0.109 3.824,-0.766 6.848,-3.774 l 1.429,4.946 c -2.617,0.336 -5.062,1.394 -7.105,3.078 l -1.172,-4.25"
         style="fill:#ffffff;fill-opacity:1;fill-rule:nonzero;stroke:none"
         id="path160" /><path
         d="m 15.781,40.7 0.004,0 0,-0.023 -0.004,0 0,0.023 z"
         style="fill:#000000;fill-opacity:1;fill-rule:nonzero;stroke:none"
         id="path162" /></g></g></svg>