<?xml version="1.0" encoding="UTF-8" standalone="no"?>
<!-- Created with Inkscape (http://www.inkscape.org/) -->

<svg
   xmlns:dc="http://purl.org/dc/elements/1.1/"
   xmlns:cc="http://creativecommons.org/ns#"
   xmlns:rdf="http://www.w3.org/1999/02/22-rdf-syntax-ns#"
   xmlns:svg="http://www.w3.org/2000/svg"
   xmlns="http://www.w3.org/2000/svg"
   version="1.1"
   width="292.125"
   height="57.412498"
   id="svg2"
   xml:space="preserve"><metadata
     id="metadata8"><rdf:RDF><cc:Work
         rdf:about=""><dc:format>image/svg+xml</dc:format><dc:type
           rdf:resource="http://purl.org/dc/dcmitype/StillImage" /><dc:title></dc:title></cc:Work></rdf:RDF></metadata><defs
     id="defs6" /><g
     transform="matrix(1.25,0,0,-1.25,0,57.4125)"
     id="g10"><g
       transform="scale(0.1,0.1)"
       id="g12"><path
         d="M 832.512,214.688 C 830.93,163.32 799.148,124.941 755.969,111.426 l -0.742,-0.293 c -0.625,-0.156 -1.235,-0.332 -1.274,-0.235 l -0.547,-0.351 -0.386,0 c -2.422,-0.723 -4.883,-1.367 -7.54,-1.953 -2.89,-0.449 -5.824,-0.781 -8.664,-1.055 -7.359,-0.957 -15.046,-1.465 -22.812,-1.465 -10.57,0 -21.274,0.918 -31.488,2.715 -1.985,0.332 -4.016,0.781 -6.071,1.231 -0.8,0.195 -1.797,0.332 -2.992,0.585 -0.933,0.293 -1.816,0.489 -2.594,0.723 -47.004,12.832 -81.168,53.652 -81.129,108.535 l 0,147.856 22.926,0 0,0.066 40.418,0 0,-144.953 c 0.149,-48.262 30.637,-78.144 73.426,-78.281 42.16,0.117 72.16,29.883 72.438,77.969 -8.071,2.753 -16.411,5.976 -25.352,10.277 -78.652,37.687 -107.574,16.543 -107.574,16.543 0,0 37.972,72.351 118.961,38.449 4.863,-2.043 9.492,-3.898 13.98,-5.695 l 0,85.691 33.715,0 0,-97.918 c 49.82,-15.996 67.691,-10.019 76.836,6.133 7.574,-29.727 -18.481,-67.855 -76.992,-61.312 z m 82.676,236.835 -383.016,0 c -11.649,0 -21.094,-9.433 -21.094,-21.093 l 0,-383.0277 c 0,-11.6406 9.445,-21.0937 21.094,-21.0937 l 383.016,0 c 11.636,0 21.089,9.4531 21.089,21.0937 l 0,383.0277 c 0,11.66 -9.453,21.093 -21.089,21.093"
         id="path14"
         style="fill:#ffffff;fill-opacity:1;fill-rule:nonzero;stroke:none" /><path
         d="m 1015.81,350.598 0,103.496 64.95,0 -1.2,-14.406 -45,0 0,-28.797 40.21,0 0,-14.395 -40.21,0 0,-31.496 45.16,0 1.34,-14.402 -65.25,0"
         id="path16"
         style="fill:#ffffff;fill-opacity:1;fill-rule:nonzero;stroke:none" /><path
         d="m 1096.96,458.293 18,1.055 0,-89.102 c 0,-4.953 0.3,-6.152 4.36,-6.152 1.2,0 2.85,0 5.85,0.301 l 0.45,-12.743 c -3.31,-1.054 -9.46,-1.808 -14.86,-1.808 -9.3,0 -13.8,3.906 -13.8,13.957 l 0,94.492"
         id="path18"
         style="fill:#ffffff;fill-opacity:1;fill-rule:nonzero;stroke:none" /><path
         d="m 1179.31,393.34 c 0,11.25 -4.06,16.359 -11.55,16.359 -8.25,0 -13.8,-5.402 -15,-16.359 l 26.55,0 z m -12.6,-43.797 c -20.55,0 -32.55,9.598 -32.55,33.457 0,24.441 12.9,40.047 35.55,40.047 19.2,0 25.94,-12.606 25.94,-32.547 0,-1.953 0,-4.355 -0.44,-8.105 l -43.05,0 c 0,-12.747 5.1,-19.043 17.1,-19.043 7.5,0 16.35,2.996 23.4,6.746 l 4.35,-12.149 c -8.25,-5.254 -19.2,-8.406 -30.3,-8.406"
         id="path20"
         style="fill:#ffffff;fill-opacity:1;fill-rule:nonzero;stroke:none" /><path
         d="m 1258.81,406.848 c -4.8,1.492 -9.75,2.097 -13.5,2.097 -12.75,0 -18.3,-7.5 -18.3,-24.148 0,-13.801 4.8,-20.703 16.35,-20.703 5.85,0 11.55,1.504 16.95,4.051 l 4.65,-12.754 c -6.9,-3.739 -15.3,-5.848 -25.35,-5.848 -20.1,0 -30.9,9.449 -30.9,33.906 0,26.699 14.7,39.746 34.95,39.746 7.05,0 13.35,-0.754 18.9,-3.156 l -3.75,-13.191"
         id="path22"
         style="fill:#ffffff;fill-opacity:1;fill-rule:nonzero;stroke:none" /><path
         d="m 1297.21,349.395 c -12.6,0 -18.9,5.253 -18.9,18.156 l 0,40.789 -9,0.449 1.05,12.305 8.4,0.304 2.1,22.04 15.9,1.359 0,-23.399 20.99,0 -1.04,-13.203 -19.95,0 0,-39.746 c 0,-3.906 1.35,-5.254 5.25,-5.254 3.9,0 9.75,1.055 14.1,2.996 l 3.15,-12.148 c -5.26,-2.852 -12.75,-4.648 -22.05,-4.648"
         id="path24"
         style="fill:#ffffff;fill-opacity:1;fill-rule:nonzero;stroke:none" /><path
         d="m 1371.61,406.242 c -2.25,0.156 -3.9,0.301 -5.7,0.301 -6.3,0 -8.1,-1.348 -16.2,-14.246 l 0,-41.699 -18.15,0 0,70.945 14.4,1.203 c 1.05,-2.258 1.8,-9.297 2.1,-15.898 6.6,13.496 10.35,15.898 16.95,15.898 3.14,0 6.3,-0.449 8.54,-1.055 l -1.94,-15.449"
         id="path26"
         style="fill:#ffffff;fill-opacity:1;fill-rule:nonzero;stroke:none" /><path
         d="m 1414.5,409.992 c -9.89,0 -15.9,-8.097 -15.9,-23.547 0,-17.996 5.4,-24.004 15.31,-24.004 10.8,0 15.75,8.555 15.75,24.454 0,15.304 -4.36,23.097 -15.16,23.097 z m -1.79,-60.597 c -22.2,0 -33,11.554 -33,35.546 0,22.805 13.65,38.254 35.85,38.254 22.19,0 32.99,-10.949 32.99,-35.402 0,-22.344 -12.45,-38.398 -35.84,-38.398"
         id="path28"
         style="fill:#ffffff;fill-opacity:1;fill-rule:nonzero;stroke:none" /><path
         d="m 1506.9,350.598 0,49.199 c 0,4.949 -1.5,8.094 -7.05,8.094 -4.64,0 -11.1,-3.301 -17.24,-9.149 l 0,-48.144 -18.3,0 0,70.945 15.9,1.055 c 0.89,-2.11 1.49,-6.602 1.79,-10.957 8.4,7.656 17.25,11.554 25.05,11.554 13.35,0 18.3,-6.457 18.3,-19.953 l 0,-52.644 -18.45,0"
         id="path30"
         style="fill:#ffffff;fill-opacity:1;fill-rule:nonzero;stroke:none" /><path
         d="m 1664.1,350.598 -0.45,73.047 c -0.45,-2.551 -1.04,-4.797 -2.24,-7.5 l -27.9,-63.45 -12.6,0 -26.7,61.203 c -1.35,2.997 -1.95,4.95 -2.26,7.645 l -1.04,-70.945 -16.35,0 1.8,103.496 18.3,0 33.75,-76.653 34.79,76.653 18.16,0 1.19,-103.496 -18.45,0"
         id="path32"
         style="fill:#ffffff;fill-opacity:1;fill-rule:nonzero;stroke:none" /><path
         d="m 1702.05,350.598 0,70.644 18,1.055 0,-71.699 -18,0 z m -0.45,84.746 0,16.199 18.45,0 0,-16.199 -18.45,0"
         id="path34"
         style="fill:#ffffff;fill-opacity:1;fill-rule:nonzero;stroke:none" /><path
         d="m 1785.75,406.848 c -4.79,1.492 -9.74,2.097 -13.49,2.097 -12.76,0 -18.3,-7.5 -18.3,-24.148 0,-13.801 4.79,-20.703 16.34,-20.703 5.85,0 11.56,1.504 16.96,4.051 l 4.64,-12.754 c -6.9,-3.739 -15.3,-5.848 -25.35,-5.848 -20.09,0 -30.9,9.449 -30.9,33.906 0,26.699 14.7,39.746 34.96,39.746 7.05,0 13.35,-0.754 18.89,-3.156 l -3.75,-13.191"
         id="path36"
         style="fill:#ffffff;fill-opacity:1;fill-rule:nonzero;stroke:none" /><path
         d="m 1843.96,406.242 c -2.26,0.156 -3.91,0.301 -5.71,0.301 -6.3,0 -8.09,-1.348 -16.2,-14.246 l 0,-41.699 -18.14,0 0,70.945 14.39,1.203 c 1.06,-2.258 1.81,-9.297 2.1,-15.898 6.6,13.496 10.35,15.898 16.95,15.898 3.15,0 6.3,-0.449 8.55,-1.055 l -1.94,-15.449"
         id="path38"
         style="fill:#ffffff;fill-opacity:1;fill-rule:nonzero;stroke:none" /><path
         d="m 1886.85,409.992 c -9.9,0 -15.9,-8.097 -15.9,-23.547 0,-17.996 5.4,-24.004 15.3,-24.004 10.8,0 15.75,8.555 15.75,24.454 0,15.304 -4.35,23.097 -15.15,23.097 z m -1.8,-60.597 c -22.2,0 -33,11.554 -33,35.546 0,22.805 13.65,38.254 35.85,38.254 22.2,0 33,-10.949 33,-35.402 0,-22.344 -12.45,-38.398 -35.85,-38.398"
         id="path40"
         style="fill:#ffffff;fill-opacity:1;fill-rule:nonzero;stroke:none" /><path
         d="m 1957.65,349.395 c -9.6,0 -18.45,1.953 -26.4,5.703 l 3.45,13.496 c 7.8,-3.594 17.4,-5.848 24.29,-5.848 7.81,0 10.96,2.996 10.96,6.746 0,3.75 -1.36,6.153 -11.1,9.004 -20.71,5.996 -24.6,12.004 -24.6,22.344 0,13.508 11.1,22.5 27.45,22.5 8.85,0 16.65,-1.492 24.44,-5.242 l -4.49,-13.203 c -5.11,2.546 -13.95,4.355 -19.66,4.355 -7.5,0 -10.05,-3.008 -10.05,-6.758 0,-4.492 1.65,-6.301 13.35,-9.746 17.55,-5.402 21.75,-11.105 21.75,-20.996 0,-12.609 -9.3,-22.355 -29.39,-22.355"
         id="path42"
         style="fill:#ffffff;fill-opacity:1;fill-rule:nonzero;stroke:none" /><path
         d="m 2048.39,406.848 c -4.8,1.492 -9.75,2.097 -13.5,2.097 -12.75,0 -18.3,-7.5 -18.3,-24.148 0,-13.801 4.8,-20.703 16.35,-20.703 5.85,0 11.55,1.504 16.95,4.051 l 4.65,-12.754 c -6.9,-3.739 -15.3,-5.848 -25.35,-5.848 -20.1,0 -30.9,9.449 -30.9,33.906 0,26.699 14.7,39.746 34.95,39.746 7.05,0 13.35,-0.754 18.9,-3.156 l -3.75,-13.191"
         id="path44"
         style="fill:#ffffff;fill-opacity:1;fill-rule:nonzero;stroke:none" /><path
         d="m 2097.29,409.992 c -9.9,0 -15.9,-8.097 -15.9,-23.547 0,-17.996 5.4,-24.004 15.3,-24.004 10.8,0 15.75,8.555 15.75,24.454 0,15.304 -4.35,23.097 -15.15,23.097 z m -1.8,-60.597 c -22.2,0 -33,11.554 -33,35.546 0,22.805 13.65,38.254 35.85,38.254 22.2,0 33,-10.949 33,-35.402 0,-22.344 -12.45,-38.398 -35.85,-38.398"
         id="path46"
         style="fill:#ffffff;fill-opacity:1;fill-rule:nonzero;stroke:none" /><path
         d="m 2179.94,408.496 c -5.55,0 -10.5,-2.996 -14.39,-6.601 l 0,-36.895 c 2.99,-1.355 7.5,-2.402 11.55,-2.402 11.09,0 17.1,7.793 17.1,24.445 0,13.504 -4.81,21.453 -14.26,21.453 z m -2.55,-58.348 c -3.89,0 -9.15,0.45 -11.84,1.649 l 0,-30.75 -18.45,-1.047 0,101.543 15.9,1.203 c 0.9,-2.258 1.49,-5.547 1.79,-8.848 6.16,5.997 13.66,9.442 22.06,9.442 15.75,0 25.94,-10.352 25.94,-34.942 0,-20.847 -9.9,-38.25 -35.4,-38.25"
         id="path48"
         style="fill:#ffffff;fill-opacity:1;fill-rule:nonzero;stroke:none" /><path
         d="m 2253.29,377.148 c 1.06,-3.007 1.35,-5.554 1.35,-7.5 0,1.946 0.3,4.649 1.35,7.5 l 16.2,44.25 16.65,0 -34.2,-86.105 c -4.5,-11.395 -11.85,-16.047 -28.95,-16.941 l -2.85,13.191 c 12,1.359 15.45,3.605 17.7,9.004 l 4.35,10.644 -25.35,70.207 18.45,0 15.3,-44.25"
         id="path50"
         style="fill:#ffffff;fill-opacity:1;fill-rule:nonzero;stroke:none" /><path
         d="m 1051.96,284.191 c -3.14,0.75 -7.8,1.504 -10.5,1.504 -5.09,0 -6.45,-1.652 -6.45,-7.355 l 0,-16.942 15,0 -1.05,-13.203 -13.95,0 0,-57.597 -18.14,0 0,57.597 -9.16,0.594 1.06,12.305 8.1,0.304 0,14.696 c 0,16.047 6.29,23.398 21.6,23.398 6.14,0 12.15,-1.199 16.2,-2.547 l -2.71,-12.754"
         id="path52"
         style="fill:#ffffff;fill-opacity:1;fill-rule:nonzero;stroke:none" /><path
         d="m 1093.66,249.992 c -9.89,0 -15.9,-8.097 -15.9,-23.547 0,-17.996 5.4,-24.004 15.31,-24.004 10.8,0 15.75,8.555 15.75,24.454 0,15.304 -4.36,23.097 -15.16,23.097 z m -1.79,-60.597 c -22.2,0 -33,11.554 -33,35.546 0,22.801 13.65,38.254 35.85,38.254 22.19,0 32.99,-10.949 32.99,-35.402 0,-22.344 -12.45,-38.398 -35.84,-38.398"
         id="path54"
         style="fill:#ffffff;fill-opacity:1;fill-rule:nonzero;stroke:none" /><path
         d="m 1183.52,246.242 c -2.26,0.156 -3.91,0.301 -5.71,0.301 -6.3,0 -8.09,-1.348 -16.2,-14.246 l 0,-41.699 -18.14,0 0,70.945 14.39,1.199 c 1.06,-2.254 1.81,-9.293 2.1,-15.894 6.6,13.496 10.35,15.894 16.95,15.894 3.15,0 6.3,-0.445 8.55,-1.051 l -1.94,-15.449"
         id="path56"
         style="fill:#ffffff;fill-opacity:1;fill-rule:nonzero;stroke:none" /><path
         d="m 1315.05,190.598 -0.45,73.047 c -0.45,-2.551 -1.05,-4.797 -2.25,-7.5 l -27.9,-63.45 -12.59,0 -26.7,61.203 c -1.35,2.997 -1.96,4.95 -2.26,7.645 l -1.04,-70.945 -16.35,0 1.79,103.496 18.31,0 33.75,-76.653 34.79,76.653 18.15,0 1.2,-103.496 -18.45,0"
         id="path58"
         style="fill:#ffffff;fill-opacity:1;fill-rule:nonzero;stroke:none" /><path
         d="m 1365.61,211.301 c 0,-5.703 3.3,-9.309 9.15,-9.309 5.85,0 11.54,3.457 14.55,6.906 l 0,11.395 c -19.06,-1.348 -23.7,-3.594 -23.7,-8.992 z m 24.6,-12.61 c -6.01,-6.589 -13.21,-9.296 -22.2,-9.296 -10.8,0 -19.81,7.5 -19.81,21.152 0,10.195 6.01,17.101 41.25,19.797 0.15,3.601 0.15,6.746 0.15,10.351 0,6.446 -2.25,8.7 -7.65,8.7 -7.64,0 -16.49,-3.153 -23.54,-8.25 l -7.21,11.101 c 10.05,7.344 20.56,11.25 35.1,11.25 16.81,0 21.45,-8.699 21.45,-23.555 l 0,-29.394 c 0,-5.254 0.6,-6.004 10.2,-7.195 l -3,-13.352 c -2.69,-0.156 -5.24,-0.156 -7.34,-0.156 -10.35,0 -15.75,3.152 -17.4,8.847"
         id="path60"
         style="fill:#ffffff;fill-opacity:1;fill-rule:nonzero;stroke:none" /><path
         d="m 1449.76,189.395 c -12.6,0 -18.9,5.253 -18.9,18.156 l 0,40.789 -9,0.449 1.05,12.305 8.4,0.304 2.1,22.04 15.9,1.359 0,-23.399 20.99,0 -1.04,-13.203 -19.95,0 0,-39.746 c 0,-3.906 1.34,-5.254 5.25,-5.254 3.9,0 9.75,1.051 14.1,2.996 l 3.15,-12.148 c -5.26,-2.852 -12.75,-4.648 -22.05,-4.648"
         id="path62"
         style="fill:#ffffff;fill-opacity:1;fill-rule:nonzero;stroke:none" /><path
         d="m 1525.21,233.34 c 0,11.25 -4.06,16.359 -11.55,16.359 -8.25,0 -13.81,-5.402 -15,-16.359 l 26.55,0 z m -12.6,-43.797 c -20.55,0 -32.55,9.598 -32.55,33.453 0,24.445 12.9,40.051 35.55,40.051 19.19,0 25.94,-12.606 25.94,-32.551 0,-1.949 0,-4.351 -0.45,-8.101 l -43.04,0 c 0,-12.747 5.09,-19.043 17.1,-19.043 7.5,0 16.34,2.996 23.39,6.746 l 4.36,-12.149 c -8.25,-5.254 -19.2,-8.406 -30.3,-8.406"
         id="path64"
         style="fill:#ffffff;fill-opacity:1;fill-rule:nonzero;stroke:none" /><path
         d="m 1598.71,246.242 c -2.25,0.156 -3.91,0.301 -5.7,0.301 -6.3,0 -8.1,-1.348 -16.2,-14.246 l 0,-41.699 -18.15,0 0,70.945 14.4,1.199 c 1.05,-2.254 1.8,-9.293 2.1,-15.894 6.6,13.496 10.35,15.894 16.95,15.894 3.14,0 6.3,-0.445 8.54,-1.051 l -1.94,-15.449"
         id="path66"
         style="fill:#ffffff;fill-opacity:1;fill-rule:nonzero;stroke:none" /><path
         d="m 1610.86,190.598 0,70.644 18,1.055 0,-71.699 -18,0 z m -0.45,84.746 0,16.199 18.45,0 0,-16.199 -18.45,0"
         id="path68"
         style="fill:#ffffff;fill-opacity:1;fill-rule:nonzero;stroke:none" /><path
         d="m 1661.1,211.301 c 0,-5.703 3.3,-9.309 9.15,-9.309 5.85,0 11.56,3.457 14.55,6.906 l 0,11.395 c -19.05,-1.348 -23.7,-3.594 -23.7,-8.992 z m 24.6,-12.61 c -6,-6.589 -13.2,-9.296 -22.19,-9.296 -10.8,0 -19.81,7.5 -19.81,21.152 0,10.195 6.01,17.101 41.25,19.797 0.15,3.601 0.15,6.746 0.15,10.351 0,6.446 -2.25,8.7 -7.65,8.7 -7.65,0 -16.49,-3.153 -23.54,-8.25 l -7.21,11.101 c 10.05,7.344 20.56,11.25 35.11,11.25 16.79,0 21.44,-8.699 21.44,-23.555 l 0,-29.394 c 0,-5.254 0.6,-6.004 10.2,-7.195 l -3,-13.352 c -2.7,-0.156 -5.24,-0.156 -7.34,-0.156 -10.36,0 -15.76,3.152 -17.41,8.847"
         id="path70"
         style="fill:#ffffff;fill-opacity:1;fill-rule:nonzero;stroke:none" /><path
         d="m 1724.85,298.293 18,1.055 0,-89.106 c 0,-4.949 0.3,-6.148 4.36,-6.148 1.2,0 2.85,0 5.85,0.301 l 0.45,-12.743 c -3.3,-1.054 -9.46,-1.808 -14.86,-1.808 -9.29,0 -13.8,3.906 -13.8,13.957 l 0,94.492"
         id="path72"
         style="fill:#ffffff;fill-opacity:1;fill-rule:nonzero;stroke:none" /><path
         d="m 1787.1,189.395 c -9.6,0 -18.45,1.953 -26.4,5.703 l 3.45,13.496 c 7.8,-3.594 17.4,-5.852 24.3,-5.852 7.8,0 10.95,3 10.95,6.75 0,3.75 -1.35,6.153 -11.1,9.004 -20.7,5.996 -24.6,12 -24.6,22.344 0,13.508 11.1,22.5 27.45,22.5 8.85,0 16.65,-1.492 24.45,-5.242 l -4.5,-13.203 c -5.1,2.546 -13.95,4.351 -19.65,4.351 -7.5,0 -10.05,-3.004 -10.05,-6.754 0,-4.496 1.65,-6.301 13.35,-9.75 17.54,-5.398 21.74,-11.101 21.74,-20.996 0,-12.605 -9.29,-22.351 -29.39,-22.351"
         id="path74"
         style="fill:#ffffff;fill-opacity:1;fill-rule:nonzero;stroke:none" /><path
         d="m 1888.05,189.395 c -12.6,0 -21.91,2.097 -32.1,6.75 l 4.95,15.75 c 8.4,-3.75 19.65,-6.446 28.8,-6.446 11.84,0 18.14,5.246 18.14,12.442 0,7.656 -3.3,11.25 -18.75,15.754 -20.39,5.847 -29.39,12 -29.39,30.449 0,17.703 12.15,31.504 34.95,31.504 12.15,0 22.64,-2.403 30.29,-6.313 l -4.65,-14.539 c -7.34,2.996 -17.85,4.942 -24.44,4.942 -11.86,0 -16.81,-4.493 -16.81,-12.891 0,-7.352 2.56,-11.25 16.81,-15.449 25.64,-7.5 31.19,-15.157 31.19,-30.301 0,-17.695 -13.35,-31.652 -38.99,-31.652"
         id="path76"
         style="fill:#ffffff;fill-opacity:1;fill-rule:nonzero;stroke:none" /><path
         d="m 1989.44,246.848 c -4.79,1.492 -9.74,2.097 -13.49,2.097 -12.76,0 -18.3,-7.5 -18.3,-24.148 0,-13.801 4.79,-20.703 16.34,-20.703 5.85,0 11.56,1.504 16.96,4.051 l 4.65,-12.754 c -6.91,-3.739 -15.31,-5.848 -25.36,-5.848 -20.09,0 -30.89,9.449 -30.89,33.906 0,26.699 14.69,39.746 34.95,39.746 7.05,0 13.35,-0.754 18.89,-3.156 l -3.75,-13.191"
         id="path78"
         style="fill:#ffffff;fill-opacity:1;fill-rule:nonzero;stroke:none" /><path
         d="m 2007.6,190.598 0,70.644 18,1.055 0,-71.699 -18,0 z m -0.45,84.746 0,16.199 18.45,0 0,-16.199 -18.45,0"
         id="path80"
         style="fill:#ffffff;fill-opacity:1;fill-rule:nonzero;stroke:none" /><path
         d="m 2086.34,233.34 c 0,11.25 -4.05,16.359 -11.55,16.359 -8.25,0 -13.8,-5.402 -15,-16.359 l 26.55,0 z m -12.6,-43.797 c -20.55,0 -32.55,9.598 -32.55,33.453 0,24.445 12.9,40.051 35.55,40.051 19.2,0 25.95,-12.606 25.95,-32.551 0,-1.949 0,-4.351 -0.45,-8.101 l -43.05,0 c 0,-12.747 5.1,-19.043 17.1,-19.043 7.5,0 16.35,2.996 23.4,6.746 l 4.35,-12.149 c -8.25,-5.254 -19.2,-8.406 -30.3,-8.406"
         id="path82"
         style="fill:#ffffff;fill-opacity:1;fill-rule:nonzero;stroke:none" /><path
         d="m 2162.39,190.598 0,49.199 c 0,4.949 -1.5,8.094 -7.05,8.094 -4.65,0 -11.1,-3.301 -17.24,-9.149 l 0,-48.144 -18.31,0 0,70.945 15.9,1.055 c 0.9,-2.11 1.5,-6.602 1.8,-10.957 8.4,7.656 17.25,11.554 25.05,11.554 13.35,0 18.3,-6.457 18.3,-19.953 l 0,-52.644 -18.45,0"
         id="path84"
         style="fill:#ffffff;fill-opacity:1;fill-rule:nonzero;stroke:none" /><path
         d="m 2246.24,246.848 c -4.79,1.492 -9.75,2.097 -13.5,2.097 -12.75,0 -18.3,-7.5 -18.3,-24.148 0,-13.801 4.8,-20.703 16.35,-20.703 5.85,0 11.55,1.504 16.95,4.051 l 4.65,-12.754 c -6.9,-3.739 -15.3,-5.848 -25.35,-5.848 -20.1,0 -30.9,9.449 -30.9,33.906 0,26.699 14.7,39.746 34.95,39.746 7.05,0 13.35,-0.754 18.9,-3.156 l -3.75,-13.191"
         id="path86"
         style="fill:#ffffff;fill-opacity:1;fill-rule:nonzero;stroke:none" /><path
         d="m 2305.49,233.34 c 0,11.25 -4.05,16.359 -11.54,16.359 -8.26,0 -13.81,-5.402 -15,-16.359 l 26.54,0 z m -12.6,-43.797 c -20.55,0 -32.55,9.598 -32.55,33.453 0,24.445 12.9,40.051 35.55,40.051 19.2,0 25.95,-12.606 25.95,-32.551 0,-1.949 0,-4.351 -0.45,-8.101 l -43.05,0 c 0,-12.747 5.1,-19.043 17.1,-19.043 7.5,0 16.35,2.996 23.4,6.746 l 4.35,-12.149 c -8.25,-5.254 -19.2,-8.406 -30.3,-8.406"
         id="path88"
         style="fill:#ffffff;fill-opacity:1;fill-rule:nonzero;stroke:none" /><path
         d="m 1055.12,29.6992 c -28.35,0 -38.25,13.3477 -38.25,39.4414 l 0,63.3004 12.45,0 0,-62.5465 c 0,-20.2461 6.74,-30 26.54,-30 20.56,0 27.61,10.8008 27.61,31.3477 l 0,61.1988 11.84,0 0,-61.3472 c 0,-24.6016 -12.45,-41.3946 -40.19,-41.3946"
         id="path90"
         style="fill:#ffffff;fill-opacity:1;fill-rule:nonzero;stroke:none" /><path
         d="m 1162.36,30.5977 0,50.3984 c 0,5.9961 -1.94,10.8008 -9.29,10.8008 -5.85,0 -14.7,-4.1992 -22.5,-12 l 0,-49.1992 -12.01,0 0,69.7463 10.21,0.898 c 0.9,-1.9451 1.49,-6.8943 1.65,-11.9959 9.6,8.9961 18.45,12.6019 26.85,12.6019 12.9,0 17.24,-6.4574 17.24,-19.055 l 0,-52.1953 -12.15,0"
         id="path92"
         style="fill:#ffffff;fill-opacity:1;fill-rule:nonzero;stroke:none" /><path
         d="m 1197.91,30.5977 0,69.7463 12,0.75 0,-70.4963 -12,0 z m -0.74,85.6443 0,11.551 13.35,0 0,-11.551 -13.35,0"
         id="path94"
         style="fill:#ffffff;fill-opacity:1;fill-rule:nonzero;stroke:none" /><path
         d="m 1254.76,49.4922 c 0.89,-3 1.2,-5.0977 1.2,-7.0508 0,1.9531 0.45,4.3555 1.5,7.0508 l 19.94,50.7028 11.41,0 -28.51,-69.5973 -10.34,0 -26.55,69.5973 12.6,0 18.75,-50.7028"
         id="path96"
         style="fill:#ffffff;fill-opacity:1;fill-rule:nonzero;stroke:none" /><path
         d="m 1343.86,74.6992 c 0,11.25 -4.95,17.8399 -14.1,17.8399 -10.8,0 -18.45,-6.4453 -20.1,-19.4922 l 34.2,0 0,1.6523 z m -16.8,-45 c -17.7,0 -29.85,8.8477 -29.85,32.2461 0,25.9453 13.04,39.7457 33.6,39.7457 15.45,0 23.85,-10.8004 23.85,-26.0933 0,-3.1563 0,-6.1524 -0.45,-10.9493 l -45.15,0 c 0,-17.8515 6.59,-25.3515 20.85,-25.3515 7.35,0 14.54,2.6953 22.04,7.3437 l 3.61,-8.0937 c -7.81,-5.5508 -16.65,-8.8477 -28.5,-8.8477"
         id="path98"
         style="fill:#ffffff;fill-opacity:1;fill-rule:nonzero;stroke:none" /><path
         d="m 1410.3,90.8906 c -2.24,0.1563 -3.15,0.1563 -4.34,0.1563 -7.21,0 -9.31,-1.5039 -19.81,-20.2539 l 0,-40.1953 -12,0 0,69.7463 9.45,1.054 c 1.06,-2.2574 1.65,-10.3511 1.8,-18.7496 7.66,16.043 11.7,19.0426 18.75,19.0426 2.85,0 5.7,-0.449 7.21,-0.898 l -1.06,-9.9024"
         id="path100"
         style="fill:#ffffff;fill-opacity:1;fill-rule:nonzero;stroke:none" /><path
         d="m 1442.41,29.3945 c -9,0 -17.1,2.0977 -24.15,5.9961 l 3,9.4532 c 7.65,-3.75 15.6,-6.1524 22.65,-6.1524 10.35,0 14.24,4.3555 14.24,9.3047 0,5.2461 -1.79,8.2461 -14.84,12.4531 -17.85,5.6953 -21.9,10.9492 -21.9,20.9961 0,11.6992 9.45,20.4027 26.1,20.4027 8.7,0 15.74,-1.653 21.45,-4.9535 l -3.31,-9.1523 c -4.34,2.25 -12.29,4.0547 -19.04,4.0547 -10.35,0 -13.35,-4.1992 -13.35,-9.4531 0,-5.8516 2.1,-8.0977 15.45,-12.293 17.7,-5.7031 21.14,-11.4063 21.14,-20.4024 0,-10.6562 -7.79,-20.2539 -27.44,-20.2539"
         id="path102"
         style="fill:#ffffff;fill-opacity:1;fill-rule:nonzero;stroke:none" /><path
         d="m 1488.45,30.5977 0,69.7463 12,0.75 0,-70.4963 -12,0 z m -0.74,85.6443 0,11.551 13.34,0 0,-11.551 -13.34,0"
         id="path104"
         style="fill:#ffffff;fill-opacity:1;fill-rule:nonzero;stroke:none" /><path
         d="m 1542.16,29.543 c -11.41,0 -16.81,5.1054 -16.81,16.8047 l 0,44.6992 -9.44,0.4453 0.74,8.2539 8.86,0.4489 1.65,22.5 10.34,1.047 0,-23.398 22.95,0 -0.74,-9.4534 -22.21,0 0,-43.4961 c 0,-5.8515 1.95,-7.9492 7.5,-7.9492 4.5,0 9.15,1.0508 14.71,3.4453 l 2.55,-8.5429 c -5.56,-3.1563 -12.31,-4.8047 -20.1,-4.8047"
         id="path106"
         style="fill:#ffffff;fill-opacity:1;fill-rule:nonzero;stroke:none" /><path
         d="m 1597.8,49.6484 c 1.05,-3.0078 1.2,-5.2539 1.2,-7.207 0,1.9531 0.45,4.5039 1.5,7.207 l 19.95,50.5466 11.4,0 -35.25,-85.4958 C 1592.55,4.79688 1586.7,0.742188 1571.1,0 l -1.65,8.99219 c 11.7,1.20311 14.7,3.15621 17.25,9.00391 l 5.85,13.6562 -25.65,68.5427 12.3,0 18.6,-50.5466"
         id="path108"
         style="fill:#ffffff;fill-opacity:1;fill-rule:nonzero;stroke:none" /><path
         d="m 1701.6,92.6953 c -12.29,0 -19.95,-9.9023 -19.95,-27.5976 0,-19.9493 7.95,-26.4063 19.65,-26.4063 12.9,0 19.5,10.6563 19.5,27.6094 0,16.043 -5.4,26.3945 -19.2,26.3945 z m -1.2,-63.1523 c -20.55,0 -31.04,10.9531 -31.04,34.5 0,22.3554 12.74,37.805 33.44,37.805 19.95,0 30.45,-10.5003 30.45,-34.6488 C 1733.25,45 1721.7,29.543 1700.4,29.543"
         id="path110"
         style="fill:#ffffff;fill-opacity:1;fill-rule:nonzero;stroke:none" /><path
         d="m 1784.84,127.344 c -2.39,0.597 -7.5,1.047 -10.19,1.047 -7.36,0 -9.75,-3.594 -9.75,-12.149 l 0,-16.203 15.3,0 -0.75,-9.2968 -14.55,0 0,-60.1445 -11.85,0 0,60 -9.75,0.75 0.75,8.0976 9,0.5937 0,15.305 c 0,15.301 6.6,22.351 20.25,22.351 4.35,0 10.8,-0.91 13.64,-1.804 l -2.1,-8.547"
         id="path112"
         style="fill:#ffffff;fill-opacity:1;fill-rule:nonzero;stroke:none" /><path
         d="m 1842.29,70.793 32.1,0 -13.79,40.801 c -1.06,3.152 -1.51,6.148 -1.51,8.094 0,-1.946 -0.74,-5.243 -1.8,-8.094 l -15,-40.801 z m 45.9,-40.1953 -10.94,31.1992 -37.95,0 -12.01,-31.1992 -12,0 38.56,101.8433 11.7,0 36.14,-101.8433 -13.5,0"
         id="path114"
         style="fill:#ffffff;fill-opacity:1;fill-rule:nonzero;stroke:none" /><path
         d="m 1959.89,30.5977 0,50.3984 c 0,5.9961 -1.94,10.8008 -9.29,10.8008 -5.85,0 -14.7,-4.1992 -22.5,-12 l 0,-49.1992 -12.01,0 0,69.7463 10.21,0.898 c 0.9,-1.9451 1.49,-6.8943 1.65,-11.9959 9.6,8.9961 18.45,12.6019 26.84,12.6019 12.91,0 17.25,-6.4574 17.25,-19.055 l 0,-52.1953 -12.15,0"
         id="path116"
         style="fill:#ffffff;fill-opacity:1;fill-rule:nonzero;stroke:none" /><path
         d="m 2013.45,29.543 c -11.41,0 -16.81,5.1054 -16.81,16.8047 l 0,44.6992 -9.44,0.4453 0.74,8.2539 8.86,0.4489 1.65,22.5 10.34,1.047 0,-23.398 22.95,0 -0.74,-9.4534 -22.21,0 0,-43.4961 c 0,-5.8515 1.95,-7.9492 7.5,-7.9492 4.5,0 9.15,1.0508 14.71,3.4453 l 2.54,-8.5429 c -5.55,-3.1563 -12.3,-4.8047 -20.09,-4.8047"
         id="path118"
         style="fill:#ffffff;fill-opacity:1;fill-rule:nonzero;stroke:none" /><path
         d="m 2069.69,30.5977 -9.9,0 -21.45,69.5973 11.85,0 14.85,-50.2536 c 0.9,-2.9961 1.2,-5.0976 1.2,-7.0508 0,1.9532 0.6,4.5039 1.49,7.0508 l 16.36,50.2536 10.05,0.598 16.8,-50.8516 c 1.04,-2.9961 1.35,-5.0976 1.35,-7.0508 0,1.9532 0.44,4.5039 1.34,7.0508 l 16.2,50.2536 10.66,0 -23.4,-69.5973 -10.35,0 -17.1,50.5468 c -0.9,2.5469 -1.2,5.0977 -1.2,7.0508 0,-1.9531 -0.45,-4.3476 -1.35,-7.0508 l -17.4,-50.5468"
         id="path120"
         style="fill:#ffffff;fill-opacity:1;fill-rule:nonzero;stroke:none" /><path
         d="m 2196.14,74.6992 c 0,11.25 -4.95,17.8399 -14.1,17.8399 -10.8,0 -18.45,-6.4453 -20.1,-19.4922 l 34.2,0 0,1.6523 z m -16.79,-45 c -17.71,0 -29.86,8.8477 -29.86,32.2461 0,25.9453 13.05,39.7457 33.61,39.7457 15.44,0 23.84,-10.8004 23.84,-26.0933 0,-3.1563 0,-6.1524 -0.45,-10.9493 l -45.14,0 c 0,-17.8515 6.59,-25.3515 20.85,-25.3515 7.34,0 14.54,2.6953 22.04,7.3437 l 3.6,-8.0937 c -7.8,-5.5508 -16.65,-8.8477 -28.49,-8.8477"
         id="path122"
         style="fill:#ffffff;fill-opacity:1;fill-rule:nonzero;stroke:none" /><path
         d="m 2262.59,90.8906 c -2.25,0.1563 -3.16,0.1563 -4.35,0.1563 -7.2,0 -9.3,-1.5039 -19.8,-20.2539 l 0,-40.1953 -12,0 0,69.7463 9.45,1.054 c 1.05,-2.2574 1.65,-10.3511 1.8,-18.7496 7.65,16.043 11.69,19.0426 18.75,19.0426 2.85,0 5.7,-0.449 7.2,-0.898 l -1.05,-9.9024"
         id="path124"
         style="fill:#ffffff;fill-opacity:1;fill-rule:nonzero;stroke:none" /><path
         d="m 2307.44,91.9453 c -7.5,0 -14.25,-4.5039 -18.45,-9.1523 l 0,-40.6446 c 3.9,-1.9531 9.3,-3.6015 14.7,-3.6015 13.5,0 20.85,10.1953 20.85,28.3476 0,15 -5.1,25.0508 -17.1,25.0508 z m -4.2,-62.1015 c -5.7,0 -10.5,0.7539 -14.25,2.8515 l 0,-31.20311 -12.3,-0.750002 0,99.601812 10.2,1.054 c 0.9,-2.1011 1.5,-5.8511 1.65,-9.3082 5.85,6.0079 13.8,9.7582 22.35,9.7582 16.65,0 26.1,-10.8011 26.1,-34.055 0,-21.1524 -10.5,-37.9492 -33.75,-37.9492"
         id="path126"
         style="fill:#ffffff;fill-opacity:1;fill-rule:nonzero;stroke:none" /><path
         d="m 127.301,206.16 26.996,47.903 -10.602,-48.196 -16.394,0.293"
         id="path128"
         style="fill:#ffffff;fill-opacity:1;fill-rule:nonzero;stroke:none" /><path
         d="m 257.895,225.969 35.203,39.695 -7.801,-39.004 -27.402,-0.691"
         id="path130"
         style="fill:#ffffff;fill-opacity:1;fill-rule:nonzero;stroke:none" /><path
         d="m 401.5,277.266 -29.398,0 -50.602,-91.903 -31.5,0.301 c 0,0 -0.305,6.797 -10.504,10.899 l 1.602,8.3 -41,0 -17.102,-19.199 -46.398,0.703 36.199,68.399 -54.699,-68.7 -80.6996,0 -63.1992,112.403 81.2969,-0.703 11.0039,-18.399 -55.7031,0 13.6015,-24 48.8986,-0.601 8.203,-14.102 -2.402,-5.098 -43.0003,-0.703 15,-28.3 12.3003,-0.403 49.899,92.004 29.101,0 -15.402,-70.801 56,71.106 34.602,-0.703 -57.102,-108 91.606,108.398 26.996,0.305 -19.801,-109.699 47.5,89.195 -28.699,0.703 10.199,17.797 82.699,0 -9.496,-19.199 z M 264.098,143.469 c -14.496,0 -26.203,11.699 -26.203,26.094 0,14.5 11.707,26.101 26.203,26.101 14.398,0 26.101,-11.601 26.101,-26.101 0,-14.395 -11.703,-26.094 -26.101,-26.094 z M 155,103.965 c -6.801,-1.297 -57.4023,-17.8048 -87.1055,17.101 -22.5976,36.602 -4.8007,79.598 -4.8007,79.598 l 5.1054,-8.496 c 1,-9.598 -12.3008,-44.402 15.6992,-70.105 31.1016,-21.196 50.3006,-11.895 78.2966,-8.497 26.004,4.403 76.606,39.004 76.606,39.004 l 3.097,-4.101 c 0,0 -41.101,-34.602 -86.898,-44.504 z m 55.395,258.801 c 38.605,20.101 63.902,22.5 73.5,22.5 42.406,-1.7 46.5,-11.598 56.003,-19.5 22.602,-27.297 11,-63.899 11,-63.899 l -8.597,0.399 c 0,0 17.797,89.898 -87.102,71.402 -69.101,-15.703 -134.004,-87.5 -134.004,-87.5 l -7.898,-0.305 c 0,0 38.004,43.399 97.098,76.903 z m 193.5,91.898 -382.5981,0 C 9.60156,454.664 0,445.168 0,433.469 L 0,50.7617 C 0,39.0625 9.60156,29.4648 21.2969,29.4648 l 382.5981,0 c 11.703,0 21.304,9.5977 21.304,21.2969 l 0,382.7073 c 0,11.699 -9.601,21.195 -21.304,21.195"
         id="path132"
         style="fill:#ffffff;fill-opacity:1;fill-rule:nonzero;stroke:none" /></g></g></svg>