<?xml version="1.0" encoding="UTF-8" standalone="no"?>
<!-- Created with Inkscape (http://www.inkscape.org/) -->

<svg
   xmlns:dc="http://purl.org/dc/elements/1.1/"
   xmlns:cc="http://creativecommons.org/ns#"
   xmlns:rdf="http://www.w3.org/1999/02/22-rdf-syntax-ns#"
   xmlns:svg="http://www.w3.org/2000/svg"
   xmlns="http://www.w3.org/2000/svg"
   xmlns:sodipodi="http://sodipodi.sourceforge.net/DTD/sodipodi-0.dtd"
   xmlns:inkscape="http://www.inkscape.org/namespaces/inkscape"
   id="svg2"
   version="1.1"
   inkscape:version="0.48.5 r10040"
   width="213.525"
   height="56.4875"
   xml:space="preserve"
   sodipodi:docname="TextLogoCMT.svg"><metadata
     id="metadata8"><rdf:RDF><cc:Work
         rdf:about=""><dc:format>image/svg+xml</dc:format><dc:type
           rdf:resource="http://purl.org/dc/dcmitype/StillImage" /><dc:title></dc:title></cc:Work></rdf:RDF></metadata><defs
     id="defs6" /><sodipodi:namedview
     pagecolor="#ffffff"
     bordercolor="#666666"
     borderopacity="1"
     objecttolerance="10"
     gridtolerance="10"
     guidetolerance="10"
     inkscape:pageopacity="0"
     inkscape:pageshadow="2"
     inkscape:window-width="1874"
     inkscape:window-height="1060"
     id="namedview4"
     showgrid="false"
     inkscape:zoom="1.648519"
     inkscape:cx="106.7625"
     inkscape:cy="28.547052"
     inkscape:window-x="-2"
     inkscape:window-y="-3"
     inkscape:window-maximized="1"
     inkscape:current-layer="g10" /><g
     id="g10"
     inkscape:groupmode="layer"
     inkscape:label="ink_ext_XXXXXX"
     transform="matrix(1.25,0,0,-1.25,0,56.4875)"><path
       inkscape:connector-curvature="0"
       id="path14"
       style="fill:#ffffff;fill-opacity:1;fill-rule:nonzero;stroke:none"
       d="m 59.9395,19.4004 c -0.7266,0 -1.1661,-0.5938 -1.1661,-1.7274 0,-1.3195 0.3946,-1.7597 1.1211,-1.7597 0.793,0 1.1563,0.6269 1.1563,1.793 0,1.1218 -0.3203,1.6941 -1.1113,1.6941 z m -0.1329,-4.4441 c -1.6289,0 -2.4199,0.8464 -2.4199,2.6074 0,1.6718 1.002,2.8054 2.6289,2.8054 1.6289,0 2.4199,-0.8035 2.4199,-2.5964 0,-1.6399 -0.9121,-2.8164 -2.6289,-2.8164" /><path
       inkscape:connector-curvature="0"
       id="path16"
       style="fill:#ffffff;fill-opacity:1;fill-rule:nonzero;stroke:none"
       d="m 66.7148,15.0441 0,3.6082 c 0,0.3633 -0.1113,0.5938 -0.5175,0.5938 -0.3418,0 -0.8145,-0.241 -1.2657,-0.6707 l 0,-3.5313 -1.3418,0 0,5.2039 1.1661,0.0762 c 0.0664,-0.1531 0.1093,-0.4832 0.1328,-0.8027 0.6152,0.5613 1.2636,0.8476 1.8359,0.8476 0.9805,0 1.3438,-0.4738 1.3438,-1.4636 l 0,-3.8614 -1.3536,0" /><path
       inkscape:connector-curvature="0"
       id="path18"
       style="fill:#ffffff;fill-opacity:1;fill-rule:nonzero;stroke:none"
       d="m 72.6328,19.2141 c -0.2539,0.1093 -0.539,0.1648 -0.8476,0.1648 -0.7364,0 -1.2325,-0.4949 -1.2325,-1.7937 0,-1.2207 0.3868,-1.595 1.0567,-1.595 0.4082,0 0.7929,0.209 1.0234,0.3957 l 0,2.8282 z m 0.1426,-4.2246 c -0.0547,0.1425 -0.0977,0.4179 -0.0977,0.6484 -0.3964,-0.3848 -0.8925,-0.6711 -1.5195,-0.6711 -1.4512,0 -1.9687,0.957 -1.9687,2.5305 0,1.8379 0.9902,2.8496 2.4648,2.8496 0.3848,0 0.7031,-0.0442 0.9785,-0.1653 l 0,2.7618 1.3418,0.0879 0,-7.9434 -1.1992,-0.0984" /><path
       inkscape:connector-curvature="0"
       id="path20"
       style="fill:#ffffff;fill-opacity:1;fill-rule:nonzero;stroke:none"
       d="m 78.4512,18.1797 c 0,0.8254 -0.2969,1.1992 -0.8457,1.1992 -0.6055,0 -1.0137,-0.3965 -1.1016,-1.1992 l 1.9473,0 z m -0.9239,-3.2129 c -1.5058,0 -2.3867,0.7043 -2.3867,2.4531 0,1.7942 0.9453,2.9375 2.6074,2.9375 1.4083,0 1.9024,-0.9238 1.9024,-2.3867 0,-0.1434 0,-0.3191 -0.0332,-0.5945 l -3.1563,0 c 0,-0.9348 0.3731,-1.3965 1.2539,-1.3965 0.5508,0 1.1993,0.2195 1.7168,0.4949 L 79.75,15.5828 c -0.6055,-0.3844 -1.4082,-0.616 -2.2227,-0.616" /><path
       inkscape:connector-curvature="0"
       id="path22"
       style="fill:#ffffff;fill-opacity:1;fill-rule:nonzero;stroke:none"
       d="m 84.0293,15.0441 0,3.6082 c 0,0.3633 -0.1113,0.5938 -0.5176,0.5938 -0.3418,0 -0.8144,-0.241 -1.2656,-0.6707 l 0,-3.5313 -1.3418,0 0,5.2039 1.166,0.0762 c 0.0664,-0.1531 0.1094,-0.4832 0.1328,-0.8027 0.6153,0.5613 1.2637,0.8476 1.836,0.8476 0.9804,0 1.3437,-0.4738 1.3437,-1.4636 l 0,-3.8614 -1.3535,0" /><path
       inkscape:connector-curvature="0"
       id="path24"
       style="fill:#ffffff;fill-opacity:1;fill-rule:nonzero;stroke:none"
       d="m 88.3402,14.9563 c -0.7031,0 -1.3535,0.1425 -1.9359,0.4179 l 0.252,0.9903 c 0.5726,-0.2649 1.2777,-0.429 1.7835,-0.429 0.5723,0 0.8028,0.22 0.8028,0.4942 0,0.2754 -0.0996,0.4512 -0.8145,0.6601 -1.5176,0.4407 -1.8051,0.8809 -1.8051,1.6399 0,0.9902 0.8149,1.6504 2.0141,1.6504 0.6504,0 1.2207,-0.1106 1.793,-0.3848 L 90.1,19.0266 c -0.373,0.1875 -1.0215,0.3191 -1.4414,0.3191 -0.5488,0 -0.7363,-0.2195 -0.7363,-0.4949 0,-0.3305 0.1211,-0.4621 0.9785,-0.7149 1.2871,-0.3964 1.5957,-0.8144 1.5957,-1.541 0,-0.9238 -0.6817,-1.6386 -2.1563,-1.6386" /><path
       inkscape:connector-curvature="0"
       id="path26"
       style="fill:#ffffff;fill-opacity:1;fill-rule:nonzero;stroke:none"
       d="m 94.6332,18.1797 c 0,0.8254 -0.2969,1.1992 -0.8477,1.1992 -0.6054,0 -1.0117,-0.3965 -1.0996,-1.1992 l 1.9473,0 z m -0.9238,-3.2129 c -1.5078,0 -2.3887,0.7043 -2.3887,2.4531 0,1.7942 0.9473,2.9375 2.6074,2.9375 1.4082,0 1.9043,-0.9238 1.9043,-2.3867 0,-0.1434 0,-0.3191 -0.0332,-0.5945 l -3.1582,0 c 0,-0.9348 0.375,-1.3965 1.2559,-1.3965 0.5488,0 1.1972,0.2195 1.7148,0.4949 l 0.3203,-0.8918 c -0.6054,-0.3844 -1.4082,-0.616 -2.2226,-0.616" /><path
       inkscape:connector-curvature="0"
       id="path28"
       style="fill:#ffffff;fill-opacity:1;fill-rule:nonzero;stroke:none"
       d="m 100.233,19.2141 c -0.2541,0.1093 -0.5412,0.1648 -0.8478,0.1648 -0.7383,0 -1.2325,-0.4949 -1.2325,-1.7937 0,-1.2207 0.3848,-1.595 1.0567,-1.595 0.4062,0 0.7906,0.209 1.0236,0.3957 l 0,2.8282 z m 0.142,-4.2246 c -0.054,0.1425 -0.099,0.4179 -0.099,0.6484 -0.3967,-0.3848 -0.8908,-0.6711 -1.5178,-0.6711 -1.4531,0 -1.9707,0.957 -1.9707,2.5305 0,1.8379 0.9902,2.8496 2.4648,2.8496 0.3848,0 0.7051,-0.0442 0.9807,-0.1653 l 0,2.7618 1.342,0.0879 0,-7.9434 -1.2,-0.0984" /><path
       inkscape:connector-curvature="0"
       id="path30"
       style="fill:#ffffff;fill-opacity:1;fill-rule:nonzero;stroke:none"
       d="m 111.793,15.0441 -0.033,5.3575 c -0.033,-0.1868 -0.078,-0.352 -0.166,-0.55 l -2.045,-4.6532 -0.924,0 -1.958,4.4883 c -0.1,0.2196 -0.143,0.3629 -0.167,0.5613 l -0.076,-5.2039 -1.199,0 0.133,7.5907 1.342,0 2.474,-5.6211 2.553,5.6211 1.332,0 0.088,-7.5907 -1.354,0" /><path
       inkscape:connector-curvature="0"
       id="path32"
       style="fill:#ffffff;fill-opacity:1;fill-rule:nonzero;stroke:none"
       d="m 115.499,16.5625 c 0,-0.418 0.242,-0.6824 0.671,-0.6824 0.428,0 0.848,0.2527 1.067,0.5058 l 0,0.8368 c -1.397,-0.0997 -1.738,-0.2649 -1.738,-0.6602 z m 1.804,-0.9246 c -0.439,-0.4836 -0.969,-0.6816 -1.629,-0.6816 -0.791,0 -1.451,0.5496 -1.451,1.5507 0,0.7481 0.44,1.2547 3.026,1.452 0.009,0.2648 0.009,0.4953 0.009,0.7598 0,0.4726 -0.164,0.6378 -0.56,0.6378 -0.561,0 -1.209,-0.2304 -1.727,-0.6046 l -0.529,0.8136 c 0.738,0.5391 1.508,0.825 2.576,0.825 1.231,0 1.572,-0.6375 1.572,-1.7273 l 0,-2.1563 c 0,-0.3847 0.045,-0.4394 0.748,-0.5273 L 119.118,15 c -0.198,-0.0105 -0.385,-0.0105 -0.539,-0.0105 -0.758,0 -1.155,0.2304 -1.276,0.6484" /><path
       inkscape:connector-curvature="0"
       id="path34"
       style="fill:#ffffff;fill-opacity:1;fill-rule:nonzero;stroke:none"
       d="m 121.67,14.9563 c -0.923,0 -1.386,0.3847 -1.386,1.3308 l 0,2.9922 -0.66,0.0332 0.078,0.9023 0.615,0.0215 0.154,1.6172 1.166,0.0996 0,-1.7168 1.541,0 -0.078,-0.9675 -1.463,0 0,-2.9153 c 0,-0.2859 0.1,-0.3855 0.385,-0.3855 0.287,0 0.715,0.0769 1.035,0.2207 l 0.231,-0.8918 c -0.385,-0.209 -0.936,-0.3406 -1.618,-0.3406" /><path
       inkscape:connector-curvature="0"
       id="path36"
       style="fill:#ffffff;fill-opacity:1;fill-rule:nonzero;stroke:none"
       d="m 125.674,14.9563 c -0.924,0 -1.386,0.3847 -1.386,1.3308 l 0,2.9922 -0.661,0.0332 0.079,0.9023 0.615,0.0215 0.154,1.6172 1.166,0.0996 0,-1.7168 1.541,0 -0.078,-0.9675 -1.463,0 0,-2.9153 c 0,-0.2859 0.1,-0.3855 0.385,-0.3855 0.287,0 0.715,0.0769 1.035,0.2207 l 0.231,-0.8918 c -0.385,-0.209 -0.936,-0.3406 -1.618,-0.3406" /><path
       inkscape:connector-curvature="0"
       id="path38"
       style="fill:#ffffff;fill-opacity:1;fill-rule:nonzero;stroke:none"
       d="m 131.208,18.1797 c 0,0.8254 -0.297,1.1992 -0.848,1.1992 -0.606,0 -1.012,-0.3965 -1.1,-1.1992 l 1.948,0 z m -0.924,-3.2129 c -1.508,0 -2.389,0.7043 -2.389,2.4531 0,1.7942 0.947,2.9375 2.607,2.9375 1.409,0 1.905,-0.9238 1.905,-2.3867 0,-0.1434 0,-0.3191 -0.033,-0.5945 l -3.159,0 c 0,-0.9348 0.375,-1.3965 1.256,-1.3965 0.549,0 1.197,0.2195 1.715,0.4949 l 0.32,-0.8918 c -0.605,-0.3844 -1.408,-0.616 -2.222,-0.616" /><path
       inkscape:connector-curvature="0"
       id="path40"
       style="fill:#ffffff;fill-opacity:1;fill-rule:nonzero;stroke:none"
       d="m 136.596,19.1262 c -0.164,0.0105 -0.285,0.0215 -0.418,0.0215 -0.461,0 -0.594,-0.0989 -1.187,-1.045 l 0,-3.0586 -1.33,0 0,5.2039 1.054,0.0879 c 0.078,-0.1648 0.133,-0.6824 0.155,-1.166 0.484,0.9903 0.759,1.166 1.244,1.166 0.23,0 0.461,-0.0332 0.627,-0.0769 l -0.145,-1.1328" /><path
       inkscape:connector-curvature="0"
       id="path42"
       style="fill:#ffffff;fill-opacity:1;fill-rule:nonzero;stroke:none"
       d="m 144.958,21.5793 -2.223,0 0,-6.5352 -1.375,0 0,6.5352 -2.332,0 0.088,1.0555 5.929,0 -0.087,-1.0555" /><path
       inkscape:connector-curvature="0"
       id="path44"
       style="fill:#ffffff;fill-opacity:1;fill-rule:nonzero;stroke:none"
       d="m 148.42,15.0441 0,3.6082 c 0,0.3633 -0.109,0.5938 -0.517,0.5938 -0.34,0 -0.824,-0.241 -1.264,-0.6707 l 0,-3.5313 -1.342,0 0,7.8993 1.33,0.0769 0,-3.4656 c 0.639,0.5605 1.233,0.8144 1.805,0.8144 0.979,0 1.342,-0.4738 1.342,-1.4636 l 0,-3.8614 -1.354,0" /><path
       inkscape:connector-curvature="0"
       id="path46"
       style="fill:#ffffff;fill-opacity:1;fill-rule:nonzero;stroke:none"
       d="m 154.208,18.1797 c 0,0.8254 -0.297,1.1992 -0.848,1.1992 -0.606,0 -1.012,-0.3965 -1.1,-1.1992 l 1.948,0 z m -0.924,-3.2129 c -1.508,0 -2.389,0.7043 -2.389,2.4531 0,1.7942 0.947,2.9375 2.607,2.9375 1.409,0 1.905,-0.9238 1.905,-2.3867 0,-0.1434 0,-0.3191 -0.033,-0.5945 l -3.159,0 c 0,-0.9348 0.375,-1.3965 1.256,-1.3965 0.549,0 1.197,0.2195 1.715,0.4949 l 0.32,-0.8918 c -0.605,-0.3844 -1.408,-0.616 -2.222,-0.616" /><path
       inkscape:connector-curvature="0"
       id="path48"
       style="fill:#ffffff;fill-opacity:1;fill-rule:nonzero;stroke:none"
       d="m 158.915,19.4004 c -0.727,0 -1.166,-0.5938 -1.166,-1.7274 0,-1.3195 0.396,-1.7597 1.123,-1.7597 0.791,0 1.154,0.6269 1.154,1.793 0,1.1218 -0.318,1.6941 -1.111,1.6941 z m -0.131,-4.4441 c -1.629,0 -2.422,0.8464 -2.422,2.6074 0,1.6718 1.002,2.8054 2.631,2.8054 1.627,0 2.42,-0.8035 2.42,-2.5964 0,-1.6399 -0.914,-2.8164 -2.629,-2.8164" /><path
       inkscape:connector-curvature="0"
       id="path50"
       style="fill:#ffffff;fill-opacity:1;fill-rule:nonzero;stroke:none"
       d="m 165.504,19.1262 c -0.166,0.0105 -0.285,0.0215 -0.418,0.0215 -0.462,0 -0.593,-0.0989 -1.187,-1.045 l 0,-3.0586 -1.332,0 0,5.2039 1.057,0.0879 c 0.076,-0.1648 0.13,-0.6824 0.154,-1.166 0.482,0.9903 0.758,1.166 1.242,1.166 0.23,0 0.463,-0.0332 0.627,-0.0769 l -0.143,-1.1328" /><path
       inkscape:connector-curvature="0"
       id="path52"
       style="fill:#ffffff;fill-opacity:1;fill-rule:nonzero;stroke:none"
       d="m 168.209,16.9914 c 0.077,-0.2199 0.1,-0.4074 0.1,-0.55 0,0.1426 0.022,0.341 0.098,0.55 l 1.189,3.2449 1.221,0 -2.508,-6.3144 c -0.33,-0.836 -0.869,-1.1778 -2.125,-1.243 l -0.209,0.9676 c 0.881,0.0996 1.135,0.2648 1.299,0.6601 l 0.318,0.7813 -1.857,5.1484 1.351,0 1.123,-3.2449" /><path
       inkscape:connector-curvature="0"
       id="path54"
       style="fill:#ffffff;fill-opacity:1;fill-rule:nonzero;stroke:none"
       d="m 53.9668,2.17773 c -2.0801,0 -2.8066,0.97969 -2.8066,2.89375 l 0,4.64258 0.914,0 0,-4.58711 c 0,-1.48515 0.4942,-2.20117 1.9473,-2.20117 1.5058,0 2.0234,0.79297 2.0234,2.3 l 0,4.48828 0.8692,0 0,-4.49922 c 0,-1.80468 -0.9121,-3.03711 -2.9473,-3.03711" /><path
       inkscape:connector-curvature="0"
       id="path56"
       style="fill:#ffffff;fill-opacity:1;fill-rule:nonzero;stroke:none"
       d="m 61.832,2.24414 0,3.69649 c 0,0.44023 -0.1445,0.79179 -0.6836,0.79179 -0.4277,0 -1.0781,-0.30781 -1.6504,-0.87969 l 0,-3.60859 -0.8789,0 0,5.11641 0.7481,0.06523 c 0.0664,-0.14258 0.1094,-0.50586 0.1211,-0.87969 0.7031,0.66016 1.3535,0.92383 1.9687,0.92383 0.9453,0 1.2657,-0.47265 1.2657,-1.39765 l 0,-3.82813 -0.8907,0" /><path
       inkscape:connector-curvature="0"
       id="path58"
       style="fill:#ffffff;fill-opacity:1;fill-rule:nonzero;stroke:none"
       d="m 64.4375,2.24414 0,5.11641 0.8789,0.05468 0,-5.17109 -0.8789,0 z m -0.0547,6.28242 0,0.84649 0.9785,0 0,-0.84649 -0.9785,0" /><path
       inkscape:connector-curvature="0"
       id="path60"
       style="fill:#ffffff;fill-opacity:1;fill-rule:nonzero;stroke:none"
       d="m 68.6055,3.63008 c 0.0664,-0.21992 0.0898,-0.37422 0.0898,-0.5168 0,0.14258 0.0313,0.31953 0.1094,0.5168 l 1.4629,3.71875 0.8359,0 -2.0898,-5.10469 -0.7598,0 -1.9473,5.10469 0.9239,0 1.375,-3.71875" /><path
       inkscape:connector-curvature="0"
       id="path62"
       style="fill:#ffffff;fill-opacity:1;fill-rule:nonzero;stroke:none"
       d="m 75.1406,5.47852 c 0,0.82539 -0.3633,1.30976 -1.0332,1.30976 -0.7929,0 -1.3535,-0.47383 -1.4746,-1.43086 l 2.5078,0 0,0.1211 z M 73.9082,2.17773 c -1.2988,0 -2.1894,0.64961 -2.1894,2.36641 0,1.90234 0.957,2.91484 2.4648,2.91484 1.1328,0 1.75,-0.79179 1.75,-1.91406 0,-0.23125 0,-0.45117 -0.0332,-0.80351 l -3.3125,0 c 0,-1.3086 0.4844,-1.85938 1.5293,-1.85938 0.5391,0 1.0683,0.19805 1.6172,0.53906 L 75.998,2.82734 C 75.4258,2.41992 74.7773,2.17773 73.9082,2.17773" /><path
       inkscape:connector-curvature="0"
       id="path64"
       style="fill:#ffffff;fill-opacity:1;fill-rule:nonzero;stroke:none"
       d="m 80.0137,6.66719 c -0.166,0.01054 -0.2324,0.01054 -0.3203,0.01054 -0.5274,0 -0.6817,-0.11015 -1.4512,-1.48515 l 0,-2.94844 -0.8809,0 0,5.11641 0.6934,0.07617 c 0.0781,-0.16524 0.1211,-0.75899 0.1328,-1.375 0.5605,1.17773 0.8574,1.39726 1.375,1.39726 0.209,0 0.418,-0.0332 0.5273,-0.0664 L 80.0137,6.66719" /><path
       inkscape:connector-curvature="0"
       id="path66"
       style="fill:#ffffff;fill-opacity:1;fill-rule:nonzero;stroke:none"
       d="m 82.3672,2.15625 c -0.6602,0 -1.2539,0.1543 -1.7715,0.43945 l 0.2207,0.69336 c 0.5606,-0.27422 1.1445,-0.45117 1.6621,-0.45117 0.7578,0 1.0449,0.31953 1.0449,0.68242 0,0.38516 -0.1328,0.60469 -1.0898,0.91328 -1.3086,0.41797 -1.6055,0.80274 -1.6055,1.54024 0,0.8582 0.6914,1.49609 1.9141,1.49609 0.6367,0 1.1543,-0.12109 1.5723,-0.36328 L 84.0723,6.43555 c -0.3184,0.16523 -0.9024,0.29687 -1.3965,0.29687 -0.7598,0 -0.9785,-0.30781 -0.9785,-0.69219 0,-0.42968 0.1523,-0.59492 1.1328,-0.90234 1.2969,-0.41797 1.5508,-0.83594 1.5508,-1.49609 0,-0.78125 -0.5723,-1.48555 -2.0137,-1.48555" /><path
       inkscape:connector-curvature="0"
       id="path68"
       style="fill:#ffffff;fill-opacity:1;fill-rule:nonzero;stroke:none"
       d="m 85.7441,2.24414 0,5.11641 0.8789,0.05468 0,-5.17109 -0.8789,0 z m -0.0546,6.28242 0,0.84649 0.9785,0 0,-0.84649 -0.9785,0" /><path
       inkscape:connector-curvature="0"
       id="path70"
       style="fill:#ffffff;fill-opacity:1;fill-rule:nonzero;stroke:none"
       d="m 89.682,2.16719 c -0.8359,0 -1.2324,0.37383 -1.2324,1.23242 l 0,3.27812 -0.6933,0.03321 0.0566,0.60469 0.6484,0.0332 0.1211,1.65039 0.7598,0.07695 0,-1.71562 1.6816,0 -0.0547,-0.69336 -1.6269,0 0,-3.19063 c 0,-0.42968 0.1426,-0.58281 0.5488,-0.58281 0.3301,0 0.6719,0.07695 1.0781,0.25273 L 91.1566,2.51953 C 90.7504,2.28828 90.2543,2.16719 89.682,2.16719" /><path
       inkscape:connector-curvature="0"
       id="path72"
       style="fill:#ffffff;fill-opacity:1;fill-rule:nonzero;stroke:none"
       d="m 93.7641,3.6418 c 0.0761,-0.22071 0.0879,-0.38594 0.0879,-0.52852 0,0.14258 0.0332,0.33008 0.1093,0.52852 l 1.4629,3.70703 0.836,0 -2.584,-6.2707 C 93.3793,0.351563 92.9496,0.0546875 91.8051,0 L 91.684,0.660156 c 0.8594,0.087891 1.0781,0.230469 1.2656,0.660154 l 0.4297,1.00117 -1.8828,5.02735 0.9023,0 1.3653,-3.70703" /><path
       inkscape:connector-curvature="0"
       id="path74"
       style="fill:#ffffff;fill-opacity:1;fill-rule:nonzero;stroke:none"
       d="m 101.375,6.79883 c -0.902,0 -1.4625,-0.72656 -1.4625,-2.02422 0,-1.46289 0.5845,-1.93672 1.4415,-1.93672 0.945,0 1.43,0.78125 1.43,2.02422 0,1.17812 -0.397,1.93672 -1.409,1.93672 z m -0.087,-4.63164 c -1.5083,0 -2.2778,0.80351 -2.2778,2.53008 0,1.63984 0.9355,2.77265 2.4528,2.77265 1.463,0 2.235,-0.76953 2.235,-2.54101 0,-1.62813 -0.848,-2.76172 -2.41,-2.76172" /><path
       inkscape:connector-curvature="0"
       id="path76"
       style="fill:#ffffff;fill-opacity:1;fill-rule:nonzero;stroke:none"
       d="m 107.479,9.33984 c -0.176,0.04414 -0.549,0.07735 -0.748,0.07735 -0.539,0 -0.715,-0.26367 -0.715,-0.89063 l 0,-1.18867 1.123,0 -0.055,-0.68164 -1.068,0 0,-4.41211 -0.869,0 0,4.40039 -0.715,0.05586 0.055,0.59375 0.66,0.04375 0,1.12227 c 0,1.12187 0.484,1.63944 1.486,1.63944 0.319,0 0.791,-0.0664 1,-0.1328 l -0.154,-0.62696" /><path
       inkscape:connector-curvature="0"
       id="path78"
       style="fill:#ffffff;fill-opacity:1;fill-rule:nonzero;stroke:none"
       d="m 111.694,5.19258 2.353,0 -1.011,2.99219 c -0.078,0.23125 -0.11,0.45117 -0.11,0.59453 0,-0.14336 -0.056,-0.38555 -0.133,-0.59453 l -1.099,-2.99219 z m 3.365,-2.94844 -0.803,2.28828 -2.783,0 -0.881,-2.28828 -0.879,0 2.827,7.46992 0.859,0 2.65,-7.46992 -0.99,0" /><path
       inkscape:connector-curvature="0"
       id="path80"
       style="fill:#ffffff;fill-opacity:1;fill-rule:nonzero;stroke:none"
       d="m 120.317,2.24414 0,3.69649 c 0,0.44023 -0.143,0.79179 -0.682,0.79179 -0.429,0 -1.078,-0.30781 -1.65,-0.87969 l 0,-3.60859 -0.881,0 0,5.11641 0.748,0.06523 c 0.066,-0.14258 0.111,-0.50586 0.121,-0.87969 0.705,0.66016 1.354,0.92383 1.971,0.92383 0.945,0 1.264,-0.47265 1.264,-1.39765 l 0,-3.82813 -0.891,0" /><path
       inkscape:connector-curvature="0"
       id="path82"
       style="fill:#ffffff;fill-opacity:1;fill-rule:nonzero;stroke:none"
       d="m 124.245,2.16719 c -0.836,0 -1.233,0.37383 -1.233,1.23242 l 0,3.27812 -0.693,0.03321 0.055,0.60469 0.648,0.0332 0.121,1.65039 0.76,0.07695 0,-1.71562 1.683,0 -0.054,-0.69336 -1.629,0 0,-3.19063 c 0,-0.42968 0.142,-0.58281 0.551,-0.58281 0.33,0 0.67,0.07695 1.078,0.25273 l 0.185,-0.62695 c -0.406,-0.23125 -0.9,-0.35234 -1.472,-0.35234" /><path
       inkscape:connector-curvature="0"
       id="path84"
       style="fill:#ffffff;fill-opacity:1;fill-rule:nonzero;stroke:none"
       d="m 128.368,2.24414 -0.725,0 -1.574,5.10469 0.869,0 1.09,-3.68555 c 0.066,-0.21992 0.088,-0.37422 0.088,-0.5168 0,0.14258 0.043,0.33008 0.109,0.5168 l 1.199,3.68555 0.739,0.04375 1.23,-3.7293 c 0.078,-0.21992 0.1,-0.37422 0.1,-0.5168 0,0.14258 0.033,0.33008 0.099,0.5168 l 1.188,3.68555 0.781,0 -1.717,-5.10469 -0.758,0 -1.253,3.7082 c -0.067,0.18633 -0.09,0.37383 -0.09,0.51641 0,-0.14258 -0.032,-0.31914 -0.098,-0.51641 l -1.277,-3.7082" /><path
       inkscape:connector-curvature="0"
       id="path86"
       style="fill:#ffffff;fill-opacity:1;fill-rule:nonzero;stroke:none"
       d="m 137.643,5.47852 c 0,0.82539 -0.363,1.30976 -1.035,1.30976 -0.793,0 -1.354,-0.47383 -1.475,-1.43086 l 2.51,0 0,0.1211 z m -1.232,-3.30079 c -1.299,0 -2.19,0.64961 -2.19,2.36641 0,1.90234 0.957,2.91484 2.463,2.91484 1.135,0 1.75,-0.79179 1.75,-1.91406 0,-0.23125 0,-0.45117 -0.033,-0.80351 l -3.311,0 c 0,-1.3086 0.485,-1.85938 1.53,-1.85938 0.539,0 1.066,0.19805 1.617,0.53906 L 138.5,2.82734 c -0.572,-0.40742 -1.22,-0.64961 -2.089,-0.64961" /><path
       inkscape:connector-curvature="0"
       id="path88"
       style="fill:#ffffff;fill-opacity:1;fill-rule:nonzero;stroke:none"
       d="m 142.514,6.66719 c -0.164,0.01054 -0.23,0.01054 -0.318,0.01054 -0.528,0 -0.682,-0.11015 -1.453,-1.48515 l 0,-2.94844 -0.879,0 0,5.11641 0.693,0.07617 c 0.076,-0.16524 0.121,-0.75899 0.131,-1.375 0.561,1.17773 0.859,1.39726 1.375,1.39726 0.209,0 0.418,-0.0332 0.529,-0.0664 l -0.078,-0.72539" /><path
       inkscape:connector-curvature="0"
       id="path90"
       style="fill:#ffffff;fill-opacity:1;fill-rule:nonzero;stroke:none"
       d="m 145.803,6.74414 c -0.551,0 -1.045,-0.33008 -1.353,-0.67187 l 0,-2.98125 c 0.287,-0.14258 0.681,-0.26368 1.078,-0.26368 0.99,0 1.529,0.74805 1.529,2.07891 0,1.10078 -0.373,1.83789 -1.254,1.83789 z m -0.308,-4.55469 c -0.418,0 -0.77,0.05469 -1.045,0.20899 l 0,-2.289065 -0.903,-0.0546875 0,7.3058625 0.748,0.07617 c 0.067,-0.15352 0.112,-0.42891 0.122,-0.68164 0.429,0.44023 1.011,0.71484 1.64,0.71484 1.221,0 1.914,-0.79219 1.914,-2.49726 0,-1.55157 -0.771,-2.78321 -2.476,-2.78321" /><path
       inkscape:connector-curvature="0"
       id="path92"
       style="fill:#ffffff;fill-opacity:1;fill-rule:nonzero;stroke:none"
       d="M 81.1816,27.7961 81.1074,39.968 c -0.0761,-0.425 -0.1758,-0.8 -0.375,-1.2496 l -4.6496,-10.5723 -2.0992,0 -4.4484,10.1973 c -0.2254,0.5 -0.325,0.8246 -0.375,1.275 l -0.1758,-11.8223 -2.7246,0 0.3007,17.2453 3.0489,0 5.6242,-12.7715 5.7977,12.7715 3.0253,0 0.1993,-17.2453 -3.0743,0" /><path
       inkscape:connector-curvature="0"
       id="path94"
       style="fill:#ffffff;fill-opacity:1;fill-rule:nonzero;stroke:none"
       d="m 99.5074,42.6422 -5.0488,0 0,-14.8461 -3.1242,0 0,14.8461 -5.2992,0 0.2003,2.3992 13.4719,0 -0.2,-2.3992" /><path
       inkscape:connector-curvature="0"
       id="path96"
       style="fill:#ffffff;fill-opacity:1;fill-rule:nonzero;stroke:none"
       d="m 58.4844,42.593 c -2.8496,0 -4.5742,-2.0235 -4.5742,-6.2735 0,-4.7734 2.0488,-6.048 4.4492,-6.048 1.6484,0 3.2246,0.5238 4.5969,1.3246 l 0.8523,-2.3246 c -1.7246,-1.0496 -3.4758,-1.6504 -6.0742,-1.6504 -4.6739,0 -7.1485,2.5746 -7.1485,8.4238 0,5.6489 2.8496,9.1485 7.8477,9.1485 2.2246,0 3.4758,-0.3004 4.823,-0.9246 l -0.1785,-2.6559 c 0,0 -1.8918,0.9801 -4.5937,0.9801" /><path
       inkscape:connector-curvature="0"
       id="path98"
       style="fill:#ffffff;fill-opacity:1;fill-rule:nonzero;stroke:none"
       d="m 54.2637,21.5578 c -1.2539,0 -2.0137,-0.8906 -2.0137,-2.7617 0,-2.1016 0.9023,-2.6621 1.959,-2.6621 0.7258,0 1.4187,0.2305 2.0234,0.5828 l 0.375,-1.0234 c -0.759,-0.4618 -1.5293,-0.7266 -2.6738,-0.7266 -2.0574,0 -3.1465,1.134 -3.1465,3.7078 0,2.4875 1.2539,4.0277 3.4539,4.0277 0.9797,0 1.5305,-0.132 2.1242,-0.407 l -0.0793,-1.1691 c 0,0 -0.8328,0.4316 -2.0222,0.4316" /><path
       inkscape:connector-curvature="0"
       id="path100"
       style="fill:#ffffff;fill-opacity:1;fill-rule:nonzero;stroke:none"
       d="M 32.1426,21.123 C 31.9844,15.9863 28.8066,12.1484 24.4883,10.7969 L 24.4141,10.7676 C 24.3516,10.752 24.291,10.7344 24.2871,10.7441 l -0.0547,-0.0351 -0.039,0 c -0.2422,-0.0723 -0.4883,-0.1367 -0.7539,-0.1953 -0.2891,-0.0449 -0.5821,-0.0782 -0.8653,-0.1055 -0.7363,-0.0957 -1.5058,-0.1465 -2.2812,-0.1465 -1.0575,0 -2.1282,0.0918 -3.1492,0.2715 -0.1985,0.0332 -0.4016,0.0781 -0.6067,0.1231 -0.0801,0.0195 -0.1797,0.0332 -0.3,0.0585 -0.0926,0.0293 -0.1812,0.0489 -0.2586,0.0723 -4.7012,1.2832 -8.11717,5.3652 -8.11327,10.8535 l 0,14.7864 2.29297,0 0,0.0066 4.041,0 0,-14.4961 c 0.0156,-4.8262 3.0645,-7.8145 7.343,-7.8281 4.2156,0.0117 7.2156,2.9883 7.243,7.7969 -0.8067,0.2765 -1.6407,0.5988 -2.5352,1.0285 -7.8652,3.7683 -10.7566,1.6543 -10.7566,1.6543 0,0 3.7976,7.2351 11.8953,3.8445 0.4863,-0.2039 0.9492,-0.3895 1.3984,-0.5691 l 0,8.5691 3.3711,0 0,-9.7918 c 4.9824,-1.5996 6.7695,-1.002 7.6836,0.6133 0.7578,-2.9727 -1.8477,-6.7863 -7.6992,-6.1321 z m 8.2676,23.684 -38.30082,0 C 0.944531,44.807 0,43.8637 0,42.6977 L 0,4.39453 C 0,3.23047 0.944531,2.28516 2.10938,2.28516 l 38.30082,0 c 1.164,0 2.1093,0.94531 2.1093,2.10937 l 0,38.30317 c 0,1.166 -0.9453,2.1093 -2.1093,2.1093" /></g></svg>