<?xml version="1.0" encoding="UTF-8" standalone="no"?>
<!-- Created with Inkscape (http://www.inkscape.org/) -->

<svg
   xmlns:dc="http://purl.org/dc/elements/1.1/"
   xmlns:cc="http://creativecommons.org/ns#"
   xmlns:rdf="http://www.w3.org/1999/02/22-rdf-syntax-ns#"
   xmlns:svg="http://www.w3.org/2000/svg"
   xmlns="http://www.w3.org/2000/svg"
   version="1.1"
   width="446.5"
   height="132.75"
   id="svg2"
   xml:space="preserve"><metadata
     id="metadata8"><rdf:RDF><cc:Work
         rdf:about=""><dc:format>image/svg+xml</dc:format><dc:type
           rdf:resource="http://purl.org/dc/dcmitype/StillImage" /><dc:title></dc:title></cc:Work></rdf:RDF></metadata><defs
     id="defs6" /><g
     transform="matrix(1.25,0,0,-1.25,0,132.75)"
     id="g10"><g
       transform="scale(0.1,0.1)"
       id="g12"><path
         d="m 984.57,669.77 0,392.23 -120.996,0 0,-348.203 c -21.254,8.375 -43.476,17.391 -66.816,27.148 C 462.5,880.789 305.859,582.195 305.859,582.195 c 0,0 119.395,87.266 443.868,-68.281 40.023,-19.172 77.925,-34.379 113.746,-46.152 -2.188,-200.27 -130.266,-326.977 -307.907,-326.977 -181.093,0 -311.972,128.867 -311.972,332.153 l 0,589.062 -148.9065,0 0,-0.27 L 0,1061.73 0,460.633 C 0,237.855 138.008,73.5195 328.379,21.3281 c 3.125,-0.9375 6.601,-1.9492 10.664,-2.8867 3.984,-0.9414 8.184,-1.5625 12.246,-2.4609 8.086,-1.8399 16.25,-3.5899 24.512,-5.0391 C 447.871,-1.75 526.387,-3.35938 596.973,5.89844 608.887,7 620.742,8.44141 632.441,10.2813 c 10.586,2.2968 20.938,5.1484 31.27,8.1171 0.098,0 0.195,0 0.215,0.043 0.176,0.0391 0.254,0.0781 0.39,0.0781 2.481,0.6993 5.02,1.4024 7.442,2.1524 0.703,0.1875 1.191,0.4297 1.836,0.6172 C 849.387,76.5156 977.926,231.078 984.262,439.543 1232.39,407.367 1342.59,567.996 1310.8,692.273 1272.58,624.574 1197.48,599.914 984.57,669.77"
         id="path14"
         style="fill:#ffffff;fill-opacity:1;fill-rule:nonzero;stroke:none" /><path
         d="m 1709.09,1061.74 -37.62,0 0,-194.24 c 0,-65.219 -22.37,-99.492 -87.59,-99.492 -62.84,0 -84.26,30.933 -84.26,95.215 l 0,198.517 -39.52,0 0,-200.9 c 0,-82.844 31.42,-125.215 121.39,-125.215 88.08,0 127.6,53.316 127.6,131.402 l 0,194.713"
         id="path16"
         style="fill:#ffffff;fill-opacity:1;fill-rule:nonzero;stroke:none" /><path
         d="m 1921.83,738.484 38.58,0 0,165.672 c 0,39.992 -13.81,60.461 -54.75,60.461 -26.66,0 -54.75,-11.426 -85.22,-39.988 -0.48,16.187 -2.38,31.891 -5.25,38.086 l -32.36,-2.856 0,-221.375 38.08,0 0,156.153 c 24.75,24.758 52.85,38.086 71.41,38.086 23.34,0 29.51,-15.235 29.51,-34.278 l 0,-159.961"
         id="path18"
         style="fill:#ffffff;fill-opacity:1;fill-rule:nonzero;stroke:none" /><path
         d="m 2032.26,1010.32 42.3594,0 0,36.6602 -42.3594,0 0,-36.6602 z"
         id="path20"
         style="fill:#ffffff;fill-opacity:1;fill-rule:nonzero;stroke:none" /><path
         d="m 2072.71,738.484 0,223.758 -38.09,-2.383 0,-221.375 38.09,0"
         id="path22"
         style="fill:#ffffff;fill-opacity:1;fill-rule:nonzero;stroke:none" /><path
         d="m 2286.93,959.383 -63.32,-160.906 c -3.34,-8.579 -4.77,-16.196 -4.77,-22.383 0,6.187 -0.93,12.847 -3.81,22.383 l -59.51,160.906 -39.98,0 84.26,-220.899 32.85,0 90.45,220.899 -36.17,0"
         id="path24"
         style="fill:#ffffff;fill-opacity:1;fill-rule:nonzero;stroke:none" /><path
         d="m 2453.04,935.105 c 29.03,0 44.75,-20.949 44.75,-56.652 l 0,-5.242 -108.56,0 c 5.24,41.418 29.53,61.894 63.81,61.894 z m 70.45,-145.683 c -23.81,-14.754 -46.66,-23.328 -69.98,-23.328 -45.23,0 -66.17,23.804 -66.17,80.457 l 143.3,0 c 1.43,15.234 1.43,24.758 1.43,34.758 0,48.55 -26.66,82.832 -75.71,82.832 -65.21,0 -106.64,-43.789 -106.64,-126.157 0,-74.265 38.58,-102.359 94.75,-102.359 37.6,0 65.7,10.477 90.45,28.094 l -11.43,25.703"
         id="path26"
         style="fill:#ffffff;fill-opacity:1;fill-rule:nonzero;stroke:none" /><path
         d="m 2631.99,866.07 c 33.34,59.516 40,64.27 62.85,64.27 3.81,0 6.66,0 13.81,-0.481 l 3.32,31.426 c -4.75,1.43 -13.79,2.856 -22.85,2.856 -22.37,0 -35.22,-9.512 -59.5,-60.461 -0.48,26.66 -2.38,52.375 -5.72,59.511 l -30,-3.332 0,-221.375 38.09,0 0,127.586"
         id="path28"
         style="fill:#ffffff;fill-opacity:1;fill-rule:nonzero;stroke:none" /><path
         d="m 2897.63,798.941 c 0,28.567 -10.96,46.664 -67.13,64.747 -42.38,13.332 -49.04,20.468 -49.04,39.042 0,16.665 9.53,29.993 42.36,29.993 21.43,0 46.66,-5.711 60.47,-12.852 l 10.47,29.031 c -18.09,10.481 -40.47,15.715 -68.07,15.715 -52.85,0 -82.85,-27.605 -82.85,-64.746 0,-31.894 12.87,-48.555 69.51,-66.648 41.43,-13.332 47.13,-22.856 47.13,-39.512 0,-15.715 -12.36,-29.516 -45.21,-29.516 -22.38,0 -47.62,7.618 -71.9,19.516 l -9.51,-29.992 c 22.37,-12.371 48.07,-19.043 76.64,-19.043 62.37,0 87.13,30.469 87.13,64.265"
         id="path30"
         style="fill:#ffffff;fill-opacity:1;fill-rule:nonzero;stroke:none" /><path
         d="m 2994.7,962.242 -38.08,-2.383 0,-221.375 38.08,0 0,223.758"
         id="path32"
         style="fill:#ffffff;fill-opacity:1;fill-rule:nonzero;stroke:none" /><path
         d="m 2954.23,1010.32 42.3711,0 0,36.6602 -42.3711,0 0,-36.6602 z"
         id="path34"
         style="fill:#ffffff;fill-opacity:1;fill-rule:nonzero;stroke:none" /><path
         d="m 3136.07,766.57 c -17.62,0 -23.81,6.668 -23.81,25.235 l 0,138.054 70.47,0 2.38,30 -72.85,0 0,74.271 -32.85,-3.33 -5.24,-71.417 -28.08,-1.426 -2.38,-26.184 30,-1.433 0,-141.863 c 0,-37.141 17.12,-53.325 53.32,-53.325 24.74,0 46.17,5.239 63.79,15.239 l -8.09,27.129 c -17.62,-7.622 -32.38,-10.95 -46.66,-10.95"
         id="path36"
         style="fill:#ffffff;fill-opacity:1;fill-rule:nonzero;stroke:none" /><path
         d="m 3299.82,688.023 111.87,271.36 -36.17,0 -63.32,-160.442 c -3.34,-8.562 -4.76,-16.66 -4.76,-22.847 0,6.187 -0.47,13.328 -3.81,22.847 l -59.05,160.442 -39.02,0 81.41,-217.57 -18.58,-43.321 c -8.08,-18.562 -17.61,-24.754 -54.74,-28.562 l 5.23,-28.567 c 49.51,2.387 68.09,15.239 80.94,46.66"
         id="path38"
         style="fill:#ffffff;fill-opacity:1;fill-rule:nonzero;stroke:none" /><path
         d="m 1565.34,204.32 c -37.14,0 -62.36,20.469 -62.36,83.789 0,56.172 24.28,87.598 63.31,87.598 43.8,0 60.94,-32.852 60.94,-83.789 0,-53.809 -20.95,-87.598 -61.89,-87.598 z m 4.76,200.41 c -65.7,0 -106.16,-49.023 -106.16,-119.96 0,-74.747 33.32,-109.493 98.54,-109.493 67.61,0 104.27,49.024 104.27,119.493 0,76.64 -33.33,109.96 -96.65,109.96"
         id="path40"
         style="fill:#ffffff;fill-opacity:1;fill-rule:nonzero;stroke:none" /><path
         d="m 1727.91,447.586 0,-48.559 -28.57,-1.914 -2.38,-25.703 30.95,-2.383 0,-190.429 37.61,0 0,190.918 46.17,0 2.39,29.511 -48.56,0 0,51.411 c 0,27.136 7.62,38.566 30.94,38.566 8.57,0 24.75,-1.43 32.36,-3.332 l 6.68,27.141 c -9.04,2.847 -29.53,5.703 -43.32,5.703 -43.34,0 -64.27,-22.375 -64.27,-70.93"
         id="path42"
         style="fill:#ffffff;fill-opacity:1;fill-rule:nonzero;stroke:none" /><path
         d="m 2002.2,306.195 47.6,129.493 c 3.34,9.042 5.72,19.515 5.72,25.699 0,-6.184 1.43,-15.699 4.77,-25.699 l 43.79,-129.493 -101.88,0 z m 36.66,195.66 -122.36,-323.257 38.08,0 38.09,99.023 120.45,0 34.77,-99.023 42.83,0 -114.73,323.257 -37.13,0"
         id="path44"
         style="fill:#ffffff;fill-opacity:1;fill-rule:nonzero;stroke:none" /><path
         d="m 2359.21,404.73 c -26.66,0 -54.74,-11.425 -85.21,-39.98 -0.49,16.191 -2.38,31.895 -5.25,38.086 l -32.37,-2.852 0,-221.386 38.09,0 0,156.152 c 24.74,24.766 52.85,38.086 71.4,38.086 23.34,0 29.52,-15.234 29.52,-34.277 l 0,-159.961 38.57,0 0,165.683 c 0,39.981 -13.81,60.449 -54.75,60.449"
         id="path46"
         style="fill:#ffffff;fill-opacity:1;fill-rule:nonzero;stroke:none" /><path
         d="m 2554.35,206.684 c -17.62,0 -23.81,6.679 -23.81,25.234 l 0,138.066 70.47,0 2.38,30 -72.85,0 0,74.262 -32.85,-3.328 -5.23,-71.422 -28.09,-1.426 -2.38,-26.172 30,-1.445 0,-141.855 c 0,-37.149 17.13,-53.321 53.32,-53.321 24.74,0 46.17,5.235 63.79,15.235 l -8.09,27.129 c -17.62,-7.618 -32.38,-10.957 -46.66,-10.957"
         id="path48"
         style="fill:#ffffff;fill-opacity:1;fill-rule:nonzero;stroke:none" /><path
         d="m 2863.3,240.023 c -2.86,-8.105 -4.28,-16.191 -4.28,-22.382 0,6.191 -0.96,12.851 -4.28,22.382 l -53.32,161.387 -31.91,-1.914 -51.88,-159.473 c -2.87,-8.105 -4.76,-16.191 -4.76,-22.382 0,6.191 -0.96,12.851 -3.81,22.382 l -47.13,159.473 -37.62,0 68.09,-220.898 31.4,0 55.24,160.449 c 2.85,8.555 4.28,16.172 4.28,22.363 0,-6.191 0.95,-14.277 3.8,-22.363 l 54.28,-160.449 32.85,0 74.26,220.898 -33.79,0 -51.42,-159.473"
         id="path50"
         style="fill:#ffffff;fill-opacity:1;fill-rule:nonzero;stroke:none" /><path
         d="m 3080.35,375.219 c 29.02,0 44.74,-20.938 44.74,-56.641 l 0,-5.254 -108.55,0 c 5.23,41.426 29.53,61.895 63.81,61.895 z m 0.47,-169.004 c -45.24,0 -66.18,23.808 -66.18,80.449 l 143.3,0 c 1.43,15.234 1.43,24.766 1.43,34.766 0,48.554 -26.66,82.832 -75.7,82.832 -65.22,0 -106.64,-43.789 -106.64,-126.153 0,-74.277 38.57,-102.363 94.74,-102.363 37.6,0 65.71,10.469 90.45,28.086 l -11.42,25.703 c -23.81,-14.746 -46.66,-23.32 -69.98,-23.32"
         id="path52"
         style="fill:#ffffff;fill-opacity:1;fill-rule:nonzero;stroke:none" /><path
         d="m 3256.93,343.793 c -0.49,26.66 -2.38,52.383 -5.72,59.512 l -30,-3.321 0,-221.386 38.08,0 0,127.597 c 33.34,59.512 40,64.258 62.85,64.258 3.81,0 6.66,0 13.81,-0.469 l 3.32,31.426 c -4.74,1.426 -13.79,2.852 -22.85,2.852 -22.36,0 -35.21,-9.512 -59.49,-60.469"
         id="path54"
         style="fill:#ffffff;fill-opacity:1;fill-rule:nonzero;stroke:none" /><path
         d="m 3466.36,203.832 c -17.15,0 -34.28,5.234 -46.66,11.426 l 0,129.023 c 13.34,14.746 34.77,29.043 58.56,29.043 38.08,0 54.27,-31.894 54.27,-79.511 0,-57.598 -23.32,-89.981 -66.17,-89.981 z m 22.85,200.898 c -27.13,0 -52.36,-11.894 -70.93,-30.937 -0.47,10.957 -2.39,22.852 -5.24,29.512 l -32.38,-3.321 0,-316.1129 39.04,2.3828 0,99.0231 c 11.92,-6.679 27.15,-9.062 45.24,-9.062 73.79,0 107.11,53.32 107.11,120.449 0,73.789 -29.98,108.066 -82.84,108.066"
         id="path56"
         style="fill:#ffffff;fill-opacity:1;fill-rule:nonzero;stroke:none" /></g></g></svg>