<?xml version="1.0" encoding="UTF-8" standalone="no"?>
<!-- Created with Inkscape (http://www.inkscape.org/) -->

<svg
   xmlns:dc="http://purl.org/dc/elements/1.1/"
   xmlns:cc="http://creativecommons.org/ns#"
   xmlns:rdf="http://www.w3.org/1999/02/22-rdf-syntax-ns#"
   xmlns:svg="http://www.w3.org/2000/svg"
   xmlns="http://www.w3.org/2000/svg"
   xmlns:sodipodi="http://sodipodi.sourceforge.net/DTD/sodipodi-0.dtd"
   xmlns:inkscape="http://www.inkscape.org/namespaces/inkscape"
   id="svg2"
   version="1.1"
   inkscape:version="0.48.5 r10040"
   width="345.71251"
   height="58.737498"
   xml:space="preserve"
   sodipodi:docname="TextLogoPPG.pdf"><metadata
     id="metadata8"><rdf:RDF><cc:Work
         rdf:about=""><dc:format>image/svg+xml</dc:format><dc:type
           rdf:resource="http://purl.org/dc/dcmitype/StillImage" /><dc:title></dc:title></cc:Work></rdf:RDF></metadata><defs
     id="defs6" /><sodipodi:namedview
     pagecolor="#ffffff"
     bordercolor="#666666"
     borderopacity="1"
     objecttolerance="10"
     gridtolerance="10"
     guidetolerance="10"
     inkscape:pageopacity="0"
     inkscape:pageshadow="2"
     inkscape:window-width="640"
     inkscape:window-height="480"
     id="namedview4"
     showgrid="false"
     inkscape:zoom="1.3016595"
     inkscape:cx="172.85626"
     inkscape:cy="29.36875"
     inkscape:window-x="0"
     inkscape:window-y="0"
     inkscape:window-maximized="0"
     inkscape:current-layer="g10" /><g
     id="g10"
     inkscape:groupmode="layer"
     inkscape:label="TextLogoPPG"
     transform="matrix(1.25,0,0,-1.25,0,58.737498)"><g
       id="g12"><path
         d="m 55.578,3.564 c -3.402,0 -4.59,1.602 -4.59,4.735 l 0,7.601 1.496,0 0,-7.508 c 0,-2.433 0.809,-3.601 3.188,-3.601 2.465,0 3.312,1.297 3.312,3.761 l 0,7.348 1.422,0 0,-7.367 c 0,-2.953 -1.496,-4.969 -4.828,-4.969"
         style="fill:#ffffff;fill-opacity:1;fill-rule:nonzero;stroke:none"
         id="path14" /><path
         d="m 68.449,3.674 0,6.05 c 0,0.719 -0.234,1.297 -1.117,1.297 -0.699,0 -1.762,-0.508 -2.699,-1.441 l 0,-5.906 -1.442,0 0,8.371 1.227,0.109 c 0.105,-0.234 0.18,-0.828 0.195,-1.441 1.153,1.082 2.215,1.511 3.223,1.511 1.551,0 2.074,-0.773 2.074,-2.285 l 0,-6.265 -1.461,0"
         style="fill:#ffffff;fill-opacity:1;fill-rule:nonzero;stroke:none"
         id="path16" /><path
         d="m 72.715,3.674 0,8.371 1.441,0.09 0,-8.461 -1.441,0 z m -0.09,10.281 0,1.387 1.602,0 0,-1.387 -1.602,0"
         style="fill:#ffffff;fill-opacity:1;fill-rule:nonzero;stroke:none"
         id="path18" /><path
         d="M 79.535,5.943 C 79.645,5.58 79.68,5.33 79.68,5.095 c 0,0.235 0.054,0.524 0.179,0.848 l 2.395,6.086 1.371,0 -3.422,-8.355 -1.242,0 -3.188,8.355 1.512,0 2.25,-6.086"
         style="fill:#ffffff;fill-opacity:1;fill-rule:nonzero;stroke:none"
         id="path20" /><path
         d="m 90.23,8.967 c 0,1.351 -0.593,2.144 -1.691,2.144 -1.297,0 -2.215,-0.777 -2.414,-2.344 l 4.105,0 0,0.2 z M 88.215,3.564 c -2.125,0 -3.586,1.063 -3.586,3.871 0,3.117 1.566,4.774 4.035,4.774 1.856,0 2.863,-1.297 2.863,-3.133 0,-0.379 0,-0.738 -0.054,-1.316 l -5.422,0 c 0,-2.141 0.793,-3.043 2.504,-3.043 0.883,0 1.746,0.324 2.648,0.882 l 0.43,-0.972 C 90.699,3.963 89.637,3.564 88.215,3.564"
         style="fill:#ffffff;fill-opacity:1;fill-rule:nonzero;stroke:none"
         id="path22" /><path
         d="m 98.203,10.912 c -0.269,0.015 -0.379,0.015 -0.523,0.015 -0.864,0 -1.114,-0.179 -2.375,-2.429 l 0,-4.824 -1.442,0 0,8.371 1.137,0.129 c 0.125,-0.274 0.195,-1.247 0.215,-2.254 0.918,1.929 1.406,2.289 2.25,2.289 0.344,0 0.683,-0.055 0.863,-0.11 l -0.125,-1.187"
         style="fill:#ffffff;fill-opacity:1;fill-rule:nonzero;stroke:none"
         id="path24" /><path
         d="m 102.055,3.529 c -1.082,0 -2.055,0.254 -2.899,0.719 l 0.36,1.137 c 0.918,-0.45 1.871,-0.739 2.718,-0.739 1.243,0 1.711,0.52 1.711,1.117 0,0.629 -0.215,0.989 -1.781,1.493 -2.144,0.683 -2.629,1.316 -2.629,2.519 0,1.406 1.133,2.449 3.133,2.449 1.043,0 1.891,-0.195 2.574,-0.593 l -0.398,-1.098 c -0.52,0.269 -1.477,0.488 -2.285,0.488 -1.243,0 -1.602,-0.508 -1.602,-1.136 0,-0.704 0.25,-0.973 1.852,-1.477 2.125,-0.684 2.539,-1.367 2.539,-2.449 0,-1.278 -0.934,-2.43 -3.293,-2.43"
         style="fill:#ffffff;fill-opacity:1;fill-rule:nonzero;stroke:none"
         id="path26" /><path
         d="m 107.578,3.674 0,8.371 1.442,0.09 0,-8.461 -1.442,0 z m -0.09,10.281 0,1.387 1.602,0 0,-1.387 -1.602,0"
         style="fill:#ffffff;fill-opacity:1;fill-rule:nonzero;stroke:none"
         id="path28" /><path
         d="m 114.023,3.549 c -1.367,0 -2.015,0.609 -2.015,2.015 l 0,5.363 -1.133,0.055 0.09,0.992 1.062,0.055 0.196,2.699 1.242,0.125 0,-2.808 2.754,0 -0.09,-1.133 -2.664,0 0,-5.223 c 0,-0.703 0.234,-0.953 0.902,-0.953 0.539,0 1.098,0.125 1.762,0.414 l 0.309,-1.027 C 115.77,3.744 114.961,3.549 114.023,3.549"
         style="fill:#ffffff;fill-opacity:1;fill-rule:nonzero;stroke:none"
         id="path30" /><path
         d="m 120.703,5.959 c 0.125,-0.36 0.145,-0.629 0.145,-0.864 0,0.235 0.054,0.54 0.179,0.864 l 2.395,6.07 1.367,0 -4.23,-10.266 c -0.485,-1.187 -1.188,-1.671 -3.063,-1.761 l -0.195,1.078 c 1.402,0.144 1.761,0.379 2.07,1.082 l 0.703,1.637 -3.082,8.23 1.477,0 2.234,-6.07"
         style="fill:#ffffff;fill-opacity:1;fill-rule:nonzero;stroke:none"
         id="path32" /><path
         d="m 133.156,11.127 c -1.476,0 -2.394,-1.188 -2.394,-3.313 0,-2.394 0.957,-3.168 2.359,-3.168 1.551,0 2.34,1.278 2.34,3.313 0,1.926 -0.645,3.168 -2.305,3.168 z m -0.14,-7.578 c -2.469,0 -3.731,1.312 -3.731,4.14 0,2.684 1.531,4.535 4.016,4.535 2.394,0 3.656,-1.257 3.656,-4.156 0,-2.668 -1.387,-4.519 -3.941,-4.519"
         style="fill:#ffffff;fill-opacity:1;fill-rule:nonzero;stroke:none"
         id="path34" /><path
         d="m 143.148,15.287 c -0.289,0.07 -0.902,0.125 -1.222,0.125 -0.883,0 -1.172,-0.43 -1.172,-1.457 l 0,-1.945 1.836,0 -0.09,-1.118 -1.746,0 0,-7.218 -1.422,0 0,7.203 -1.172,0.09 0.09,0.972 1.082,0.071 0,1.835 c 0,1.836 0.789,2.684 2.43,2.684 0.523,0 1.297,-0.109 1.636,-0.215 l -0.25,-1.027"
         style="fill:#ffffff;fill-opacity:1;fill-rule:nonzero;stroke:none"
         id="path36" /><path
         d="m 150.039,8.498 3.856,0 -1.657,4.898 c -0.125,0.379 -0.179,0.739 -0.179,0.973 0,-0.234 -0.09,-0.629 -0.215,-0.973 l -1.805,-4.898 z m 5.512,-4.824 -1.317,3.746 -4.55,0 -1.442,-3.746 -1.441,0 4.629,12.226 1.402,0 4.34,-12.226 -1.621,0"
         style="fill:#ffffff;fill-opacity:1;fill-rule:nonzero;stroke:none"
         id="path38" /><path
         d="m 164.152,3.674 0,6.05 c 0,0.719 -0.23,1.297 -1.113,1.297 -0.703,0 -1.766,-0.508 -2.699,-1.441 l 0,-5.906 -1.442,0 0,8.371 1.223,0.109 c 0.109,-0.234 0.18,-0.828 0.199,-1.441 1.153,1.082 2.215,1.511 3.223,1.511 1.547,0 2.07,-0.773 2.07,-2.285 l 0,-6.265 -1.461,0"
         style="fill:#ffffff;fill-opacity:1;fill-rule:nonzero;stroke:none"
         id="path40" /><path
         d="m 170.578,3.549 c -1.367,0 -2.016,0.609 -2.016,2.015 l 0,5.363 -1.132,0.055 0.09,0.992 1.062,0.055 0.195,2.699 1.243,0.125 0,-2.808 2.753,0 -0.085,-1.133 -2.668,0 0,-5.223 c 0,-0.703 0.234,-0.953 0.902,-0.953 0.539,0 1.098,0.125 1.766,0.414 l 0.304,-1.027 c -0.668,-0.379 -1.476,-0.574 -2.414,-0.574"
         style="fill:#ffffff;fill-opacity:1;fill-rule:nonzero;stroke:none"
         id="path42" /><path
         d="m 177.328,3.674 -1.187,0 -2.575,8.355 1.422,0 1.782,-6.035 c 0.109,-0.359 0.144,-0.609 0.144,-0.844 0,0.235 0.074,0.539 0.184,0.844 l 1.961,6.035 1.207,0.07 2.015,-6.105 c 0.125,-0.359 0.16,-0.609 0.16,-0.844 0,0.235 0.055,0.539 0.164,0.844 l 1.946,6.035 1.277,0 -2.808,-8.355 -1.243,0 -2.05,6.066 c -0.11,0.309 -0.149,0.613 -0.149,0.848 0,-0.235 -0.051,-0.524 -0.16,-0.848 l -2.09,-6.066"
         style="fill:#ffffff;fill-opacity:1;fill-rule:nonzero;stroke:none"
         id="path44" /><path
         d="m 192.504,8.967 c 0,1.351 -0.594,2.144 -1.692,2.144 -1.296,0 -2.214,-0.777 -2.414,-2.344 l 4.106,0 0,0.2 z m -2.016,-5.403 c -2.125,0 -3.586,1.063 -3.586,3.871 0,3.117 1.571,4.774 4.036,4.774 1.855,0 2.863,-1.297 2.863,-3.133 0,-0.379 0,-0.738 -0.055,-1.316 l -5.422,0 c 0,-2.141 0.793,-3.043 2.504,-3.043 0.883,0 1.746,0.324 2.649,0.882 l 0.429,-0.972 C 192.973,3.963 191.91,3.564 190.488,3.564"
         style="fill:#ffffff;fill-opacity:1;fill-rule:nonzero;stroke:none"
         id="path46" /><path
         d="m 200.477,10.912 c -0.27,0.015 -0.375,0.015 -0.524,0.015 -0.863,0 -1.113,-0.179 -2.375,-2.429 l 0,-4.824 -1.437,0 0,8.371 1.132,0.129 c 0.125,-0.274 0.2,-1.247 0.215,-2.254 0.918,1.929 1.407,2.289 2.25,2.289 0.344,0 0.688,-0.055 0.867,-0.11 l -0.128,-1.187"
         style="fill:#ffffff;fill-opacity:1;fill-rule:nonzero;stroke:none"
         id="path48" /><path
         d="m 205.859,11.037 c -0.898,0 -1.711,-0.539 -2.214,-1.098 l 0,-4.879 c 0.468,-0.234 1.117,-0.433 1.765,-0.433 1.621,0 2.5,1.226 2.5,3.402 0,1.801 -0.609,3.008 -2.051,3.008 z m -0.504,-7.453 c -0.683,0 -1.261,0.09 -1.71,0.34 l 0,-3.743 -1.477,-0.089 0,11.953 1.227,0.129 c 0.105,-0.254 0.179,-0.704 0.195,-1.118 0.703,0.719 1.656,1.168 2.683,1.168 2,0 3.133,-1.297 3.133,-4.086 0,-2.539 -1.261,-4.554 -4.051,-4.554"
         style="fill:#ffffff;fill-opacity:1;fill-rule:nonzero;stroke:none"
         id="path50" /><path
         d="m 56.328,43.72 -1.949,0 0,-7.046 c 0.199,-0.051 1.398,-0.102 1.797,-0.102 2.301,0 3.101,1.848 3.101,3.898 0,1.7 -0.652,3.25 -2.949,3.25 z m -0.176,-9.449 c -0.398,0 -1.55,0.028 -1.773,0.102 l 0,-5.5 -3.125,0 0,17.246 5.496,0 c 3.949,0 5.625,-2.274 5.625,-5.399 0,-3.722 -2.449,-6.449 -6.223,-6.449"
         style="fill:#ffffff;fill-opacity:1;fill-rule:nonzero;stroke:none"
         id="path52" /><path
         d="m 66.629,32.322 c 0,-0.949 0.547,-1.551 1.523,-1.551 0.977,0 1.926,0.578 2.426,1.153 l 0,1.898 c -3.176,-0.227 -3.949,-0.598 -3.949,-1.5 z m 4.098,-2.098 c -1,-1.101 -2.2,-1.55 -3.7,-1.55 -1.8,0 -3.3,1.25 -3.3,3.523 0,1.699 1,2.852 6.875,3.301 0.023,0.597 0.023,1.125 0.023,1.722 0,1.075 -0.375,1.45 -1.273,1.45 -1.274,0 -2.75,-0.524 -3.926,-1.375 l -1.199,1.851 c 1.675,1.223 3.425,1.875 5.851,1.875 2.797,0 3.574,-1.449 3.574,-3.926 l 0,-4.898 c 0,-0.875 0.098,-1 1.7,-1.199 l -0.5,-2.223 c -0.45,-0.027 -0.875,-0.027 -1.227,-0.027 -1.723,0 -2.625,0.527 -2.898,1.476"
         style="fill:#ffffff;fill-opacity:1;fill-rule:nonzero;stroke:none"
         id="path54" /><path
         d="m 83.699,38.146 c -0.371,0.024 -0.648,0.051 -0.949,0.051 -1.047,0 -1.348,-0.227 -2.699,-2.375 l 0,-6.949 -3.024,0 0,11.824 2.399,0.199 c 0.176,-0.375 0.301,-1.551 0.351,-2.648 1.098,2.246 1.723,2.648 2.825,2.648 0.523,0 1.05,-0.074 1.425,-0.176 l -0.328,-2.574"
         style="fill:#ffffff;fill-opacity:1;fill-rule:nonzero;stroke:none"
         id="path56" /><path
         d="m 88.852,28.674 c -2.098,0 -3.149,0.875 -3.149,3.023 l 0,6.801 -1.5,0.074 0.176,2.047 1.398,0.051 0.352,3.675 2.648,0.223 0,-3.898 3.5,0 -0.175,-2.2 -3.325,0 0,-6.621 c 0,-0.652 0.223,-0.875 0.875,-0.875 0.649,0 1.625,0.172 2.348,0.5 l 0.527,-2.027 c -0.875,-0.473 -2.125,-0.773 -3.675,-0.773"
         style="fill:#ffffff;fill-opacity:1;fill-rule:nonzero;stroke:none"
         id="path58" /><path
         d="m 94.328,28.873 0,11.773 3,0.176 0,-11.949 -3,0 z m -0.074,14.121 0,2.699 3.074,0 0,-2.699 -3.074,0"
         style="fill:#ffffff;fill-opacity:1;fill-rule:nonzero;stroke:none"
         id="path60" /><path
         d="m 108.023,38.248 c -0.796,0.25 -1.621,0.347 -2.246,0.347 -2.125,0 -3.05,-1.25 -3.05,-4.023 0,-2.301 0.8,-3.449 2.722,-3.449 0.977,0 1.926,0.25 2.824,0.676 l 0.778,-2.125 c -1.153,-0.625 -2.551,-0.977 -4.227,-0.977 -3.347,0 -5.148,1.578 -5.148,5.648 0,4.45 2.453,6.625 5.824,6.625 1.176,0 2.227,-0.125 3.148,-0.523 l -0.625,-2.199"
         style="fill:#ffffff;fill-opacity:1;fill-rule:nonzero;stroke:none"
         id="path62" /><path
         d="m 110.777,46.818 3,0.176 0,-14.848 c 0,-0.824 0.047,-1.023 0.723,-1.023 0.199,0 0.477,0 0.977,0.051 l 0.074,-2.125 c -0.551,-0.176 -1.574,-0.301 -2.477,-0.301 -1.547,0 -2.297,0.652 -2.297,2.324 l 0,15.746"
         style="fill:#ffffff;fill-opacity:1;fill-rule:nonzero;stroke:none"
         id="path64" /><path
         d="m 124.25,35.998 c 0,1.875 -0.676,2.722 -1.926,2.722 -1.375,0 -2.297,-0.898 -2.5,-2.722 l 4.426,0 z m -2.102,-7.301 c -3.421,0 -5.421,1.602 -5.421,5.574 0,4.074 2.148,6.676 5.921,6.676 3.204,0 4.329,-2.102 4.329,-5.426 0,-0.324 0,-0.722 -0.079,-1.347 l -7.171,0 c 0,-2.125 0.847,-3.176 2.847,-3.176 1.25,0 2.727,0.5 3.903,1.125 l 0.722,-2.024 C 125.824,29.224 124,28.697 122.148,28.697"
         style="fill:#ffffff;fill-opacity:1;fill-rule:nonzero;stroke:none"
         id="path66" /><path
         d="m 139.426,43.72 -1.949,0 0,-7.046 c 0.199,-0.051 1.398,-0.102 1.796,-0.102 2.301,0 3.102,1.848 3.102,3.898 0,1.7 -0.648,3.25 -2.949,3.25 z m -0.176,-9.449 c -0.398,0 -1.551,0.028 -1.773,0.102 l 0,-5.5 -3.125,0 0,17.246 5.5,0 c 3.949,0 5.621,-2.274 5.621,-5.399 0,-3.722 -2.45,-6.449 -6.223,-6.449"
         style="fill:#ffffff;fill-opacity:1;fill-rule:nonzero;stroke:none"
         id="path68" /><path
         d="m 154.727,28.873 0,8.199 c 0,0.824 -0.25,1.348 -1.176,1.348 -0.778,0 -1.875,-0.547 -2.875,-1.524 l 0,-8.023 -3.051,0 0,17.945 3.023,0.176 0,-7.871 c 1.454,1.273 2.801,1.847 4.102,1.847 2.223,0 3.051,-1.074 3.051,-3.324 l 0,-8.773 -3.074,0"
         style="fill:#ffffff;fill-opacity:1;fill-rule:nonzero;stroke:none"
         id="path70" /><path
         d="m 164.898,33.299 c 0.176,-0.5 0.227,-0.926 0.227,-1.25 0,0.324 0.051,0.773 0.227,1.25 l 2.699,7.371 2.773,0 -5.699,-14.344 c -0.75,-1.902 -1.973,-2.676 -4.824,-2.824 l -0.473,2.199 c 1.996,0.223 2.574,0.598 2.949,1.496 l 0.723,1.777 -4.223,11.696 3.075,0 2.546,-7.371"
         style="fill:#ffffff;fill-opacity:1;fill-rule:nonzero;stroke:none"
         id="path72" /><path
         d="m 175.852,28.674 c -1.602,0 -3.079,0.324 -4.403,0.949 l 0.574,2.25 c 1.301,-0.602 2.903,-0.977 4.051,-0.977 1.301,0 1.824,0.5 1.824,1.125 0,0.625 -0.222,1.028 -1.847,1.5 -3.449,1 -4.102,2 -4.102,3.727 0,2.25 1.852,3.746 4.574,3.746 1.477,0 2.778,-0.25 4.075,-0.875 l -0.75,-2.199 c -0.848,0.425 -2.325,0.726 -3.274,0.726 -1.25,0 -1.676,-0.5 -1.676,-1.125 0,-0.75 0.278,-1.051 2.227,-1.625 2.926,-0.898 3.625,-1.847 3.625,-3.5 0,-2.097 -1.551,-3.722 -4.898,-3.722"
         style="fill:#ffffff;fill-opacity:1;fill-rule:nonzero;stroke:none"
         id="path74" /><path
         d="m 183.051,28.873 0,11.773 3,0.176 0,-11.949 -3,0 z m -0.074,14.121 0,2.699 3.074,0 0,-2.699 -3.074,0"
         style="fill:#ffffff;fill-opacity:1;fill-rule:nonzero;stroke:none"
         id="path76" /><path
         d="m 196.746,38.248 c -0.797,0.25 -1.621,0.347 -2.246,0.347 -2.125,0 -3.051,-1.25 -3.051,-4.023 0,-2.301 0.801,-3.449 2.727,-3.449 0.972,0 1.922,0.25 2.82,0.676 l 0.777,-2.125 c -1.152,-0.625 -2.55,-0.977 -4.222,-0.977 -3.352,0 -5.153,1.578 -5.153,5.648 0,4.45 2.454,6.625 5.829,6.625 1.171,0 2.222,-0.125 3.144,-0.523 l -0.625,-2.199"
         style="fill:#ffffff;fill-opacity:1;fill-rule:nonzero;stroke:none"
         id="path78" /><path
         d="m 203.023,28.674 c -1.597,0 -3.074,0.324 -4.398,0.949 l 0.574,2.25 c 1.301,-0.602 2.903,-0.977 4.051,-0.977 1.301,0 1.824,0.5 1.824,1.125 0,0.625 -0.222,1.028 -1.847,1.5 -3.454,1 -4.102,2 -4.102,3.727 0,2.25 1.852,3.746 4.574,3.746 1.477,0 2.774,-0.25 4.074,-0.875 l -0.75,-2.199 c -0.847,0.425 -2.324,0.726 -3.273,0.726 -1.25,0 -1.676,-0.5 -1.676,-1.125 0,-0.75 0.278,-1.051 2.227,-1.625 2.922,-0.898 3.625,-1.847 3.625,-3.5 0,-2.097 -1.551,-3.722 -4.903,-3.722"
         style="fill:#ffffff;fill-opacity:1;fill-rule:nonzero;stroke:none"
         id="path80" /><path
         d="m 221.574,28.697 c -4.648,0 -7.25,2.426 -7.25,8.398 0,5.727 2.875,9.176 7.797,9.176 2.375,0 3.625,-0.25 5.324,-1 l -0.824,-2.449 c -1.375,0.598 -2.875,0.871 -4.398,0.871 -2.899,0 -4.625,-2.098 -4.625,-6.273 0,-4.672 1.875,-6.246 4.648,-6.246 1.027,0 1.801,0.175 2.699,0.574 l 0,3.472 -3.172,0 0.172,2.25 6.075,0 0,-7.046 c -1.625,-1.024 -3.95,-1.727 -6.446,-1.727"
         style="fill:#ffffff;fill-opacity:1;fill-rule:nonzero;stroke:none"
         id="path82" /><path
         d="m 237.574,38.146 c -0.375,0.024 -0.652,0.051 -0.953,0.051 -1.047,0 -1.348,-0.227 -2.695,-2.375 l 0,-6.949 -3.028,0 0,11.824 2.403,0.199 c 0.172,-0.375 0.297,-1.551 0.347,-2.648 1.102,2.246 1.723,2.648 2.825,2.648 0.523,0 1.05,-0.074 1.425,-0.176 l -0.324,-2.574"
         style="fill:#ffffff;fill-opacity:1;fill-rule:nonzero;stroke:none"
         id="path84" /><path
         d="m 244.473,38.771 c -1.649,0 -2.649,-1.351 -2.649,-3.926 0,-2.996 0.899,-3.996 2.551,-3.996 1.797,0 2.621,1.422 2.621,4.075 0,2.546 -0.723,3.847 -2.523,3.847 z m -0.297,-10.097 c -3.699,0 -5.5,1.925 -5.5,5.921 0,3.801 2.273,6.375 5.972,6.375 3.7,0 5.5,-1.824 5.5,-5.898 0,-3.723 -2.078,-6.398 -5.972,-6.398"
         style="fill:#ffffff;fill-opacity:1;fill-rule:nonzero;stroke:none"
         id="path86" /><path
         d="m 259.898,28.775 c -0.152,0.348 -0.277,1.172 -0.3,1.723 -1.375,-1.25 -2.797,-1.824 -4.098,-1.824 -2.273,0 -3.051,1.175 -3.051,3.375 l 0,8.597 3.074,0.125 0,-8.222 c 0,-0.852 0.325,-1.352 1.227,-1.352 0.746,0 1.699,0.426 2.746,1.402 l 0,8.02 3.074,0.152 0,-11.847 -2.672,-0.149"
         style="fill:#ffffff;fill-opacity:1;fill-rule:nonzero;stroke:none"
         id="path88" /><path
         d="m 271.098,38.521 c -0.926,0 -1.75,-0.5 -2.399,-1.101 l 0,-6.149 c 0.5,-0.222 1.25,-0.398 1.922,-0.398 1.852,0 2.852,1.301 2.852,4.074 0,2.25 -0.801,3.574 -2.375,3.574 z m -0.426,-9.722 c -0.649,0 -1.524,0.074 -1.973,0.273 l 0,-5.121 -3.074,-0.176 0,16.922 2.648,0.199 c 0.153,-0.375 0.25,-0.926 0.301,-1.476 1.024,1 2.274,1.574 3.672,1.574 2.625,0 4.324,-1.723 4.324,-5.82 0,-3.477 -1.648,-6.375 -5.898,-6.375"
         style="fill:#ffffff;fill-opacity:1;fill-rule:nonzero;stroke:none"
         id="path90" /><path
         d="M 32.145,22.388 C 31.984,17.252 28.809,13.412 24.488,12.06 L 24.414,12.033 C 24.352,12.017 24.293,11.998 24.289,12.01 l -0.055,-0.036 -0.039,0 C 23.953,11.9 23.707,11.838 23.441,11.779 23.152,11.732 22.859,11.701 22.574,11.674 21.84,11.576 21.07,11.525 20.293,11.525 c -1.059,0 -2.129,0.094 -3.148,0.274 -0.2,0.031 -0.403,0.078 -0.61,0.121 -0.078,0.019 -0.18,0.035 -0.297,0.058 -0.093,0.032 -0.183,0.051 -0.261,0.074 -4.7,1.282 -8.114,5.364 -8.114,10.852 l 0,14.785 2.293,0 0,0.008 4.043,0 0,-14.496 c 0.016,-4.824 3.063,-7.813 7.344,-7.828 4.215,0.012 7.215,2.988 7.242,7.797 -0.805,0.277 -1.64,0.597 -2.535,1.027 -7.863,3.77 -10.758,1.656 -10.758,1.656 0,0 3.797,7.235 11.899,3.844 0.484,-0.203 0.949,-0.391 1.398,-0.57 l 0,8.57 3.371,0 0,-9.793 c 4.981,-1.598 6.77,-1 7.684,0.613 0.758,-2.972 -1.848,-6.785 -7.699,-6.129 z m 8.265,23.684 -38.301,0 C 0.945,46.072 0,45.127 0,43.963 L 0,5.658 C 0,4.494 0.945,3.549 2.109,3.549 l 38.301,0 c 1.164,0 2.11,0.945 2.11,2.109 l 0,38.305 c 0,1.164 -0.946,2.109 -2.11,2.109"
         style="fill:#ffffff;fill-opacity:1;fill-rule:nonzero;stroke:none"
         id="path92" /></g></g></svg>