<?xml version="1.0" encoding="UTF-8" standalone="no"?>
<svg
   xmlns:dc="http://purl.org/dc/elements/1.1/"
   xmlns:cc="http://creativecommons.org/ns#"
   xmlns:rdf="http://www.w3.org/1999/02/22-rdf-syntax-ns#"
   xmlns:svg="http://www.w3.org/2000/svg"
   xmlns="http://www.w3.org/2000/svg"
   viewBox="0 0 462.35001 132.75"
   height="132.75"
   width="462.35001"
   xml:space="preserve"
   version="1.1"
   id="svg2"><metadata
     id="metadata8"><rdf:RDF><cc:Work
         rdf:about=""><dc:format>image/svg+xml</dc:format><dc:type
           rdf:resource="http://purl.org/dc/dcmitype/StillImage" /><dc:title></dc:title></cc:Work></rdf:RDF></metadata><defs
     id="defs6" /><g
     transform="matrix(1.25,0,0,-1.25,0,132.75)"
     id="g10"><g
       transform="scale(0.1,0.1)"
       id="g12"><path
         id="path14"
         style="fill:#ffffff;fill-opacity:1;fill-rule:nonzero;stroke:none"
         d="m 1579.18,735.594 c 88.12,0 127.66,53.359 127.66,131.523 l 0,194.883 -37.68,0 0,-194.414 c 0,-65.273 -22.36,-99.609 -87.62,-99.609 -62.89,0 -84.33,31.015 -84.33,95.351 l 0,198.672 -39.55,0 0,-201.055 c 0,-82.929 31.44,-125.351 121.52,-125.351" /><path
         id="path16"
         style="fill:#ffffff;fill-opacity:1;fill-rule:nonzero;stroke:none"
         d="m 1903.59,964.773 c -26.7,0 -54.8,-11.484 -85.27,-40 -0.47,16.172 -2.36,31.875 -5.23,38.086 l -32.39,-2.812 0,-221.563 38.11,0 0,156.289 c 24.73,24.727 52.85,38.047 71.44,38.047 23.32,0 29.55,-15.234 29.55,-34.257 l 0,-160.079 38.58,0 0,165.782 c 0,40.039 -13.81,60.507 -54.79,60.507" /><path
         id="path18"
         style="fill:#ffffff;fill-opacity:1;fill-rule:nonzero;stroke:none"
         d="m 2070.82,738.484 0,223.946 -38.11,-2.383 0,-221.563 38.11,0" /><path
         id="path20"
         style="fill:#ffffff;fill-opacity:1;fill-rule:nonzero;stroke:none"
         d="m 2030.33,1010.59 42.418,0 0,36.6016 -42.418,0 0,-36.6016 z" /><path
         id="path22"
         style="fill:#ffffff;fill-opacity:1;fill-rule:nonzero;stroke:none"
         d="m 2230.94,738.484 90.52,221.055 -36.21,0 -63.37,-161.055 c -3.34,-8.593 -4.77,-16.171 -4.77,-22.382 0,6.211 -0.96,12.851 -3.81,22.382 l -59.61,161.055 -39.98,0 84.32,-221.055 32.91,0" /><path
         id="path24"
         style="fill:#ffffff;fill-opacity:1;fill-rule:nonzero;stroke:none"
         d="m 2451.52,935.242 c 29.07,0 44.75,-20.898 44.75,-56.719 l 0,-5.195 -108.59,0 c 5.23,41.406 29.51,61.914 63.84,61.914 z m -8.59,-199.648 c 37.66,0 65.76,10.547 90.51,28.125 l -11.45,25.742 c -23.81,-14.766 -46.68,-23.32 -70,-23.32 -45.29,0 -66.27,23.75 -66.27,80.507 l 143.42,0 c 1.45,15.235 1.45,24.727 1.45,34.766 0,48.555 -26.72,82.891 -75.73,82.891 -65.31,0 -106.73,-43.828 -106.73,-126.25 0,-74.336 38.57,-102.461 94.8,-102.461" /><path
         id="path26"
         style="fill:#ffffff;fill-opacity:1;fill-rule:nonzero;stroke:none"
         d="m 2628.24,903.797 c -0.47,26.719 -2.34,52.383 -5.7,59.57 l -30.04,-3.32 0,-221.563 38.13,0 0,127.696 c 33.35,59.531 40.01,64.336 62.91,64.336 3.76,0 6.66,0 13.82,-0.547 l 3.32,31.484 c -4.74,1.406 -13.8,2.852 -22.87,2.852 -22.4,0 -35.25,-9.532 -59.57,-60.508" /><path
         id="path28"
         style="fill:#ffffff;fill-opacity:1;fill-rule:nonzero;stroke:none"
         d="m 2829.28,863.797 c -42.37,13.32 -49.07,20.469 -49.07,39.023 0,16.68 9.56,30 42.45,30 21.38,0 46.68,-5.703 60.5,-12.851 l 10.47,29.101 c -18.12,10.469 -40.49,15.703 -68.14,15.703 -52.85,0 -82.87,-27.656 -82.87,-64.804 0,-31.875 12.81,-48.555 69.53,-66.719 41.48,-13.281 47.15,-22.852 47.15,-39.453 0,-15.781 -12.39,-29.57 -45.28,-29.57 -22.36,0 -47.57,7.617 -71.85,19.531 l -9.59,-30.078 c 22.4,-12.305 48.14,-19.024 76.7,-19.024 62.4,0 87.22,30.508 87.22,64.336 0,28.594 -10.97,46.68 -67.22,64.805" /><path
         id="path30"
         style="fill:#ffffff;fill-opacity:1;fill-rule:nonzero;stroke:none"
         d="m 2993.69,738.484 0,223.946 -38.14,-2.383 0,-221.563 38.14,0" /><path
         id="path32"
         style="fill:#ffffff;fill-opacity:1;fill-rule:nonzero;stroke:none"
         d="m 2953.18,1010.59 42.3711,0 0,36.6016 -42.3711,0 0,-36.6016 z" /><path
         id="path34"
         style="fill:#ffffff;fill-opacity:1;fill-rule:nonzero;stroke:none"
         d="m 3181.84,777.547 c -17.64,-7.656 -32.37,-10.977 -46.68,-10.977 -17.6,0 -23.79,6.68 -23.79,25.235 l 0,138.164 70.47,0 2.38,30.078 -72.85,0 0,74.293 -32.89,-3.32 -5.26,-71.481 -28.08,-1.445 -2.39,-26.172 30.02,-1.406 0,-142.032 c 0,-37.148 17.17,-53.359 53.34,-53.359 24.79,0 46.23,5.273 63.83,15.273 l -8.1,27.149" /><path
         id="path36"
         style="fill:#ffffff;fill-opacity:1;fill-rule:nonzero;stroke:none"
         d="m 3323.4,935.242 c 29.04,0 44.74,-20.898 44.74,-56.719 l 0,-5.195 -108.61,0 c 5.22,41.406 29.57,61.914 63.87,61.914 z m -8.58,-199.648 c 37.62,0 65.73,10.547 90.49,28.125 l -11.42,25.742 c -23.83,-14.766 -46.7,-23.32 -70.04,-23.32 -45.26,0 -66.25,23.75 -66.25,80.507 l 143.42,0 c 1.42,15.235 1.42,24.727 1.42,34.766 0,48.555 -26.68,82.891 -75.72,82.891 -65.31,0 -106.72,-43.828 -106.72,-126.25 0,-74.336 38.57,-102.461 94.82,-102.461" /><path
         id="path38"
         style="fill:#ffffff;fill-opacity:1;fill-rule:nonzero;stroke:none"
         d="m 3461.97,1010.59 42.4414,0 0,36.6016 -42.4414,0 0,-36.6016 z" /><path
         id="path40"
         style="fill:#ffffff;fill-opacity:1;fill-rule:nonzero;stroke:none"
         d="m 3502.52,738.484 0,223.946 -38.14,-2.383 0,-221.563 38.14,0" /><path
         id="path42"
         style="fill:#ffffff;fill-opacity:1;fill-rule:nonzero;stroke:none"
         d="m 3690.7,777.547 c -17.61,-7.656 -32.38,-10.977 -46.7,-10.977 -17.61,0 -23.84,6.68 -23.84,25.235 l 0,138.164 70.54,0 2.39,30.078 -72.93,0 0,74.293 -32.84,-3.32 -5.25,-71.481 -28.09,-1.445 -2.4,-26.172 30,-1.406 0,-142.032 c 0,-37.148 17.15,-53.359 53.36,-53.359 24.81,0 46.27,5.273 63.85,15.273 l -8.09,27.149" /><path
         id="path44"
         style="fill:#ffffff;fill-opacity:1;fill-rule:nonzero;stroke:none"
         d="m 1535.12,306.336 47.59,129.57 c 3.36,9.024 5.75,19.492 5.75,25.703 0,-6.211 1.44,-15.703 4.76,-25.703 l 43.85,-129.57 -101.95,0 z m 36.66,195.742 -122.39,-323.476 38.09,0 38.13,99.101 120.52,0 34.77,-99.101 42.87,0 -114.81,323.476 -37.18,0" /><path
         id="path46"
         style="fill:#ffffff;fill-opacity:1;fill-rule:nonzero;stroke:none"
         d="m 1892.42,404.969 c -26.66,0 -54.78,-11.446 -85.29,-40.078 -0.47,16.211 -2.38,31.953 -5.2,38.086 l -32.42,-2.813 0,-221.562 38.11,0 0,156.25 c 24.78,24.765 52.91,38.125 71.46,38.125 23.34,0 29.53,-15.274 29.53,-34.297 l 0,-160.078 38.62,0 0,165.82 c 0,40 -13.83,60.547 -54.81,60.547" /><path
         id="path48"
         style="fill:#ffffff;fill-opacity:1;fill-rule:nonzero;stroke:none"
         d="m 2087.75,206.727 c -17.59,0 -23.8,6.679 -23.8,25.234 l 0,138.164 70.5,0 2.39,30.039 -72.89,0 0,74.336 -32.88,-3.398 -5.25,-71.446 -28.11,-1.445 -2.36,-26.211 30.02,-1.445 0,-141.953 c 0,-37.149 17.13,-53.321 53.34,-53.321 24.77,0 46.19,5.196 63.85,15.235 l -8.11,27.148 c -17.61,-7.617 -32.4,-10.937 -46.7,-10.937" /><path
         id="path50"
         style="fill:#ffffff;fill-opacity:1;fill-rule:nonzero;stroke:none"
         d="m 2396.99,240.047 c -2.87,-8.086 -4.33,-16.172 -4.33,-22.383 0,6.211 -0.96,12.813 -4.26,22.383 l -53.34,161.523 -31.95,-1.914 -51.96,-159.609 c -2.81,-8.086 -4.72,-16.172 -4.72,-22.383 0,6.211 -0.98,12.813 -3.81,22.383 l -47.17,159.609 -37.66,0 68.17,-221.054 31.42,0 55.26,160.546 c 2.89,8.594 4.33,16.211 4.33,22.461 0,-6.25 0.92,-14.336 3.77,-22.461 l 54.3,-160.546 32.89,0 74.36,221.054 -33.87,0 -51.43,-159.609" /><path
         id="path52"
         style="fill:#ffffff;fill-opacity:1;fill-rule:nonzero;stroke:none"
         d="m 2614.24,375.398 c 29.04,0 44.8,-20.937 44.8,-56.718 l 0,-5.235 -108.67,0 c 5.26,41.446 29.55,61.953 63.87,61.953 z m 0.45,-169.14 c -45.24,0 -66.21,23.75 -66.21,80.547 l 143.43,0 c 1.43,15.156 1.43,24.687 1.43,34.726 0,48.594 -26.7,82.93 -75.78,82.93 -65.26,0 -106.72,-43.867 -106.72,-126.289 0,-74.297 38.61,-102.422 94.8,-102.422 37.64,0 65.77,10.469 90.57,28.125 l -11.48,25.703 c -23.81,-14.765 -46.66,-23.32 -70.04,-23.32" /><path
         id="path54"
         style="fill:#ffffff;fill-opacity:1;fill-rule:nonzero;stroke:none"
         d="m 2791,343.875 c -0.51,26.68 -2.41,52.461 -5.77,59.648 l -30.02,-3.359 0,-221.562 38.15,0 0,127.734 c 33.38,59.531 40.06,64.219 62.89,64.219 3.83,0 6.66,0 13.79,-0.43 l 3.36,31.445 c -4.75,1.407 -13.83,2.891 -22.85,2.891 -22.41,0 -35.26,-9.531 -59.55,-60.586" /><path
         id="path56"
         style="fill:#ffffff;fill-opacity:1;fill-rule:nonzero;stroke:none"
         d="m 3000.59,203.875 c -17.13,0 -34.26,5.195 -46.66,11.406 l 0,129.141 c 13.34,14.766 34.76,29.062 58.59,29.062 38.12,0 54.28,-31.914 54.28,-79.57 0,-57.656 -23.32,-90.039 -66.21,-90.039 z m 22.89,201.094 c -27.15,0 -52.41,-11.992 -70.96,-30.977 -0.51,10.899 -2.42,22.852 -5.29,29.531 l -32.37,-3.359 0,-316.4062 39.07,2.3828 0,99.1404 c 11.89,-6.679 27.14,-9.023 45.25,-9.023 73.87,0 107.19,53.32 107.19,120.508 0,73.789 -30,108.203 -82.89,108.203" /><path
         id="path58"
         style="fill:#ffffff;fill-opacity:1;fill-rule:nonzero;stroke:none"
         d="m 3252.19,375.398 c 29.04,0 44.72,-20.937 44.72,-56.718 l 0,-5.235 -108.57,0 c 5.21,41.446 29.55,61.953 63.85,61.953 z m 0.47,-169.14 c -45.28,0 -66.21,23.75 -66.21,80.547 l 143.39,0 c 1.43,15.156 1.43,24.687 1.43,34.726 0,48.594 -26.68,82.93 -75.76,82.93 -65.26,0 -106.7,-43.867 -106.7,-126.289 0,-74.297 38.57,-102.422 94.78,-102.422 37.64,0 65.77,10.469 90.55,28.125 l -11.46,25.703 c -23.79,-14.765 -46.7,-23.32 -70.02,-23.32" /><path
         id="path60"
         style="fill:#ffffff;fill-opacity:1;fill-rule:nonzero;stroke:none"
         d="m 3516.11,404.969 c -26.66,0 -54.8,-11.446 -85.27,-40.078 -0.49,16.211 -2.4,31.953 -5.25,38.086 l -32.39,-2.813 0,-221.562 38.09,0 0,156.25 c 24.76,24.765 52.93,38.125 71.48,38.125 23.36,0 29.57,-15.274 29.57,-34.297 l 0,-160.078 38.56,0 0,165.82 c 0,40 -13.81,60.547 -54.79,60.547" /><path
         id="path62"
         style="fill:#ffffff;fill-opacity:1;fill-rule:nonzero;stroke:none"
         d="m 984.57,669.766 0,392.234 -120.996,0 0,-348.203 c -21.254,8.375 -43.476,17.391 -66.816,27.148 C 462.5,880.789 305.859,582.195 305.859,582.195 c 0,0 119.395,87.266 443.868,-68.281 40.023,-19.172 77.918,-34.375 113.746,-46.152 -2.188,-200.266 -130.266,-326.973 -307.907,-326.973 -181.093,0 -311.972,128.867 -311.972,332.149 l 0,589.062 -148.9065,0 0,-0.27 L 0,1061.73 0,460.633 C 0,237.859 138.008,73.5234 328.379,21.3398 c 3.125,-0.9414 6.601,-1.9609 10.664,-2.8906 3.984,-0.9375 8.184,-1.5703 12.246,-2.4687 8.086,-1.8321 16.25,-3.5899 24.512,-5.0313 C 447.871,-1.75 526.387,-3.35156 596.973,5.91016 608.887,7 620.742,8.44922 632.441,10.2813 c 10.586,2.3085 20.938,5.1601 31.27,8.1289 0.098,0 0.195,0 0.215,0.039 0.176,0.0313 0.254,0.0703 0.39,0.0703 2.481,0.711 5.02,1.4102 7.442,2.1524 0.703,0.1992 1.191,0.4297 1.836,0.6289 175.793,55.2187 304.332,209.7812 310.676,418.2502 248.12,-32.18 358.32,128.445 326.53,252.722 -38.22,-67.695 -113.32,-92.351 -326.23,-22.507" /></g></g></svg>